%TF.GenerationSoftware,KiCad,Pcbnew,9.0.6*%
%TF.CreationDate,2026-03-03T22:29:33+11:00*%
%TF.ProjectId,flightcomputer2,666c6967-6874-4636-9f6d-707574657232,rev?*%
%TF.SameCoordinates,Original*%
%TF.FileFunction,Paste,Top*%
%TF.FilePolarity,Positive*%
%FSLAX46Y46*%
G04 Gerber Fmt 4.6, Leading zero omitted, Abs format (unit mm)*
G04 Created by KiCad (PCBNEW 9.0.6) date 2026-03-03 22:29:33*
%MOMM*%
%LPD*%
G01*
G04 APERTURE LIST*
G04 Aperture macros list*
%AMRoundRect*
0 Rectangle with rounded corners*
0 $1 Rounding radius*
0 $2 $3 $4 $5 $6 $7 $8 $9 X,Y pos of 4 corners*
0 Add a 4 corners polygon primitive as box body*
4,1,4,$2,$3,$4,$5,$6,$7,$8,$9,$2,$3,0*
0 Add four circle primitives for the rounded corners*
1,1,$1+$1,$2,$3*
1,1,$1+$1,$4,$5*
1,1,$1+$1,$6,$7*
1,1,$1+$1,$8,$9*
0 Add four rect primitives between the rounded corners*
20,1,$1+$1,$2,$3,$4,$5,0*
20,1,$1+$1,$4,$5,$6,$7,0*
20,1,$1+$1,$6,$7,$8,$9,0*
20,1,$1+$1,$8,$9,$2,$3,0*%
G04 Aperture macros list end*
%ADD10R,1.000000X1.400000*%
%ADD11RoundRect,0.250000X0.450000X-0.350000X0.450000X0.350000X-0.450000X0.350000X-0.450000X-0.350000X0*%
%ADD12RoundRect,0.250000X0.350000X0.450000X-0.350000X0.450000X-0.350000X-0.450000X0.350000X-0.450000X0*%
%ADD13RoundRect,0.250000X-0.337500X-0.475000X0.337500X-0.475000X0.337500X0.475000X-0.337500X0.475000X0*%
%ADD14RoundRect,0.250000X0.475000X-0.337500X0.475000X0.337500X-0.475000X0.337500X-0.475000X-0.337500X0*%
%ADD15RoundRect,0.150000X-0.850000X-0.350000X0.850000X-0.350000X0.850000X0.350000X-0.850000X0.350000X0*%
%ADD16RoundRect,0.250000X0.337500X0.475000X-0.337500X0.475000X-0.337500X-0.475000X0.337500X-0.475000X0*%
%ADD17RoundRect,0.250000X-0.350000X-0.450000X0.350000X-0.450000X0.350000X0.450000X-0.350000X0.450000X0*%
%ADD18RoundRect,0.250000X-0.650000X0.800000X-0.650000X-0.800000X0.650000X-0.800000X0.650000X0.800000X0*%
%ADD19RoundRect,0.250000X-0.450000X0.350000X-0.450000X-0.350000X0.450000X-0.350000X0.450000X0.350000X0*%
%ADD20RoundRect,0.075000X-0.700000X-0.075000X0.700000X-0.075000X0.700000X0.075000X-0.700000X0.075000X0*%
%ADD21RoundRect,0.075000X-0.075000X-0.700000X0.075000X-0.700000X0.075000X0.700000X-0.075000X0.700000X0*%
%ADD22RoundRect,0.043750X-0.221250X-0.131250X0.221250X-0.131250X0.221250X0.131250X-0.221250X0.131250X0*%
%ADD23RoundRect,0.043750X-0.131250X-0.221250X0.131250X-0.221250X0.131250X0.221250X-0.131250X0.221250X0*%
%ADD24R,0.550000X0.950000*%
%ADD25RoundRect,0.116250X0.873750X0.348750X-0.873750X0.348750X-0.873750X-0.348750X0.873750X-0.348750X0*%
%ADD26RoundRect,0.247500X0.742500X1.367500X-0.742500X1.367500X-0.742500X-1.367500X0.742500X-1.367500X0*%
%ADD27R,0.900000X0.250000*%
%ADD28R,0.250000X0.900000*%
%ADD29R,3.000000X1.400000*%
%ADD30RoundRect,0.237500X0.287500X0.237500X-0.287500X0.237500X-0.287500X-0.237500X0.287500X-0.237500X0*%
%ADD31R,1.200000X0.900000*%
%ADD32RoundRect,0.250000X-0.475000X0.337500X-0.475000X-0.337500X0.475000X-0.337500X0.475000X0.337500X0*%
%ADD33RoundRect,0.250000X0.587500X1.625000X-0.587500X1.625000X-0.587500X-1.625000X0.587500X-1.625000X0*%
%ADD34R,1.500000X0.800000*%
%ADD35RoundRect,0.362500X0.637500X-0.362500X0.637500X0.362500X-0.637500X0.362500X-0.637500X-0.362500X0*%
%ADD36R,0.600000X1.150000*%
%ADD37R,1.450000X0.600000*%
%ADD38R,1.450000X0.300000*%
%ADD39RoundRect,0.112500X-0.112500X0.187500X-0.112500X-0.187500X0.112500X-0.187500X0.112500X0.187500X0*%
%ADD40RoundRect,0.150000X-0.587500X-0.150000X0.587500X-0.150000X0.587500X0.150000X-0.587500X0.150000X0*%
%ADD41RoundRect,0.150000X-0.825000X-0.150000X0.825000X-0.150000X0.825000X0.150000X-0.825000X0.150000X0*%
%ADD42RoundRect,0.250000X-0.587500X-1.625000X0.587500X-1.625000X0.587500X1.625000X-0.587500X1.625000X0*%
%ADD43RoundRect,0.250000X-0.435000X-0.615000X0.435000X-0.615000X0.435000X0.615000X-0.435000X0.615000X0*%
%ADD44RoundRect,0.125000X-0.250000X-0.125000X0.250000X-0.125000X0.250000X0.125000X-0.250000X0.125000X0*%
G04 APERTURE END LIST*
D10*
%TO.C,Q2*%
X135200000Y-105500000D03*
X134250000Y-103300000D03*
X136150000Y-103300000D03*
%TD*%
%TO.C,Q1*%
X125000000Y-105900000D03*
X124050000Y-103700000D03*
X125950000Y-103700000D03*
%TD*%
D11*
%TO.C,R12*%
X132000000Y-100250000D03*
X132000000Y-98250000D03*
%TD*%
D12*
%TO.C,R17*%
X159700000Y-62200000D03*
X157700000Y-62200000D03*
%TD*%
D13*
%TO.C,C9*%
X153062500Y-102081250D03*
X155137500Y-102081250D03*
%TD*%
D14*
%TO.C,C15*%
X154513500Y-86386500D03*
X154513500Y-84311500D03*
%TD*%
D15*
%TO.C,SW2*%
X117100000Y-80700000D03*
X123100000Y-80700000D03*
X117100000Y-84400000D03*
X123100000Y-84400000D03*
%TD*%
D16*
%TO.C,C20*%
X164562500Y-76825000D03*
X162487500Y-76825000D03*
%TD*%
D13*
%TO.C,C28*%
X150162500Y-78100000D03*
X152237500Y-78100000D03*
%TD*%
D11*
%TO.C,R20*%
X174500000Y-123800000D03*
X174500000Y-121800000D03*
%TD*%
%TO.C,FB1*%
X155100000Y-100081250D03*
X155100000Y-98081250D03*
%TD*%
D17*
%TO.C,R19*%
X170700000Y-121900000D03*
X172700000Y-121900000D03*
%TD*%
D18*
%TO.C,Y1*%
X149963500Y-85349000D03*
X149963500Y-88249000D03*
X152263500Y-88249000D03*
X152263500Y-85349000D03*
%TD*%
D19*
%TO.C,R7*%
X121400000Y-98875000D03*
X121400000Y-100875000D03*
%TD*%
D13*
%TO.C,C12*%
X159862500Y-80600000D03*
X161937500Y-80600000D03*
%TD*%
D20*
%TO.C,U1*%
X157925000Y-84750000D03*
X157925000Y-85250000D03*
X157925000Y-85750000D03*
X157925000Y-86250000D03*
X157925000Y-86750000D03*
X157925000Y-87250000D03*
X157925000Y-87750000D03*
X157925000Y-88250000D03*
X157925000Y-88750000D03*
X157925000Y-89250000D03*
X157925000Y-89750000D03*
X157925000Y-90250000D03*
X157925000Y-90750000D03*
X157925000Y-91250000D03*
X157925000Y-91750000D03*
X157925000Y-92250000D03*
D21*
X159850000Y-94175000D03*
X160350000Y-94175000D03*
X160850000Y-94175000D03*
X161350000Y-94175000D03*
X161850000Y-94175000D03*
X162350000Y-94175000D03*
X162850000Y-94175000D03*
X163350000Y-94175000D03*
X163850000Y-94175000D03*
X164350000Y-94175000D03*
X164850000Y-94175000D03*
X165350000Y-94175000D03*
X165850000Y-94175000D03*
X166350000Y-94175000D03*
X166850000Y-94175000D03*
X167350000Y-94175000D03*
D20*
X169275000Y-92250000D03*
X169275000Y-91750000D03*
X169275000Y-91250000D03*
X169275000Y-90750000D03*
X169275000Y-90250000D03*
X169275000Y-89750000D03*
X169275000Y-89250000D03*
X169275000Y-88750000D03*
X169275000Y-88250000D03*
X169275000Y-87750000D03*
X169275000Y-87250000D03*
X169275000Y-86750000D03*
X169275000Y-86250000D03*
X169275000Y-85750000D03*
X169275000Y-85250000D03*
X169275000Y-84750000D03*
D21*
X167350000Y-82825000D03*
X166850000Y-82825000D03*
X166350000Y-82825000D03*
X165850000Y-82825000D03*
X165350000Y-82825000D03*
X164850000Y-82825000D03*
X164350000Y-82825000D03*
X163850000Y-82825000D03*
X163350000Y-82825000D03*
X162850000Y-82825000D03*
X162350000Y-82825000D03*
X161850000Y-82825000D03*
X161350000Y-82825000D03*
X160850000Y-82825000D03*
X160350000Y-82825000D03*
X159850000Y-82825000D03*
%TD*%
D19*
%TO.C,R10*%
X138000000Y-103300000D03*
X138000000Y-105300000D03*
%TD*%
D11*
%TO.C,R13*%
X184350000Y-96500000D03*
X184350000Y-94500000D03*
%TD*%
%TO.C,R1*%
X127500000Y-93875000D03*
X127500000Y-91875000D03*
%TD*%
%TO.C,R4*%
X124900000Y-99450000D03*
X124900000Y-97450000D03*
%TD*%
D22*
%TO.C,U9*%
X150380000Y-71400000D03*
X150380000Y-71900000D03*
X150380000Y-72400000D03*
X150380000Y-72900000D03*
X150380000Y-73400000D03*
D23*
X151100000Y-73620000D03*
X151600000Y-73620000D03*
X152100000Y-73620000D03*
D22*
X152820000Y-73400000D03*
X152820000Y-72900000D03*
X152820000Y-72400000D03*
X152820000Y-71900000D03*
X152820000Y-71400000D03*
D23*
X152100000Y-71180000D03*
X151600000Y-71180000D03*
X151100000Y-71180000D03*
%TD*%
D24*
%TO.C,U6*%
X159350000Y-72900000D03*
X160600000Y-72900000D03*
X161850000Y-72900000D03*
X163100000Y-72900000D03*
X163100000Y-70750000D03*
X161850000Y-70750000D03*
X160600000Y-70750000D03*
X159350000Y-70750000D03*
%TD*%
D16*
%TO.C,C14*%
X155237500Y-91981250D03*
X153162500Y-91981250D03*
%TD*%
D25*
%TO.C,U4*%
X158665000Y-115200000D03*
X158665000Y-112900000D03*
X158665000Y-110600000D03*
D26*
X152635000Y-112900000D03*
%TD*%
D14*
%TO.C,C26*%
X168400000Y-59737500D03*
X168400000Y-57662500D03*
%TD*%
D17*
%TO.C,R18*%
X168600000Y-61700000D03*
X170600000Y-61700000D03*
%TD*%
D27*
%TO.C,U7*%
X140950000Y-73850000D03*
X140950000Y-74350000D03*
X140950000Y-74850000D03*
X140950000Y-75350000D03*
D28*
X141800000Y-75700000D03*
X142300000Y-75700000D03*
X142800000Y-75700000D03*
D27*
X143650000Y-75350000D03*
X143650000Y-74850000D03*
X143650000Y-74350000D03*
X143650000Y-73850000D03*
D28*
X142800000Y-73500000D03*
X142300000Y-73500000D03*
X141800000Y-73500000D03*
%TD*%
D29*
%TO.C,U5*%
X192675000Y-76025000D03*
X192675000Y-74025000D03*
X192675000Y-72025000D03*
X192675000Y-70025000D03*
X192675000Y-68025000D03*
X192675000Y-66025000D03*
X192675000Y-64025000D03*
X192675000Y-62025000D03*
X177275000Y-62025000D03*
X177275000Y-64025000D03*
X177275000Y-66025000D03*
X177275000Y-68025000D03*
X177275000Y-70025000D03*
X177275000Y-72025000D03*
X177275000Y-74025000D03*
X177275000Y-76025000D03*
%TD*%
D13*
%TO.C,C11*%
X169862500Y-82300000D03*
X171937500Y-82300000D03*
%TD*%
D14*
%TO.C,C17*%
X144900000Y-60137500D03*
X144900000Y-58062500D03*
%TD*%
D30*
%TO.C,PowerLED1*%
X192775000Y-114600000D03*
X191025000Y-114600000D03*
%TD*%
D31*
%TO.C,D1*%
X192900000Y-110325000D03*
X190100000Y-110325000D03*
X190100000Y-108875000D03*
X192900000Y-108875000D03*
%TD*%
D12*
%TO.C,R2*%
X125000000Y-86300000D03*
X123000000Y-86300000D03*
%TD*%
D19*
%TO.C,R11*%
X131900000Y-103700000D03*
X131900000Y-105700000D03*
%TD*%
%TO.C,R6*%
X121400000Y-103875000D03*
X121400000Y-105875000D03*
%TD*%
D32*
%TO.C,C19*%
X161012500Y-110662500D03*
X161012500Y-112737500D03*
%TD*%
%TO.C,C8*%
X171000000Y-94762500D03*
X171000000Y-96837500D03*
%TD*%
D33*
%TO.C,D2*%
X157600000Y-122725000D03*
X153225000Y-122725000D03*
%TD*%
D34*
%TO.C,J8*%
X185025000Y-88905000D03*
X185025000Y-87805000D03*
X185025000Y-86705000D03*
X185025000Y-85605000D03*
X185025000Y-84505000D03*
X185025000Y-83405000D03*
X185025000Y-82305000D03*
X185025000Y-81205000D03*
D35*
X182425000Y-92575000D03*
X190725000Y-92575000D03*
X182425000Y-78825000D03*
X190725000Y-78825000D03*
%TD*%
D14*
%TO.C,C7*%
X157900000Y-82137500D03*
X157900000Y-80062500D03*
%TD*%
D32*
%TO.C,C3*%
X166500000Y-96262500D03*
X166500000Y-98337500D03*
%TD*%
D19*
%TO.C,R14*%
X184250000Y-100300000D03*
X184250000Y-102300000D03*
%TD*%
D13*
%TO.C,C27*%
X150162500Y-76000000D03*
X152237500Y-76000000D03*
%TD*%
D11*
%TO.C,R9*%
X137900000Y-101500000D03*
X137900000Y-99500000D03*
%TD*%
D13*
%TO.C,C23*%
X143362500Y-71800000D03*
X145437500Y-71800000D03*
%TD*%
D36*
%TO.C,D4*%
X182200000Y-98000000D03*
X181250000Y-98000000D03*
X180300000Y-98000000D03*
X180300000Y-100500000D03*
X181250000Y-100500000D03*
X182200000Y-100500000D03*
%TD*%
D37*
%TO.C,J9*%
X186755000Y-102650000D03*
X186755000Y-101850000D03*
D38*
X186755000Y-100650000D03*
X186755000Y-99650000D03*
X186755000Y-99150000D03*
X186755000Y-98150000D03*
D37*
X186755000Y-96950000D03*
X186755000Y-96150000D03*
X186755000Y-96150000D03*
X186755000Y-96950000D03*
D38*
X186755000Y-97650000D03*
X186755000Y-98650000D03*
X186755000Y-100150000D03*
X186755000Y-101150000D03*
D37*
X186755000Y-101850000D03*
X186755000Y-102650000D03*
%TD*%
D16*
%TO.C,C18*%
X158900000Y-119250000D03*
X156825000Y-119250000D03*
%TD*%
D15*
%TO.C,SW1*%
X117100000Y-89650000D03*
X123100000Y-89650000D03*
X117100000Y-93350000D03*
X123100000Y-93350000D03*
%TD*%
D14*
%TO.C,C2*%
X125200000Y-91812500D03*
X125200000Y-89737500D03*
%TD*%
%TO.C,C1*%
X187855000Y-110412500D03*
X187855000Y-108337500D03*
%TD*%
D19*
%TO.C,R3*%
X188500000Y-114800000D03*
X188500000Y-116800000D03*
%TD*%
D12*
%TO.C,R8*%
X145000000Y-56000000D03*
X143000000Y-56000000D03*
%TD*%
D16*
%TO.C,C13*%
X155237500Y-94081250D03*
X153162500Y-94081250D03*
%TD*%
D39*
%TO.C,D6*%
X170500000Y-113150000D03*
X170500000Y-115250000D03*
%TD*%
D32*
%TO.C,C22*%
X160525000Y-74587500D03*
X160525000Y-76662500D03*
%TD*%
D13*
%TO.C,C10*%
X153162500Y-96181250D03*
X155237500Y-96181250D03*
%TD*%
D16*
%TO.C,C24*%
X141437500Y-77400000D03*
X139362500Y-77400000D03*
%TD*%
D32*
%TO.C,C16*%
X147682250Y-86762500D03*
X147682250Y-88837500D03*
%TD*%
%TO.C,C25*%
X145600000Y-75962500D03*
X145600000Y-78037500D03*
%TD*%
D16*
%TO.C,C21*%
X164562500Y-74725000D03*
X162487500Y-74725000D03*
%TD*%
D17*
%TO.C,R16*%
X176700000Y-84500000D03*
X178700000Y-84500000D03*
%TD*%
D13*
%TO.C,C4*%
X171312500Y-84500000D03*
X173387500Y-84500000D03*
%TD*%
D32*
%TO.C,C5*%
X168900000Y-94762500D03*
X168900000Y-96837500D03*
%TD*%
D17*
%TO.C,R15*%
X176700000Y-87800000D03*
X178700000Y-87800000D03*
%TD*%
D40*
%TO.C,Q3*%
X177362500Y-121650000D03*
X177362500Y-123550000D03*
X179237500Y-122600000D03*
%TD*%
D16*
%TO.C,C6*%
X160737500Y-96300000D03*
X158662500Y-96300000D03*
%TD*%
D41*
%TO.C,U2*%
X147125000Y-57295000D03*
X147125000Y-58565000D03*
X147125000Y-59835000D03*
X147125000Y-61105000D03*
X152075000Y-61105000D03*
X152075000Y-59835000D03*
X152075000Y-58565000D03*
X152075000Y-57295000D03*
%TD*%
D42*
%TO.C,D3*%
X160512500Y-122700000D03*
X164887500Y-122700000D03*
%TD*%
D17*
%TO.C,R5*%
X125950000Y-101950000D03*
X127950000Y-101950000D03*
%TD*%
D43*
%TO.C,U8*%
X163137500Y-60625000D03*
X163137500Y-62775000D03*
X164837500Y-60625000D03*
X164837500Y-62775000D03*
D44*
X161287500Y-59795000D03*
X161287500Y-61065000D03*
X161287500Y-62335000D03*
X161287500Y-63605000D03*
X166687500Y-63605000D03*
X166687500Y-62335000D03*
X166687500Y-61065000D03*
X166687500Y-59795000D03*
%TD*%
M02*
