M48
; DRILL file {KiCad 9.0.6} date 2026-03-04T12:45:34+1100
; FORMAT={-:-/ absolute / metric / decimal}
; #@! TF.CreationDate,2026-03-04T12:45:34+11:00
; #@! TF.GenerationSoftware,Kicad,Pcbnew,9.0.6
; #@! TF.FileFunction,Plated,1,4,PTH
FMAT,2
METRIC
; #@! TA.AperFunction,Plated,PTH,ViaDrill
T1C0.300
; #@! TA.AperFunction,Plated,PTH,ComponentDrill
T2C0.500
; #@! TA.AperFunction,Plated,PTH,ComponentDrill
T3C0.600
; #@! TA.AperFunction,Plated,PTH,ComponentDrill
T4C1.000
; #@! TA.AperFunction,Plated,PTH,ComponentDrill
T5C1.194
; #@! TA.AperFunction,Plated,PTH,ComponentDrill
T6C1.500
; #@! TA.AperFunction,Plated,PTH,ComponentDrill
T7C1.700
; #@! TA.AperFunction,Plated,PTH,ComponentDrill
T8C1.800
; #@! TA.AperFunction,Plated,PTH,ComponentDrill
T9C3.200
%
G90
G05
T1
X116.9Y-94.575
X117.1Y-79.1
X119.85Y-101.725
X121.4Y-97.575
X124.0Y-100.9
X126.5Y-86.3
X127.5Y-94.8
X128.0Y-100.4
X130.3Y-102.3
X131.9Y-82.1
X132.0Y-97.134
X133.0Y-95.7
X134.2Y-102.1
X139.3Y-105.3
X139.4Y-75.9
X139.45Y-74.3
X139.75Y-73.55
X140.942Y-72.788
X142.105Y-72.229
X142.2Y-79.0
X142.8Y-76.9
X143.259Y-70.1
X143.65Y-78.1
X144.7Y-90.1
X144.9Y-61.6
X144.96Y-70.1
X146.3Y-85.4
X146.3Y-86.5
X146.3Y-87.5
X146.3Y-88.6
X146.3Y-89.8
X146.7Y-55.8
X146.7Y-62.2
X147.0Y-76.0
X147.1Y-64.6
X147.3Y-85.4
X147.4Y-89.9
X147.5Y-73.4
X148.3Y-83.3
X148.3Y-84.3
X148.3Y-85.3
X148.4Y-89.9
X148.7Y-73.4
X148.725Y-77.27
X148.9Y-58.9
X148.9Y-64.5
X149.1Y-91.8
X149.3Y-89.9
X149.4Y-83.2
X149.403Y-72.725
X150.1Y-89.9
X150.425Y-69.37
X150.5Y-83.2
X150.6Y-112.9
X151.1Y-89.9
X151.6Y-83.2
X151.75Y-95.181
X151.85Y-92.881
X152.1Y-89.9
X152.125Y-70.27
X152.225Y-79.67
X152.8Y-83.2
X152.9Y-89.9
X153.0Y-103.6
X153.6Y-71.9
X153.7Y-83.0
X153.8Y-57.4
X153.8Y-89.9
X153.9Y-88.9
X154.3Y-80.15
X154.6Y-83.0
X155.0Y-88.9
X155.137Y-103.544
X155.3Y-83.0
X156.0Y-88.9
X156.064Y-83.025
X156.064Y-83.9
X156.064Y-84.8
X156.1Y-85.6
X156.165Y-80.589
X156.5Y-101.5
X156.519Y-62.631
X156.523Y-89.85
X156.624Y-81.718
X156.825Y-117.575
X157.5Y-99.7
X157.9Y-78.8
X158.5Y-97.6
X158.65Y-108.65
X158.7Y-77.5
X158.725Y-74.225
X159.35Y-69.3
X159.4Y-88.4
X159.5Y-91.2
X159.9Y-79.2
X159.968Y-71.582
X160.1Y-60.5
X160.3Y-90.6
X160.4Y-87.75
X160.7Y-64.854
X161.025Y-114.2
X161.4Y-97.9
X161.8Y-92.8
X161.9Y-79.2
X162.5Y-91.7
X162.656Y-79.477
X162.8Y-95.8
X163.2Y-98.1
X163.3Y-102.0
X163.4Y-80.3
X163.812Y-87.024
X164.035Y-79.704
X164.076Y-87.876
X164.785Y-79.304
X164.85Y-91.04
X165.6Y-87.9
X166.2Y-91.7
X166.45Y-65.0
X166.485Y-79.185
X166.569Y-90.0
X166.6Y-90.8
X167.2Y-79.8
X167.75Y-85.75
X167.9Y-63.6
X167.9Y-98.3
X167.9Y-105.4
X169.594Y-58.106
X169.6Y-75.12
X169.8Y-105.3
X169.9Y-80.6
X170.0Y-97.9
X170.54Y-78.44
X170.6Y-60.1
X172.2Y-92.9
X172.374Y-74.174
X172.4Y-94.1
X172.4Y-96.4
X173.4Y-73.1
X173.724Y-82.824
X174.4Y-54.9
X174.785Y-68.965
X174.876Y-87.8
X175.124Y-74.324
X175.185Y-70.834
X175.424Y-84.624
X176.8Y-125.0
X178.3Y-106.9
X178.6Y-86.2
X181.1Y-96.9
X182.4Y-94.0
X182.7Y-82.3
X182.7Y-86.7
X182.9Y-102.6
X184.33Y-93.35
X184.4Y-78.2
X186.02Y-104.65
X186.055Y-108.4
X186.155Y-110.4
X188.5Y-118.275
X188.7Y-72.1
X189.6Y-70.025
X189.7Y-68.025
X190.4Y-66.025
X190.7Y-77.6
X190.8Y-93.8
X192.6Y-77.6
X192.7Y-59.9
X192.8Y-113.3
T2
X117.6Y-53.0
X117.6Y-123.0
X118.303Y-51.303
X118.303Y-54.697
X118.303Y-121.303
X118.303Y-124.697
X120.0Y-50.6
X120.0Y-55.4
X120.0Y-120.6
X120.0Y-125.4
X121.697Y-51.303
X121.697Y-54.697
X121.697Y-121.303
X121.697Y-124.697
X122.4Y-53.0
X122.4Y-123.0
X187.6Y-53.0
X187.6Y-123.0
X188.303Y-51.303
X188.303Y-54.697
X188.303Y-121.303
X188.303Y-124.697
X190.0Y-50.6
X190.0Y-55.4
X190.0Y-120.6
X190.0Y-125.4
X191.697Y-51.303
X191.697Y-54.697
X191.697Y-121.303
X191.697Y-124.697
X192.4Y-53.0
X192.4Y-123.0
T4
X146.037Y-51.625
X148.537Y-51.625
X151.037Y-51.625
X153.537Y-51.625
X156.037Y-51.625
X162.3Y-51.625
X164.8Y-51.625
X167.3Y-51.625
X169.8Y-51.625
X172.3Y-51.625
X178.3Y-110.0
X178.3Y-117.6
T5
X118.93Y-62.288
X118.93Y-64.828
X118.93Y-67.368
X118.93Y-69.908
X118.93Y-72.448
X121.47Y-62.288
X121.47Y-64.828
X121.47Y-67.368
X121.47Y-69.908
X121.47Y-72.448
T6
X179.4Y-56.3
T7
X176.86Y-53.76
X176.86Y-58.84
X181.94Y-53.76
X181.94Y-58.84
T8
X127.8Y-108.37
X127.8Y-113.87
X129.4Y-62.1
X129.4Y-67.6
X136.3Y-108.37
X136.3Y-113.87
X137.9Y-62.1
X137.9Y-67.6
X144.8Y-108.37
X144.8Y-113.87
T9
X120.0Y-53.0
X120.0Y-123.0
X190.0Y-53.0
X190.0Y-123.0
T3
G00X187.12Y-95.08
M15
G01X188.22Y-95.08
M16
G05
G00X187.12Y-103.72
M15
G01X188.22Y-103.72
M16
G05
G00X191.55Y-95.08
M15
G01X192.15Y-95.08
M16
G05
G00X191.55Y-103.72
M15
G01X192.15Y-103.72
M16
G05
M30
