%TF.GenerationSoftware,KiCad,Pcbnew,9.0.6*%
%TF.CreationDate,2026-03-04T12:45:32+11:00*%
%TF.ProjectId,flightcomputer2,666c6967-6874-4636-9f6d-707574657232,rev?*%
%TF.SameCoordinates,Original*%
%TF.FileFunction,Soldermask,Top*%
%TF.FilePolarity,Negative*%
%FSLAX46Y46*%
G04 Gerber Fmt 4.6, Leading zero omitted, Abs format (unit mm)*
G04 Created by KiCad (PCBNEW 9.0.6) date 2026-03-04 12:45:32*
%MOMM*%
%LPD*%
G01*
G04 APERTURE LIST*
G04 Aperture macros list*
%AMRoundRect*
0 Rectangle with rounded corners*
0 $1 Rounding radius*
0 $2 $3 $4 $5 $6 $7 $8 $9 X,Y pos of 4 corners*
0 Add a 4 corners polygon primitive as box body*
4,1,4,$2,$3,$4,$5,$6,$7,$8,$9,$2,$3,0*
0 Add four circle primitives for the rounded corners*
1,1,$1+$1,$2,$3*
1,1,$1+$1,$4,$5*
1,1,$1+$1,$6,$7*
1,1,$1+$1,$8,$9*
0 Add four rect primitives between the rounded corners*
20,1,$1+$1,$2,$3,$4,$5,0*
20,1,$1+$1,$4,$5,$6,$7,0*
20,1,$1+$1,$6,$7,$8,$9,0*
20,1,$1+$1,$8,$9,$2,$3,0*%
%AMFreePoly0*
4,1,6,1.000000,0.000000,0.500000,-0.750000,-0.500000,-0.750000,-0.500000,0.750000,0.500000,0.750000,1.000000,0.000000,1.000000,0.000000,$1*%
%AMFreePoly1*
4,1,6,0.500000,-0.750000,-0.650000,-0.750000,-0.150000,0.000000,-0.650000,0.750000,0.500000,0.750000,0.500000,-0.750000,0.500000,-0.750000,$1*%
G04 Aperture macros list end*
%ADD10C,1.226200*%
%ADD11C,1.576200*%
%ADD12C,0.010000*%
%ADD13RoundRect,0.102000X-0.450000X-0.125000X0.450000X-0.125000X0.450000X0.125000X-0.450000X0.125000X0*%
%ADD14RoundRect,0.102000X-0.125000X-0.450000X0.125000X-0.450000X0.125000X0.450000X-0.125000X0.450000X0*%
%ADD15RoundRect,0.250000X-0.450000X0.350000X-0.450000X-0.350000X0.450000X-0.350000X0.450000X0.350000X0*%
%ADD16RoundRect,0.250000X0.450000X-0.350000X0.450000X0.350000X-0.450000X0.350000X-0.450000X-0.350000X0*%
%ADD17RoundRect,0.250000X0.350000X0.450000X-0.350000X0.450000X-0.350000X-0.450000X0.350000X-0.450000X0*%
%ADD18RoundRect,0.250000X-0.337500X-0.475000X0.337500X-0.475000X0.337500X0.475000X-0.337500X0.475000X0*%
%ADD19RoundRect,0.250000X0.475000X-0.337500X0.475000X0.337500X-0.475000X0.337500X-0.475000X-0.337500X0*%
%ADD20C,0.800000*%
%ADD21C,6.400000*%
%ADD22RoundRect,0.150000X-0.850000X-0.350000X0.850000X-0.350000X0.850000X0.350000X-0.850000X0.350000X0*%
%ADD23RoundRect,0.250000X0.337500X0.475000X-0.337500X0.475000X-0.337500X-0.475000X0.337500X-0.475000X0*%
%ADD24RoundRect,0.102000X0.500000X0.700000X-0.500000X0.700000X-0.500000X-0.700000X0.500000X-0.700000X0*%
%ADD25RoundRect,0.250000X-0.350000X-0.450000X0.350000X-0.450000X0.350000X0.450000X-0.350000X0.450000X0*%
%ADD26C,3.000000*%
%ADD27RoundRect,0.250000X-0.650000X0.800000X-0.650000X-0.800000X0.650000X-0.800000X0.650000X0.800000X0*%
%ADD28RoundRect,0.075000X-0.700000X-0.075000X0.700000X-0.075000X0.700000X0.075000X-0.700000X0.075000X0*%
%ADD29RoundRect,0.075000X-0.075000X-0.700000X0.075000X-0.700000X0.075000X0.700000X-0.075000X0.700000X0*%
%ADD30RoundRect,0.056250X-0.258750X-0.168750X0.258750X-0.168750X0.258750X0.168750X-0.258750X0.168750X0*%
%ADD31RoundRect,0.056250X-0.168750X-0.258750X0.168750X-0.258750X0.168750X0.258750X-0.168750X0.258750X0*%
%ADD32FreePoly0,270.000000*%
%ADD33FreePoly1,270.000000*%
%ADD34R,0.550000X0.950000*%
%ADD35RoundRect,0.141750X0.950250X0.425250X-0.950250X0.425250X-0.950250X-0.425250X0.950250X-0.425250X0*%
%ADD36RoundRect,0.273000X0.819000X1.444000X-0.819000X1.444000X-0.819000X-1.444000X0.819000X-1.444000X0*%
%ADD37RoundRect,0.102000X1.500000X0.700000X-1.500000X0.700000X-1.500000X-0.700000X1.500000X-0.700000X0*%
%ADD38RoundRect,0.237500X0.287500X0.237500X-0.287500X0.237500X-0.287500X-0.237500X0.287500X-0.237500X0*%
%ADD39R,1.200000X0.900000*%
%ADD40RoundRect,0.102000X-0.754000X-0.754000X0.754000X-0.754000X0.754000X0.754000X-0.754000X0.754000X0*%
%ADD41C,1.712000*%
%ADD42RoundRect,0.250000X-0.475000X0.337500X-0.475000X-0.337500X0.475000X-0.337500X0.475000X0.337500X0*%
%ADD43RoundRect,0.250000X0.587500X1.625000X-0.587500X1.625000X-0.587500X-1.625000X0.587500X-1.625000X0*%
%ADD44R,1.500000X0.800000*%
%ADD45RoundRect,0.362500X0.637500X-0.362500X0.637500X0.362500X-0.637500X0.362500X-0.637500X-0.362500X0*%
%ADD46C,2.050000*%
%ADD47C,2.250000*%
%ADD48RoundRect,0.102000X-0.300000X0.575000X-0.300000X-0.575000X0.300000X-0.575000X0.300000X0.575000X0*%
%ADD49R,2.000000X2.000000*%
%ADD50C,2.000000*%
%ADD51C,0.650000*%
%ADD52R,1.450000X0.600000*%
%ADD53R,1.450000X0.300000*%
%ADD54O,2.100000X1.000000*%
%ADD55O,1.600000X1.000000*%
%ADD56C,1.905800*%
%ADD57RoundRect,0.112500X-0.112500X0.187500X-0.112500X-0.187500X0.112500X-0.187500X0.112500X0.187500X0*%
%ADD58RoundRect,0.150000X-0.587500X-0.150000X0.587500X-0.150000X0.587500X0.150000X-0.587500X0.150000X0*%
%ADD59RoundRect,0.150000X-0.825000X-0.150000X0.825000X-0.150000X0.825000X0.150000X-0.825000X0.150000X0*%
%ADD60RoundRect,0.250000X-0.587500X-1.625000X0.587500X-1.625000X0.587500X1.625000X-0.587500X1.625000X0*%
%ADD61RoundRect,0.125000X-0.250000X-0.125000X0.250000X-0.125000X0.250000X0.125000X-0.250000X0.125000X0*%
%ADD62R,3.400000X4.300000*%
G04 APERTURE END LIST*
D10*
%TO.C,J4*%
X136913100Y-108370000D02*
G75*
G02*
X135686900Y-108370000I-613100J0D01*
G01*
X135686900Y-108370000D02*
G75*
G02*
X136913100Y-108370000I613100J0D01*
G01*
D11*
X137088100Y-121170000D02*
G75*
G02*
X135511900Y-121170000I-788100J0D01*
G01*
X135511900Y-121170000D02*
G75*
G02*
X137088100Y-121170000I788100J0D01*
G01*
D12*
X137526200Y-115096200D02*
X135073800Y-115096200D01*
X135073800Y-112643800D01*
X137526200Y-112643800D01*
X137526200Y-115096200D01*
G36*
X137526200Y-115096200D02*
G01*
X135073800Y-115096200D01*
X135073800Y-112643800D01*
X137526200Y-112643800D01*
X137526200Y-115096200D01*
G37*
%TO.C,JP1*%
G36*
X143950000Y-61675000D02*
G01*
X142450000Y-61675000D01*
X142450000Y-64125000D01*
X143950000Y-64125000D01*
X143950000Y-61675000D01*
G37*
D10*
%TO.C,J2*%
X128413100Y-108370000D02*
G75*
G02*
X127186900Y-108370000I-613100J0D01*
G01*
X127186900Y-108370000D02*
G75*
G02*
X128413100Y-108370000I613100J0D01*
G01*
D11*
X128588100Y-121170000D02*
G75*
G02*
X127011900Y-121170000I-788100J0D01*
G01*
X127011900Y-121170000D02*
G75*
G02*
X128588100Y-121170000I788100J0D01*
G01*
D12*
X129026200Y-115096200D02*
X126573800Y-115096200D01*
X126573800Y-112643800D01*
X129026200Y-112643800D01*
X129026200Y-115096200D01*
G36*
X129026200Y-115096200D02*
G01*
X126573800Y-115096200D01*
X126573800Y-112643800D01*
X129026200Y-112643800D01*
X129026200Y-115096200D01*
G37*
D10*
%TO.C,U3*%
X145413100Y-108370000D02*
G75*
G02*
X144186900Y-108370000I-613100J0D01*
G01*
X144186900Y-108370000D02*
G75*
G02*
X145413100Y-108370000I613100J0D01*
G01*
D11*
X145588100Y-121170000D02*
G75*
G02*
X144011900Y-121170000I-788100J0D01*
G01*
X144011900Y-121170000D02*
G75*
G02*
X145588100Y-121170000I788100J0D01*
G01*
D12*
X146026200Y-115096200D02*
X143573800Y-115096200D01*
X143573800Y-112643800D01*
X146026200Y-112643800D01*
X146026200Y-115096200D01*
G36*
X146026200Y-115096200D02*
G01*
X143573800Y-115096200D01*
X143573800Y-112643800D01*
X146026200Y-112643800D01*
X146026200Y-115096200D01*
G37*
D11*
%TO.C,CAN_IN1*%
X138688100Y-54800000D02*
G75*
G02*
X137111900Y-54800000I-788100J0D01*
G01*
X137111900Y-54800000D02*
G75*
G02*
X138688100Y-54800000I788100J0D01*
G01*
D10*
X138513100Y-67600000D02*
G75*
G02*
X137286900Y-67600000I-613100J0D01*
G01*
X137286900Y-67600000D02*
G75*
G02*
X138513100Y-67600000I613100J0D01*
G01*
D12*
X139126200Y-63326200D02*
X136673800Y-63326200D01*
X136673800Y-60873800D01*
X139126200Y-60873800D01*
X139126200Y-63326200D01*
G36*
X139126200Y-63326200D02*
G01*
X136673800Y-63326200D01*
X136673800Y-60873800D01*
X139126200Y-60873800D01*
X139126200Y-63326200D01*
G37*
D11*
%TO.C,CAN_OUT1*%
X130188100Y-54800000D02*
G75*
G02*
X128611900Y-54800000I-788100J0D01*
G01*
X128611900Y-54800000D02*
G75*
G02*
X130188100Y-54800000I788100J0D01*
G01*
D10*
X130013100Y-67600000D02*
G75*
G02*
X128786900Y-67600000I-613100J0D01*
G01*
X128786900Y-67600000D02*
G75*
G02*
X130013100Y-67600000I613100J0D01*
G01*
D12*
X130626200Y-63326200D02*
X128173800Y-63326200D01*
X128173800Y-60873800D01*
X130626200Y-60873800D01*
X130626200Y-63326200D01*
G36*
X130626200Y-63326200D02*
G01*
X128173800Y-63326200D01*
X128173800Y-60873800D01*
X130626200Y-60873800D01*
X130626200Y-63326200D01*
G37*
%TD*%
D13*
%TO.C,U7*%
X140950000Y-73850000D03*
X140950000Y-74350000D03*
X140950000Y-74850000D03*
X140950000Y-75350000D03*
D14*
X141800000Y-75700000D03*
X142300000Y-75700000D03*
X142800000Y-75700000D03*
D13*
X143650000Y-75350000D03*
X143650000Y-74850000D03*
X143650000Y-74350000D03*
X143650000Y-73850000D03*
D14*
X142800000Y-73500000D03*
X142300000Y-73500000D03*
X141800000Y-73500000D03*
%TD*%
D15*
%TO.C,R22*%
X148900000Y-65700000D03*
X148900000Y-67700000D03*
%TD*%
D16*
%TO.C,R21*%
X147000000Y-67700000D03*
X147000000Y-65700000D03*
%TD*%
%TO.C,R12*%
X132000000Y-100250000D03*
X132000000Y-98250000D03*
%TD*%
D17*
%TO.C,R17*%
X159700000Y-62200000D03*
X157700000Y-62200000D03*
%TD*%
D18*
%TO.C,C9*%
X153062500Y-102081250D03*
X155137500Y-102081250D03*
%TD*%
D19*
%TO.C,C15*%
X154513500Y-86386500D03*
X154513500Y-84311500D03*
%TD*%
D20*
%TO.C,REF\u002A\u002A*%
X187600000Y-123000000D03*
X188302944Y-121302944D03*
X188302944Y-124697056D03*
X190000000Y-120600000D03*
D21*
X190000000Y-123000000D03*
D20*
X190000000Y-125400000D03*
X191697056Y-121302944D03*
X191697056Y-124697056D03*
X192400000Y-123000000D03*
%TD*%
D22*
%TO.C,SW2*%
X117100000Y-80700000D03*
X123100000Y-80700000D03*
X117100000Y-84400000D03*
X123100000Y-84400000D03*
%TD*%
D23*
%TO.C,C20*%
X164562500Y-76825000D03*
X162487500Y-76825000D03*
%TD*%
D24*
%TO.C,Q1*%
X125950000Y-103700000D03*
X124050000Y-103700000D03*
X125000000Y-105900000D03*
%TD*%
D18*
%TO.C,C28*%
X150162500Y-78100000D03*
X152237500Y-78100000D03*
%TD*%
D16*
%TO.C,R20*%
X174500000Y-123800000D03*
X174500000Y-121800000D03*
%TD*%
%TO.C,FB1*%
X155100000Y-100081250D03*
X155100000Y-98081250D03*
%TD*%
D20*
%TO.C,REF\u002A\u002A*%
X117600000Y-53000000D03*
X118302944Y-51302944D03*
X118302944Y-54697056D03*
X120000000Y-50600000D03*
D21*
X120000000Y-53000000D03*
D20*
X120000000Y-55400000D03*
X121697056Y-51302944D03*
X121697056Y-54697056D03*
X122400000Y-53000000D03*
%TD*%
D25*
%TO.C,R19*%
X170700000Y-121900000D03*
X172700000Y-121900000D03*
%TD*%
D26*
%TO.C,J4*%
X136300000Y-121170000D03*
%TD*%
D27*
%TO.C,Y1*%
X149963500Y-85349000D03*
X149963500Y-88249000D03*
X152263500Y-88249000D03*
X152263500Y-85349000D03*
%TD*%
D15*
%TO.C,R7*%
X121400000Y-98875000D03*
X121400000Y-100875000D03*
%TD*%
D18*
%TO.C,C12*%
X159862500Y-80600000D03*
X161937500Y-80600000D03*
%TD*%
D28*
%TO.C,U1*%
X157925000Y-84750000D03*
X157925000Y-85250000D03*
X157925000Y-85750000D03*
X157925000Y-86250000D03*
X157925000Y-86750000D03*
X157925000Y-87250000D03*
X157925000Y-87750000D03*
X157925000Y-88250000D03*
X157925000Y-88750000D03*
X157925000Y-89250000D03*
X157925000Y-89750000D03*
X157925000Y-90250000D03*
X157925000Y-90750000D03*
X157925000Y-91250000D03*
X157925000Y-91750000D03*
X157925000Y-92250000D03*
D29*
X159850000Y-94175000D03*
X160350000Y-94175000D03*
X160850000Y-94175000D03*
X161350000Y-94175000D03*
X161850000Y-94175000D03*
X162350000Y-94175000D03*
X162850000Y-94175000D03*
X163350000Y-94175000D03*
X163850000Y-94175000D03*
X164350000Y-94175000D03*
X164850000Y-94175000D03*
X165350000Y-94175000D03*
X165850000Y-94175000D03*
X166350000Y-94175000D03*
X166850000Y-94175000D03*
X167350000Y-94175000D03*
D28*
X169275000Y-92250000D03*
X169275000Y-91750000D03*
X169275000Y-91250000D03*
X169275000Y-90750000D03*
X169275000Y-90250000D03*
X169275000Y-89750000D03*
X169275000Y-89250000D03*
X169275000Y-88750000D03*
X169275000Y-88250000D03*
X169275000Y-87750000D03*
X169275000Y-87250000D03*
X169275000Y-86750000D03*
X169275000Y-86250000D03*
X169275000Y-85750000D03*
X169275000Y-85250000D03*
X169275000Y-84750000D03*
D29*
X167350000Y-82825000D03*
X166850000Y-82825000D03*
X166350000Y-82825000D03*
X165850000Y-82825000D03*
X165350000Y-82825000D03*
X164850000Y-82825000D03*
X164350000Y-82825000D03*
X163850000Y-82825000D03*
X163350000Y-82825000D03*
X162850000Y-82825000D03*
X162350000Y-82825000D03*
X161850000Y-82825000D03*
X161350000Y-82825000D03*
X160850000Y-82825000D03*
X160350000Y-82825000D03*
X159850000Y-82825000D03*
%TD*%
D15*
%TO.C,R10*%
X138000000Y-103300000D03*
X138000000Y-105300000D03*
%TD*%
D16*
%TO.C,R13*%
X184350000Y-96500000D03*
X184350000Y-94500000D03*
%TD*%
%TO.C,R1*%
X127500000Y-93875000D03*
X127500000Y-91875000D03*
%TD*%
%TO.C,R4*%
X124900000Y-99450000D03*
X124900000Y-97450000D03*
%TD*%
D30*
%TO.C,U9*%
X150380000Y-71400000D03*
X150380000Y-71900000D03*
X150380000Y-72400000D03*
X150380000Y-72900000D03*
X150380000Y-73400000D03*
D31*
X151100000Y-73620000D03*
X151600000Y-73620000D03*
X152100000Y-73620000D03*
D30*
X152820000Y-73400000D03*
X152820000Y-72900000D03*
X152820000Y-72400000D03*
X152820000Y-71900000D03*
X152820000Y-71400000D03*
D31*
X152100000Y-71180000D03*
X151600000Y-71180000D03*
X151100000Y-71180000D03*
%TD*%
D32*
%TO.C,JP1*%
X143200000Y-62175000D03*
D33*
X143200000Y-63625000D03*
%TD*%
D34*
%TO.C,U6*%
X159350000Y-72900000D03*
X160600000Y-72900000D03*
X161850000Y-72900000D03*
X163100000Y-72900000D03*
X163100000Y-70750000D03*
X161850000Y-70750000D03*
X160600000Y-70750000D03*
X159350000Y-70750000D03*
%TD*%
D23*
%TO.C,C14*%
X155237500Y-91981250D03*
X153162500Y-91981250D03*
%TD*%
D35*
%TO.C,U4*%
X158665000Y-115200000D03*
X158665000Y-112900000D03*
X158665000Y-110600000D03*
D36*
X152635000Y-112900000D03*
%TD*%
D20*
%TO.C,REF\u002A\u002A*%
X187600000Y-53000000D03*
X188302944Y-51302944D03*
X188302944Y-54697056D03*
X190000000Y-50600000D03*
D21*
X190000000Y-53000000D03*
D20*
X190000000Y-55400000D03*
X191697056Y-51302944D03*
X191697056Y-54697056D03*
X192400000Y-53000000D03*
%TD*%
D19*
%TO.C,C26*%
X168400000Y-59737500D03*
X168400000Y-57662500D03*
%TD*%
D25*
%TO.C,R18*%
X168600000Y-61700000D03*
X170600000Y-61700000D03*
%TD*%
D26*
%TO.C,J2*%
X127800000Y-121170000D03*
%TD*%
D37*
%TO.C,U5*%
X192675000Y-76025000D03*
X192675000Y-74025000D03*
X192675000Y-72025000D03*
X192675000Y-70025000D03*
X192675000Y-68025000D03*
X192675000Y-66025000D03*
X192675000Y-64025000D03*
X192675000Y-62025000D03*
X177275000Y-62025000D03*
X177275000Y-64025000D03*
X177275000Y-66025000D03*
X177275000Y-68025000D03*
X177275000Y-70025000D03*
X177275000Y-72025000D03*
X177275000Y-74025000D03*
X177275000Y-76025000D03*
%TD*%
D18*
%TO.C,C11*%
X169862500Y-82300000D03*
X171937500Y-82300000D03*
%TD*%
D19*
%TO.C,C17*%
X144900000Y-60137500D03*
X144900000Y-58062500D03*
%TD*%
D38*
%TO.C,PowerLED1*%
X192775000Y-114600000D03*
X191025000Y-114600000D03*
%TD*%
D39*
%TO.C,D1*%
X192900000Y-110325000D03*
X190100000Y-110325000D03*
X190100000Y-108875000D03*
X192900000Y-108875000D03*
%TD*%
D17*
%TO.C,R2*%
X125000000Y-86300000D03*
X123000000Y-86300000D03*
%TD*%
D15*
%TO.C,R11*%
X131900000Y-103700000D03*
X131900000Y-105700000D03*
%TD*%
D40*
%TO.C,J6*%
X172300000Y-51625000D03*
D41*
X169800000Y-51625000D03*
X167300000Y-51625000D03*
X164800000Y-51625000D03*
X162300000Y-51625000D03*
%TD*%
D15*
%TO.C,R6*%
X121400000Y-103875000D03*
X121400000Y-105875000D03*
%TD*%
D24*
%TO.C,Q2*%
X136150000Y-103300000D03*
X134250000Y-103300000D03*
X135200000Y-105500000D03*
%TD*%
D42*
%TO.C,C19*%
X161012500Y-110662500D03*
X161012500Y-112737500D03*
%TD*%
%TO.C,C8*%
X171000000Y-94762500D03*
X171000000Y-96837500D03*
%TD*%
D43*
%TO.C,D2*%
X157600000Y-122725000D03*
X153225000Y-122725000D03*
%TD*%
D44*
%TO.C,J8*%
X185025000Y-88905000D03*
X185025000Y-87805000D03*
X185025000Y-86705000D03*
X185025000Y-85605000D03*
X185025000Y-84505000D03*
X185025000Y-83405000D03*
X185025000Y-82305000D03*
X185025000Y-81205000D03*
D45*
X182425000Y-92575000D03*
X190725000Y-92575000D03*
X182425000Y-78825000D03*
X190725000Y-78825000D03*
%TD*%
D19*
%TO.C,C7*%
X157900000Y-82137500D03*
X157900000Y-80062500D03*
%TD*%
D46*
%TO.C,J7*%
X179400000Y-56300000D03*
D47*
X176860000Y-53760000D03*
X176860000Y-58840000D03*
X181940000Y-53760000D03*
X181940000Y-58840000D03*
%TD*%
D42*
%TO.C,C3*%
X166500000Y-96262500D03*
X166500000Y-98337500D03*
%TD*%
D15*
%TO.C,R14*%
X184250000Y-100300000D03*
X184250000Y-102300000D03*
%TD*%
D18*
%TO.C,C27*%
X150162500Y-76000000D03*
X152237500Y-76000000D03*
%TD*%
D40*
%TO.C,J5*%
X156037500Y-51625000D03*
D41*
X153537500Y-51625000D03*
X151037500Y-51625000D03*
X148537500Y-51625000D03*
X146037500Y-51625000D03*
%TD*%
D16*
%TO.C,R9*%
X137900000Y-101500000D03*
X137900000Y-99500000D03*
%TD*%
D26*
%TO.C,U3*%
X144800000Y-121170000D03*
%TD*%
D18*
%TO.C,C23*%
X143362500Y-71800000D03*
X145437500Y-71800000D03*
%TD*%
D48*
%TO.C,D4*%
X182200000Y-98000000D03*
X181250000Y-98000000D03*
X180300000Y-98000000D03*
X180300000Y-100500000D03*
X181250000Y-100500000D03*
X182200000Y-100500000D03*
%TD*%
D49*
%TO.C,BZ1*%
X178300000Y-110000000D03*
D50*
X178300000Y-117600000D03*
%TD*%
D51*
%TO.C,J9*%
X188200000Y-102290000D03*
X188200000Y-96510000D03*
D52*
X186755000Y-102650000D03*
X186755000Y-101850000D03*
D53*
X186755000Y-100650000D03*
X186755000Y-99650000D03*
X186755000Y-99150000D03*
X186755000Y-98150000D03*
D52*
X186755000Y-96950000D03*
X186755000Y-96150000D03*
X186755000Y-96150000D03*
X186755000Y-96950000D03*
D53*
X186755000Y-97650000D03*
X186755000Y-98650000D03*
X186755000Y-100150000D03*
X186755000Y-101150000D03*
D52*
X186755000Y-101850000D03*
X186755000Y-102650000D03*
D54*
X187670000Y-103720000D03*
D55*
X191850000Y-103720000D03*
D54*
X187670000Y-95080000D03*
D55*
X191850000Y-95080000D03*
%TD*%
D56*
%TO.C,J1*%
X118930000Y-62288400D03*
X118930000Y-64828400D03*
X118930000Y-67368400D03*
X118930000Y-69908400D03*
X118930000Y-72448400D03*
X121470000Y-62288400D03*
X121470000Y-64828400D03*
X121470000Y-67368400D03*
X121470000Y-69908400D03*
X121470000Y-72448400D03*
%TD*%
D23*
%TO.C,C18*%
X158900000Y-119250000D03*
X156825000Y-119250000D03*
%TD*%
D22*
%TO.C,SW1*%
X117100000Y-89650000D03*
X123100000Y-89650000D03*
X117100000Y-93350000D03*
X123100000Y-93350000D03*
%TD*%
D26*
%TO.C,CAN_IN1*%
X137900000Y-54800000D03*
%TD*%
D19*
%TO.C,C2*%
X125200000Y-91812500D03*
X125200000Y-89737500D03*
%TD*%
%TO.C,C1*%
X187855000Y-110412500D03*
X187855000Y-108337500D03*
%TD*%
D15*
%TO.C,R3*%
X188500000Y-114800000D03*
X188500000Y-116800000D03*
%TD*%
D17*
%TO.C,R8*%
X145000000Y-56000000D03*
X143000000Y-56000000D03*
%TD*%
D23*
%TO.C,C13*%
X155237500Y-94081250D03*
X153162500Y-94081250D03*
%TD*%
D20*
%TO.C,REF\u002A\u002A*%
X117600000Y-123000000D03*
X118302944Y-121302944D03*
X118302944Y-124697056D03*
X120000000Y-120600000D03*
D21*
X120000000Y-123000000D03*
D20*
X120000000Y-125400000D03*
X121697056Y-121302944D03*
X121697056Y-124697056D03*
X122400000Y-123000000D03*
%TD*%
D57*
%TO.C,D6*%
X170500000Y-113150000D03*
X170500000Y-115250000D03*
%TD*%
D42*
%TO.C,C22*%
X160525000Y-74587500D03*
X160525000Y-76662500D03*
%TD*%
D18*
%TO.C,C10*%
X153162500Y-96181250D03*
X155237500Y-96181250D03*
%TD*%
D23*
%TO.C,C24*%
X141437500Y-77400000D03*
X139362500Y-77400000D03*
%TD*%
D42*
%TO.C,C16*%
X147682250Y-86762500D03*
X147682250Y-88837500D03*
%TD*%
%TO.C,C25*%
X145600000Y-75962500D03*
X145600000Y-78037500D03*
%TD*%
D23*
%TO.C,C21*%
X164562500Y-74725000D03*
X162487500Y-74725000D03*
%TD*%
D25*
%TO.C,R16*%
X176700000Y-84500000D03*
X178700000Y-84500000D03*
%TD*%
D18*
%TO.C,C4*%
X171312500Y-84500000D03*
X173387500Y-84500000D03*
%TD*%
D42*
%TO.C,C5*%
X168900000Y-94762500D03*
X168900000Y-96837500D03*
%TD*%
D25*
%TO.C,R15*%
X176700000Y-87800000D03*
X178700000Y-87800000D03*
%TD*%
D58*
%TO.C,Q3*%
X177362500Y-121650000D03*
X177362500Y-123550000D03*
X179237500Y-122600000D03*
%TD*%
D23*
%TO.C,C6*%
X160737500Y-96300000D03*
X158662500Y-96300000D03*
%TD*%
D59*
%TO.C,U2*%
X147125000Y-57295000D03*
X147125000Y-58565000D03*
X147125000Y-59835000D03*
X147125000Y-61105000D03*
X152075000Y-61105000D03*
X152075000Y-59835000D03*
X152075000Y-58565000D03*
X152075000Y-57295000D03*
%TD*%
D26*
%TO.C,CAN_OUT1*%
X129400000Y-54800000D03*
%TD*%
D60*
%TO.C,D3*%
X160512500Y-122700000D03*
X164887500Y-122700000D03*
%TD*%
D25*
%TO.C,R5*%
X125950000Y-101950000D03*
X127950000Y-101950000D03*
%TD*%
D61*
%TO.C,U8*%
X161287500Y-59795000D03*
X161287500Y-61065000D03*
X161287500Y-62335000D03*
X161287500Y-63605000D03*
X166687500Y-63605000D03*
X166687500Y-62335000D03*
X166687500Y-61065000D03*
X166687500Y-59795000D03*
D62*
X163987500Y-61700000D03*
%TD*%
M02*
