%TF.GenerationSoftware,KiCad,Pcbnew,9.0.6*%
%TF.CreationDate,2026-03-04T12:45:32+11:00*%
%TF.ProjectId,flightcomputer2,666c6967-6874-4636-9f6d-707574657232,rev?*%
%TF.SameCoordinates,Original*%
%TF.FileFunction,Copper,L1,Top*%
%TF.FilePolarity,Positive*%
%FSLAX46Y46*%
G04 Gerber Fmt 4.6, Leading zero omitted, Abs format (unit mm)*
G04 Created by KiCad (PCBNEW 9.0.6) date 2026-03-04 12:45:32*
%MOMM*%
%LPD*%
G01*
G04 APERTURE LIST*
G04 Aperture macros list*
%AMRoundRect*
0 Rectangle with rounded corners*
0 $1 Rounding radius*
0 $2 $3 $4 $5 $6 $7 $8 $9 X,Y pos of 4 corners*
0 Add a 4 corners polygon primitive as box body*
4,1,4,$2,$3,$4,$5,$6,$7,$8,$9,$2,$3,0*
0 Add four circle primitives for the rounded corners*
1,1,$1+$1,$2,$3*
1,1,$1+$1,$4,$5*
1,1,$1+$1,$6,$7*
1,1,$1+$1,$8,$9*
0 Add four rect primitives between the rounded corners*
20,1,$1+$1,$2,$3,$4,$5,0*
20,1,$1+$1,$4,$5,$6,$7,0*
20,1,$1+$1,$6,$7,$8,$9,0*
20,1,$1+$1,$8,$9,$2,$3,0*%
%AMFreePoly0*
4,1,6,1.000000,0.000000,0.500000,-0.750000,-0.500000,-0.750000,-0.500000,0.750000,0.500000,0.750000,1.000000,0.000000,1.000000,0.000000,$1*%
%AMFreePoly1*
4,1,6,0.500000,-0.750000,-0.650000,-0.750000,-0.150000,0.000000,-0.650000,0.750000,0.500000,0.750000,0.500000,-0.750000,0.500000,-0.750000,$1*%
G04 Aperture macros list end*
%TA.AperFunction,SMDPad,CuDef*%
%ADD10R,0.900000X0.250000*%
%TD*%
%TA.AperFunction,SMDPad,CuDef*%
%ADD11R,0.250000X0.900000*%
%TD*%
%TA.AperFunction,SMDPad,CuDef*%
%ADD12RoundRect,0.250000X-0.450000X0.350000X-0.450000X-0.350000X0.450000X-0.350000X0.450000X0.350000X0*%
%TD*%
%TA.AperFunction,SMDPad,CuDef*%
%ADD13RoundRect,0.250000X0.450000X-0.350000X0.450000X0.350000X-0.450000X0.350000X-0.450000X-0.350000X0*%
%TD*%
%TA.AperFunction,SMDPad,CuDef*%
%ADD14RoundRect,0.250000X0.350000X0.450000X-0.350000X0.450000X-0.350000X-0.450000X0.350000X-0.450000X0*%
%TD*%
%TA.AperFunction,SMDPad,CuDef*%
%ADD15RoundRect,0.250000X-0.337500X-0.475000X0.337500X-0.475000X0.337500X0.475000X-0.337500X0.475000X0*%
%TD*%
%TA.AperFunction,SMDPad,CuDef*%
%ADD16RoundRect,0.250000X0.475000X-0.337500X0.475000X0.337500X-0.475000X0.337500X-0.475000X-0.337500X0*%
%TD*%
%TA.AperFunction,ComponentPad*%
%ADD17C,0.800000*%
%TD*%
%TA.AperFunction,ComponentPad*%
%ADD18C,6.400000*%
%TD*%
%TA.AperFunction,SMDPad,CuDef*%
%ADD19RoundRect,0.150000X-0.850000X-0.350000X0.850000X-0.350000X0.850000X0.350000X-0.850000X0.350000X0*%
%TD*%
%TA.AperFunction,SMDPad,CuDef*%
%ADD20RoundRect,0.250000X0.337500X0.475000X-0.337500X0.475000X-0.337500X-0.475000X0.337500X-0.475000X0*%
%TD*%
%TA.AperFunction,SMDPad,CuDef*%
%ADD21R,1.000000X1.400000*%
%TD*%
%TA.AperFunction,SMDPad,CuDef*%
%ADD22RoundRect,0.250000X-0.350000X-0.450000X0.350000X-0.450000X0.350000X0.450000X-0.350000X0.450000X0*%
%TD*%
%TA.AperFunction,ComponentPad*%
%ADD23R,2.300000X2.300000*%
%TD*%
%TA.AperFunction,ComponentPad*%
%ADD24C,2.300000*%
%TD*%
%TA.AperFunction,SMDPad,CuDef*%
%ADD25RoundRect,0.250000X-0.650000X0.800000X-0.650000X-0.800000X0.650000X-0.800000X0.650000X0.800000X0*%
%TD*%
%TA.AperFunction,SMDPad,CuDef*%
%ADD26RoundRect,0.075000X-0.700000X-0.075000X0.700000X-0.075000X0.700000X0.075000X-0.700000X0.075000X0*%
%TD*%
%TA.AperFunction,SMDPad,CuDef*%
%ADD27RoundRect,0.075000X-0.075000X-0.700000X0.075000X-0.700000X0.075000X0.700000X-0.075000X0.700000X0*%
%TD*%
%TA.AperFunction,SMDPad,CuDef*%
%ADD28RoundRect,0.043750X-0.221250X-0.131250X0.221250X-0.131250X0.221250X0.131250X-0.221250X0.131250X0*%
%TD*%
%TA.AperFunction,SMDPad,CuDef*%
%ADD29RoundRect,0.043750X-0.131250X-0.221250X0.131250X-0.221250X0.131250X0.221250X-0.131250X0.221250X0*%
%TD*%
%TA.AperFunction,SMDPad,CuDef*%
%ADD30FreePoly0,270.000000*%
%TD*%
%TA.AperFunction,SMDPad,CuDef*%
%ADD31FreePoly1,270.000000*%
%TD*%
%TA.AperFunction,SMDPad,CuDef*%
%ADD32R,0.550000X0.950000*%
%TD*%
%TA.AperFunction,SMDPad,CuDef*%
%ADD33RoundRect,0.116250X0.873750X0.348750X-0.873750X0.348750X-0.873750X-0.348750X0.873750X-0.348750X0*%
%TD*%
%TA.AperFunction,SMDPad,CuDef*%
%ADD34RoundRect,0.247500X0.742500X1.367500X-0.742500X1.367500X-0.742500X-1.367500X0.742500X-1.367500X0*%
%TD*%
%TA.AperFunction,SMDPad,CuDef*%
%ADD35R,3.000000X1.400000*%
%TD*%
%TA.AperFunction,SMDPad,CuDef*%
%ADD36RoundRect,0.237500X0.287500X0.237500X-0.287500X0.237500X-0.287500X-0.237500X0.287500X-0.237500X0*%
%TD*%
%TA.AperFunction,SMDPad,CuDef*%
%ADD37R,1.200000X0.900000*%
%TD*%
%TA.AperFunction,ComponentPad*%
%ADD38R,1.508000X1.508000*%
%TD*%
%TA.AperFunction,ComponentPad*%
%ADD39C,1.508000*%
%TD*%
%TA.AperFunction,SMDPad,CuDef*%
%ADD40RoundRect,0.250000X-0.475000X0.337500X-0.475000X-0.337500X0.475000X-0.337500X0.475000X0.337500X0*%
%TD*%
%TA.AperFunction,SMDPad,CuDef*%
%ADD41RoundRect,0.250000X0.587500X1.625000X-0.587500X1.625000X-0.587500X-1.625000X0.587500X-1.625000X0*%
%TD*%
%TA.AperFunction,SMDPad,CuDef*%
%ADD42R,1.500000X0.800000*%
%TD*%
%TA.AperFunction,SMDPad,CuDef*%
%ADD43RoundRect,0.362500X0.637500X-0.362500X0.637500X0.362500X-0.637500X0.362500X-0.637500X-0.362500X0*%
%TD*%
%TA.AperFunction,ComponentPad*%
%ADD44C,2.050000*%
%TD*%
%TA.AperFunction,ComponentPad*%
%ADD45C,2.250000*%
%TD*%
%TA.AperFunction,SMDPad,CuDef*%
%ADD46R,0.600000X1.150000*%
%TD*%
%TA.AperFunction,ComponentPad*%
%ADD47R,2.000000X2.000000*%
%TD*%
%TA.AperFunction,ComponentPad*%
%ADD48C,2.000000*%
%TD*%
%TA.AperFunction,SMDPad,CuDef*%
%ADD49R,1.450000X0.600000*%
%TD*%
%TA.AperFunction,SMDPad,CuDef*%
%ADD50R,1.450000X0.300000*%
%TD*%
%TA.AperFunction,HeatsinkPad*%
%ADD51O,2.100000X1.000000*%
%TD*%
%TA.AperFunction,HeatsinkPad*%
%ADD52O,1.600000X1.000000*%
%TD*%
%TA.AperFunction,ComponentPad*%
%ADD53C,1.701800*%
%TD*%
%TA.AperFunction,SMDPad,CuDef*%
%ADD54RoundRect,0.112500X-0.112500X0.187500X-0.112500X-0.187500X0.112500X-0.187500X0.112500X0.187500X0*%
%TD*%
%TA.AperFunction,SMDPad,CuDef*%
%ADD55RoundRect,0.150000X-0.587500X-0.150000X0.587500X-0.150000X0.587500X0.150000X-0.587500X0.150000X0*%
%TD*%
%TA.AperFunction,SMDPad,CuDef*%
%ADD56RoundRect,0.150000X-0.825000X-0.150000X0.825000X-0.150000X0.825000X0.150000X-0.825000X0.150000X0*%
%TD*%
%TA.AperFunction,SMDPad,CuDef*%
%ADD57RoundRect,0.250000X-0.587500X-1.625000X0.587500X-1.625000X0.587500X1.625000X-0.587500X1.625000X0*%
%TD*%
%TA.AperFunction,SMDPad,CuDef*%
%ADD58RoundRect,0.125000X-0.250000X-0.125000X0.250000X-0.125000X0.250000X0.125000X-0.250000X0.125000X0*%
%TD*%
%TA.AperFunction,HeatsinkPad*%
%ADD59R,3.400000X4.300000*%
%TD*%
%TA.AperFunction,ViaPad*%
%ADD60C,0.600000*%
%TD*%
%TA.AperFunction,Conductor*%
%ADD61C,0.200000*%
%TD*%
%TA.AperFunction,Conductor*%
%ADD62C,0.500000*%
%TD*%
%TA.AperFunction,Conductor*%
%ADD63C,2.000000*%
%TD*%
%TA.AperFunction,Conductor*%
%ADD64C,1.000000*%
%TD*%
%TA.AperFunction,Conductor*%
%ADD65C,0.350000*%
%TD*%
G04 APERTURE END LIST*
D10*
%TO.P,U7,1,SDO/SA0*%
%TO.N,GND*%
X140950000Y-73850000D03*
%TO.P,U7,2,SDx*%
X140950000Y-74350000D03*
%TO.P,U7,3,SCx*%
X140950000Y-74850000D03*
%TO.P,U7,4,INT1*%
%TO.N,unconnected-(U7-INT1-Pad4)*%
X140950000Y-75350000D03*
D11*
%TO.P,U7,5,VDDIO*%
%TO.N,+3.3V*%
X141800000Y-75700000D03*
%TO.P,U7,6,GND*%
%TO.N,GND*%
X142300000Y-75700000D03*
%TO.P,U7,7,GND*%
X142800000Y-75700000D03*
D10*
%TO.P,U7,8,VDD*%
%TO.N,+3.3V*%
X143650000Y-75350000D03*
%TO.P,U7,9,INT2*%
%TO.N,unconnected-(U7-INT2-Pad9)*%
X143650000Y-74850000D03*
%TO.P,U7,10,NC*%
%TO.N,unconnected-(U7-NC-Pad10)*%
X143650000Y-74350000D03*
%TO.P,U7,11,NC*%
%TO.N,unconnected-(U7-NC-Pad11)*%
X143650000Y-73850000D03*
D11*
%TO.P,U7,12,CS*%
%TO.N,+3.3V*%
X142800000Y-73500000D03*
%TO.P,U7,13,SCL*%
%TO.N,/Accelerometer/AccelerometerSCL*%
X142300000Y-73500000D03*
%TO.P,U7,14,SDA*%
%TO.N,/Accelerometer/AccelerometerSDA*%
X141800000Y-73500000D03*
%TD*%
D12*
%TO.P,R22,1*%
%TO.N,+3.3V*%
X148900000Y-65700000D03*
%TO.P,R22,2*%
%TO.N,/Accelerometer/AccelerometerSCL*%
X148900000Y-67700000D03*
%TD*%
D13*
%TO.P,R21,1*%
%TO.N,/Accelerometer/AccelerometerSDA*%
X147000000Y-67700000D03*
%TO.P,R21,2*%
%TO.N,+3.3V*%
X147000000Y-65700000D03*
%TD*%
%TO.P,R12,1*%
%TO.N,/Drogue/DrougeADC*%
X132000000Y-100250000D03*
%TO.P,R12,2*%
%TO.N,GND*%
X132000000Y-98250000D03*
%TD*%
D14*
%TO.P,R17,1*%
%TO.N,Net-(U8-~{WP}{slash}IO_{2})*%
X159700000Y-62200000D03*
%TO.P,R17,2*%
%TO.N,+3.3V*%
X157700000Y-62200000D03*
%TD*%
D15*
%TO.P,C9,1*%
%TO.N,GND*%
X153062500Y-102081250D03*
%TO.P,C9,2*%
%TO.N,+3.3V*%
X155137500Y-102081250D03*
%TD*%
D16*
%TO.P,C15,1*%
%TO.N,/MCU/OSC IN*%
X154513500Y-86386500D03*
%TO.P,C15,2*%
%TO.N,GND*%
X154513500Y-84311500D03*
%TD*%
D17*
%TO.P,REF\u002A\u002A,1*%
%TO.N,N/C*%
X187600000Y-123000000D03*
X188302944Y-121302944D03*
X188302944Y-124697056D03*
X190000000Y-120600000D03*
D18*
X190000000Y-123000000D03*
D17*
X190000000Y-125400000D03*
X191697056Y-121302944D03*
X191697056Y-124697056D03*
X192400000Y-123000000D03*
%TD*%
D19*
%TO.P,SW2,1,1*%
%TO.N,+3.3V*%
X117100000Y-80700000D03*
%TO.P,SW2,2,2*%
%TO.N,unconnected-(SW2-Pad2)*%
X123100000Y-80700000D03*
%TO.P,SW2,3,3*%
%TO.N,unconnected-(SW2-Pad3)*%
X117100000Y-84400000D03*
%TO.P,SW2,4,4*%
%TO.N,/MCU/BOOT0*%
X123100000Y-84400000D03*
%TD*%
D20*
%TO.P,C20,1*%
%TO.N,+3.3V*%
X164562500Y-76825000D03*
%TO.P,C20,2*%
%TO.N,GND*%
X162487500Y-76825000D03*
%TD*%
D21*
%TO.P,Q1,1,D*%
%TO.N,Net-(Q1-D)*%
X125950000Y-103700000D03*
%TO.P,Q1,2,G*%
%TO.N,GND*%
X124050000Y-103700000D03*
%TO.P,Q1,3,S*%
%TO.N,Net-(J2-Pin_2)*%
X125000000Y-105900000D03*
%TD*%
D15*
%TO.P,C28,1*%
%TO.N,GND*%
X150162500Y-78100000D03*
%TO.P,C28,2*%
%TO.N,+3.3V*%
X152237500Y-78100000D03*
%TD*%
D13*
%TO.P,R20,1*%
%TO.N,GND*%
X174500000Y-123800000D03*
%TO.P,R20,2*%
%TO.N,Net-(Q3-B)*%
X174500000Y-121800000D03*
%TD*%
%TO.P,FB1,1*%
%TO.N,+3.3V*%
X155100000Y-100081250D03*
%TO.P,FB1,2*%
%TO.N,+3.3VA*%
X155100000Y-98081250D03*
%TD*%
D17*
%TO.P,REF\u002A\u002A,1*%
%TO.N,N/C*%
X117600000Y-53000000D03*
X118302944Y-51302944D03*
X118302944Y-54697056D03*
X120000000Y-50600000D03*
D18*
X120000000Y-53000000D03*
D17*
X120000000Y-55400000D03*
X121697056Y-51302944D03*
X121697056Y-54697056D03*
X122400000Y-53000000D03*
%TD*%
D22*
%TO.P,R19,1*%
%TO.N,/MCU/BuzzerControl*%
X170700000Y-121900000D03*
%TO.P,R19,2*%
%TO.N,Net-(Q3-B)*%
X172700000Y-121900000D03*
%TD*%
D23*
%TO.P,J4,1,Pin_1*%
%TO.N,+BATT*%
X136300000Y-113870000D03*
D24*
%TO.P,J4,2,Pin_2*%
%TO.N,Net-(J4-Pin_2)*%
X136300000Y-108370000D03*
%TD*%
D25*
%TO.P,Y1,1,1*%
%TO.N,/MCU/OSC IN*%
X149963500Y-85349000D03*
%TO.P,Y1,2,2*%
%TO.N,GND*%
X149963500Y-88249000D03*
%TO.P,Y1,3,3*%
%TO.N,/MCU/OSC OUT*%
X152263500Y-88249000D03*
%TO.P,Y1,4,4*%
%TO.N,GND*%
X152263500Y-85349000D03*
%TD*%
D12*
%TO.P,R7,1*%
%TO.N,GND*%
X121400000Y-98875000D03*
%TO.P,R7,2*%
%TO.N,/MCU/PyroADC*%
X121400000Y-100875000D03*
%TD*%
D15*
%TO.P,C12,1*%
%TO.N,+3.3V*%
X159862500Y-80600000D03*
%TO.P,C12,2*%
%TO.N,GND*%
X161937500Y-80600000D03*
%TD*%
D26*
%TO.P,U1,1,VBAT*%
%TO.N,+3.3V*%
X157925000Y-84750000D03*
%TO.P,U1,2,PC13*%
%TO.N,unconnected-(U1-PC13-Pad2)*%
X157925000Y-85250000D03*
%TO.P,U1,3,PC14*%
%TO.N,unconnected-(U1-PC14-Pad3)*%
X157925000Y-85750000D03*
%TO.P,U1,4,PC15*%
%TO.N,unconnected-(U1-PC15-Pad4)*%
X157925000Y-86250000D03*
%TO.P,U1,5,PH0*%
%TO.N,/MCU/OSC IN*%
X157925000Y-86750000D03*
%TO.P,U1,6,PH1*%
%TO.N,/MCU/OSC OUT*%
X157925000Y-87250000D03*
%TO.P,U1,7,NRST*%
%TO.N,/MCU/NRST*%
X157925000Y-87750000D03*
%TO.P,U1,8,PC0*%
%TO.N,/FlashMemory/ChipSelectFLash*%
X157925000Y-88250000D03*
%TO.P,U1,9,PC1*%
%TO.N,unconnected-(U1-PC1-Pad9)*%
X157925000Y-88750000D03*
%TO.P,U1,10,PC2*%
%TO.N,/LoRa/sxMIS0*%
X157925000Y-89250000D03*
%TO.P,U1,11,PC3*%
%TO.N,/LoRa/sxMOSI*%
X157925000Y-89750000D03*
%TO.P,U1,12,VSSA*%
%TO.N,GND*%
X157925000Y-90250000D03*
%TO.P,U1,13,VDDA*%
%TO.N,+3.3VA*%
X157925000Y-90750000D03*
%TO.P,U1,14,PA0*%
%TO.N,/GPS/GPS1_RX*%
X157925000Y-91250000D03*
%TO.P,U1,15,PA1*%
%TO.N,/MCU/PyroADC*%
X157925000Y-91750000D03*
%TO.P,U1,16,PA2*%
%TO.N,/MCU/BuzzerControl*%
X157925000Y-92250000D03*
D27*
%TO.P,U1,17,PA3*%
%TO.N,unconnected-(U1-PA3-Pad17)*%
X159850000Y-94175000D03*
%TO.P,U1,18,VSS*%
%TO.N,GND*%
X160350000Y-94175000D03*
%TO.P,U1,19,VDD*%
%TO.N,+3.3V*%
X160850000Y-94175000D03*
%TO.P,U1,20,PA4*%
%TO.N,unconnected-(U1-PA4-Pad20)*%
X161350000Y-94175000D03*
%TO.P,U1,21,PA5*%
%TO.N,/FlashSd/SDMOSI*%
X161850000Y-94175000D03*
%TO.P,U1,22,PA6*%
%TO.N,/FlashSd/SDCLK*%
X162350000Y-94175000D03*
%TO.P,U1,23,PA7*%
%TO.N,/FlashSd/SDMISO*%
X162850000Y-94175000D03*
%TO.P,U1,24,PC4*%
%TO.N,/MCU/RGB_DATA*%
X163350000Y-94175000D03*
%TO.P,U1,25,PC5*%
%TO.N,/Drogue/DrougeADC*%
X163850000Y-94175000D03*
%TO.P,U1,26,PB0*%
%TO.N,/LoRa/sxNSS*%
X164350000Y-94175000D03*
%TO.P,U1,27,PB1*%
%TO.N,/LoRa/sxDIO1*%
X164850000Y-94175000D03*
%TO.P,U1,28,PB2*%
%TO.N,/LoRa/sxReset*%
X165350000Y-94175000D03*
%TO.P,U1,29,PB10*%
%TO.N,/LoRa/sxSCK*%
X165850000Y-94175000D03*
%TO.P,U1,30,PB11*%
%TO.N,unconnected-(U1-PB11-Pad30)*%
X166350000Y-94175000D03*
%TO.P,U1,31,VCAP_1*%
%TO.N,Net-(U1-VCAP_1)*%
X166850000Y-94175000D03*
%TO.P,U1,32,VDD*%
%TO.N,+3.3V*%
X167350000Y-94175000D03*
D26*
%TO.P,U1,33,PB12*%
%TO.N,/Can_transceiver/CAN_TX_2*%
X169275000Y-92250000D03*
%TO.P,U1,34,PB13*%
%TO.N,/Can_transceiver/CAN_RX_2*%
X169275000Y-91750000D03*
%TO.P,U1,35,PB14*%
%TO.N,unconnected-(U1-PB14-Pad35)*%
X169275000Y-91250000D03*
%TO.P,U1,36,PB15*%
%TO.N,/MCU/PyroIgnite*%
X169275000Y-90750000D03*
%TO.P,U1,37,PC6*%
%TO.N,/Drogue/DrougeIgnite*%
X169275000Y-90250000D03*
%TO.P,U1,38,PC7*%
%TO.N,unconnected-(U1-PC7-Pad38)*%
X169275000Y-89750000D03*
%TO.P,U1,39,PC8*%
%TO.N,unconnected-(U1-PC8-Pad39)*%
X169275000Y-89250000D03*
%TO.P,U1,40,PC9*%
%TO.N,/GPS/RESET2*%
X169275000Y-88750000D03*
%TO.P,U1,41,PA8*%
%TO.N,/GPS/RESET1*%
X169275000Y-88250000D03*
%TO.P,U1,42,PA9*%
%TO.N,+5V*%
X169275000Y-87750000D03*
%TO.P,U1,43,PA10*%
%TO.N,unconnected-(U1-PA10-Pad43)*%
X169275000Y-87250000D03*
%TO.P,U1,44,PA11*%
%TO.N,/MCU/D-*%
X169275000Y-86750000D03*
%TO.P,U1,45,PA12*%
%TO.N,/MCU/D+*%
X169275000Y-86250000D03*
%TO.P,U1,46,PA13*%
%TO.N,/MCU/SWDIO*%
X169275000Y-85750000D03*
%TO.P,U1,47,VCAP_2*%
%TO.N,Net-(U1-VCAP_2)*%
X169275000Y-85250000D03*
%TO.P,U1,48,VDD*%
%TO.N,+3.3V*%
X169275000Y-84750000D03*
D27*
%TO.P,U1,49,PA14*%
%TO.N,/MCU/SWCLK*%
X167350000Y-82825000D03*
%TO.P,U1,50,PA15*%
%TO.N,unconnected-(U1-PA15-Pad50)*%
X166850000Y-82825000D03*
%TO.P,U1,51,PC10*%
%TO.N,/FlashMemory/SPICLK*%
X166350000Y-82825000D03*
%TO.P,U1,52,PC11*%
%TO.N,/GPS/GPS1_TX*%
X165850000Y-82825000D03*
%TO.P,U1,53,PC12*%
%TO.N,/GPS/GPS2_RX*%
X165350000Y-82825000D03*
%TO.P,U1,54,PD2*%
%TO.N,/GPS/GPS2_TX*%
X164850000Y-82825000D03*
%TO.P,U1,55,PB3*%
%TO.N,unconnected-(U1-PB3-Pad55)*%
X164350000Y-82825000D03*
%TO.P,U1,56,PB4*%
%TO.N,/FlashMemory/SPI_MOSI*%
X163850000Y-82825000D03*
%TO.P,U1,57,PB5*%
%TO.N,/FlashMemory/SPI_MISO*%
X163350000Y-82825000D03*
%TO.P,U1,58,PB6*%
%TO.N,/Accelerometer/AccelerometerSCL*%
X162850000Y-82825000D03*
%TO.P,U1,59,PB7*%
%TO.N,/Accelerometer/AccelerometerSDA*%
X162350000Y-82825000D03*
%TO.P,U1,60,BOOT0*%
%TO.N,/MCU/BOOT0*%
X161850000Y-82825000D03*
%TO.P,U1,61,PB8*%
%TO.N,unconnected-(U1-PB8-Pad61)*%
X161350000Y-82825000D03*
%TO.P,U1,62,PB9*%
%TO.N,unconnected-(U1-PB9-Pad62)*%
X160850000Y-82825000D03*
%TO.P,U1,63,VSS*%
%TO.N,GND*%
X160350000Y-82825000D03*
%TO.P,U1,64,VDD*%
%TO.N,+3.3V*%
X159850000Y-82825000D03*
%TD*%
D12*
%TO.P,R10,1*%
%TO.N,Net-(Q2-D)*%
X138000000Y-103300000D03*
%TO.P,R10,2*%
%TO.N,GND*%
X138000000Y-105300000D03*
%TD*%
D13*
%TO.P,R13,1*%
%TO.N,Net-(J9-CC2)*%
X184350000Y-96500000D03*
%TO.P,R13,2*%
%TO.N,GND*%
X184350000Y-94500000D03*
%TD*%
%TO.P,R1,1*%
%TO.N,+3.3V*%
X127500000Y-93875000D03*
%TO.P,R1,2*%
%TO.N,/MCU/NRST*%
X127500000Y-91875000D03*
%TD*%
%TO.P,R4,1*%
%TO.N,Net-(Q1-D)*%
X124900000Y-99450000D03*
%TO.P,R4,2*%
%TO.N,/MCU/PyroIgnite*%
X124900000Y-97450000D03*
%TD*%
D28*
%TO.P,U9,1,Vdd_IO*%
%TO.N,+3.3V*%
X150380000Y-71400000D03*
%TO.P,U9,2,NC*%
%TO.N,unconnected-(U9-NC-Pad2)*%
X150380000Y-71900000D03*
%TO.P,U9,3,NC*%
%TO.N,unconnected-(U9-NC-Pad3)*%
X150380000Y-72400000D03*
%TO.P,U9,4,SCL/SPC*%
%TO.N,/Accelerometer/AccelerometerSCL*%
X150380000Y-72900000D03*
%TO.P,U9,5,GND*%
%TO.N,GND*%
X150380000Y-73400000D03*
D29*
%TO.P,U9,6,SDA/SDI/SDO*%
%TO.N,/Accelerometer/AccelerometerSDA*%
X151100000Y-73620000D03*
%TO.P,U9,7,SDO/SA0*%
%TO.N,unconnected-(U9-SDO{slash}SA0-Pad7)*%
X151600000Y-73620000D03*
%TO.P,U9,8,CS*%
%TO.N,+3.3V*%
X152100000Y-73620000D03*
D28*
%TO.P,U9,9,INT2*%
%TO.N,unconnected-(U9-INT2-Pad9)*%
X152820000Y-73400000D03*
%TO.P,U9,10,GND*%
%TO.N,unconnected-(U9-GND-Pad10)*%
X152820000Y-72900000D03*
%TO.P,U9,11,INT1*%
%TO.N,unconnected-(U9-INT1-Pad11)*%
X152820000Y-72400000D03*
%TO.P,U9,12,GND*%
%TO.N,GND*%
X152820000Y-71900000D03*
%TO.P,U9,13*%
%TO.N,N/C*%
X152820000Y-71400000D03*
D29*
%TO.P,U9,14,VDD*%
%TO.N,+3.3V*%
X152100000Y-71180000D03*
%TO.P,U9,15,VDD*%
X151600000Y-71180000D03*
%TO.P,U9,16*%
%TO.N,N/C*%
X151100000Y-71180000D03*
%TD*%
D30*
%TO.P,JP1,1,A*%
%TO.N,Net-(JP1-A)*%
X143200000Y-62175000D03*
D31*
%TO.P,JP1,2,B*%
%TO.N,/Can_transceiver/CANL*%
X143200000Y-63625000D03*
%TD*%
D32*
%TO.P,U6,1,VDD*%
%TO.N,+3.3V*%
X159350000Y-72900000D03*
%TO.P,U6,2,CAP*%
%TO.N,Net-(U6-CAP)*%
X160600000Y-72900000D03*
%TO.P,U6,3,GND*%
%TO.N,GND*%
X161850000Y-72900000D03*
%TO.P,U6,4,VDDIO*%
%TO.N,+3.3V*%
X163100000Y-72900000D03*
%TO.P,U6,5,INT2*%
%TO.N,unconnected-(U6-INT2-Pad5)*%
X163100000Y-70750000D03*
%TO.P,U6,6,INT1*%
%TO.N,unconnected-(U6-INT1-Pad6)*%
X161850000Y-70750000D03*
%TO.P,U6,7,SDL*%
%TO.N,/Accelerometer/AccelerometerSDA*%
X160600000Y-70750000D03*
%TO.P,U6,8,SCL*%
%TO.N,/Accelerometer/AccelerometerSCL*%
X159350000Y-70750000D03*
%TD*%
D20*
%TO.P,C14,1*%
%TO.N,+3.3VA*%
X155237500Y-91981250D03*
%TO.P,C14,2*%
%TO.N,GND*%
X153162500Y-91981250D03*
%TD*%
D33*
%TO.P,U4,1,Vin*%
%TO.N,Net-(D2-K)*%
X158665000Y-115200000D03*
%TO.P,U4,2,GND*%
%TO.N,GND*%
X158665000Y-112900000D03*
%TO.P,U4,3,Vout*%
%TO.N,+3.3V*%
X158665000Y-110600000D03*
D34*
%TO.P,U4,4,Vout*%
X152635000Y-112900000D03*
%TD*%
D17*
%TO.P,REF\u002A\u002A,1*%
%TO.N,N/C*%
X187600000Y-53000000D03*
X188302944Y-51302944D03*
X188302944Y-54697056D03*
X190000000Y-50600000D03*
D18*
X190000000Y-53000000D03*
D17*
X190000000Y-55400000D03*
X191697056Y-51302944D03*
X191697056Y-54697056D03*
X192400000Y-53000000D03*
%TD*%
D16*
%TO.P,C26,1*%
%TO.N,+3.3V*%
X168400000Y-59737500D03*
%TO.P,C26,2*%
%TO.N,GND*%
X168400000Y-57662500D03*
%TD*%
D22*
%TO.P,R18,1*%
%TO.N,Net-(U8-~{HOLD}{slash}~{RESET}{slash}IO_{3})*%
X168600000Y-61700000D03*
%TO.P,R18,2*%
%TO.N,+3.3V*%
X170600000Y-61700000D03*
%TD*%
D23*
%TO.P,J2,1,Pin_1*%
%TO.N,+BATT*%
X127800000Y-113870000D03*
D24*
%TO.P,J2,2,Pin_2*%
%TO.N,Net-(J2-Pin_2)*%
X127800000Y-108370000D03*
%TD*%
D35*
%TO.P,U5,1,GND*%
%TO.N,GND*%
X192675000Y-76025000D03*
%TO.P,U5,2,MISO*%
%TO.N,/LoRa/sxMIS0*%
X192675000Y-74025000D03*
%TO.P,U5,3,MOSI*%
%TO.N,/LoRa/sxMOSI*%
X192675000Y-72025000D03*
%TO.P,U5,4,SCK*%
%TO.N,/LoRa/sxSCK*%
X192675000Y-70025000D03*
%TO.P,U5,5,NSS*%
%TO.N,/LoRa/sxNSS*%
X192675000Y-68025000D03*
%TO.P,U5,6,RESET*%
%TO.N,/LoRa/sxReset*%
X192675000Y-66025000D03*
%TO.P,U5,7,DIO5*%
%TO.N,unconnected-(U5-DIO5-Pad7)*%
X192675000Y-64025000D03*
%TO.P,U5,8,GND*%
%TO.N,GND*%
X192675000Y-62025000D03*
%TO.P,U5,9,ANT*%
%TO.N,Net-(J7-In)*%
X177275000Y-62025000D03*
%TO.P,U5,10,GND*%
%TO.N,GND*%
X177275000Y-64025000D03*
%TO.P,U5,11,DIO3*%
%TO.N,unconnected-(U5-DIO3-Pad11)*%
X177275000Y-66025000D03*
%TO.P,U5,12,DIO4*%
%TO.N,unconnected-(U5-DIO4-Pad12)*%
X177275000Y-68025000D03*
%TO.P,U5,13,3.3V*%
%TO.N,+3.3V*%
X177275000Y-70025000D03*
%TO.P,U5,14,DIO0*%
%TO.N,unconnected-(U5-DIO0-Pad14)*%
X177275000Y-72025000D03*
%TO.P,U5,15,DIO1*%
%TO.N,/LoRa/sxDIO1*%
X177275000Y-74025000D03*
%TO.P,U5,16,DIO2*%
%TO.N,unconnected-(U5-DIO2-Pad16)*%
X177275000Y-76025000D03*
%TD*%
D15*
%TO.P,C11,1*%
%TO.N,+3.3V*%
X169862500Y-82300000D03*
%TO.P,C11,2*%
%TO.N,GND*%
X171937500Y-82300000D03*
%TD*%
D16*
%TO.P,C17,1*%
%TO.N,+3.3V*%
X144900000Y-60137500D03*
%TO.P,C17,2*%
%TO.N,GND*%
X144900000Y-58062500D03*
%TD*%
D36*
%TO.P,PowerLED1,1,K*%
%TO.N,GND*%
X192775000Y-114600000D03*
%TO.P,PowerLED1,2,A*%
%TO.N,Net-(PowerLED1-A)*%
X191025000Y-114600000D03*
%TD*%
D37*
%TO.P,D1,1,DOUT*%
%TO.N,unconnected-(D1-DOUT-Pad1)*%
X192900000Y-110325000D03*
%TO.P,D1,2,GND*%
%TO.N,GND*%
X190100000Y-110325000D03*
%TO.P,D1,3,VDD*%
%TO.N,+3.3V*%
X190100000Y-108875000D03*
%TO.P,D1,4,DIN*%
%TO.N,/MCU/RGB_DATA*%
X192900000Y-108875000D03*
%TD*%
D14*
%TO.P,R2,1*%
%TO.N,GND*%
X125000000Y-86300000D03*
%TO.P,R2,2*%
%TO.N,/MCU/BOOT0*%
X123000000Y-86300000D03*
%TD*%
D12*
%TO.P,R11,1*%
%TO.N,/Drogue/DrougeADC*%
X131900000Y-103700000D03*
%TO.P,R11,2*%
%TO.N,Net-(J4-Pin_2)*%
X131900000Y-105700000D03*
%TD*%
D38*
%TO.P,J6,1,Pin_1*%
%TO.N,+3.3V*%
X172300000Y-51625000D03*
D39*
%TO.P,J6,2,Pin_2*%
%TO.N,GND*%
X169800000Y-51625000D03*
%TO.P,J6,3,Pin_3*%
%TO.N,/GPS/GPS2_TX*%
X167300000Y-51625000D03*
%TO.P,J6,4,Pin_4*%
%TO.N,/GPS/GPS2_RX*%
X164800000Y-51625000D03*
%TO.P,J6,5,Pin_5*%
%TO.N,/GPS/RESET2*%
X162300000Y-51625000D03*
%TD*%
D12*
%TO.P,R6,1*%
%TO.N,/MCU/PyroADC*%
X121400000Y-103875000D03*
%TO.P,R6,2*%
%TO.N,Net-(J2-Pin_2)*%
X121400000Y-105875000D03*
%TD*%
D21*
%TO.P,Q2,1,D*%
%TO.N,Net-(Q2-D)*%
X136150000Y-103300000D03*
%TO.P,Q2,2,G*%
%TO.N,GND*%
X134250000Y-103300000D03*
%TO.P,Q2,3,S*%
%TO.N,Net-(J4-Pin_2)*%
X135200000Y-105500000D03*
%TD*%
D40*
%TO.P,C19,1*%
%TO.N,+3.3V*%
X161012500Y-110662500D03*
%TO.P,C19,2*%
%TO.N,GND*%
X161012500Y-112737500D03*
%TD*%
%TO.P,C8,1*%
%TO.N,+3.3V*%
X171000000Y-94762500D03*
%TO.P,C8,2*%
%TO.N,GND*%
X171000000Y-96837500D03*
%TD*%
D41*
%TO.P,D2,1,K*%
%TO.N,Net-(D2-K)*%
X157600000Y-122725000D03*
%TO.P,D2,2,A*%
%TO.N,+BATT*%
X153225000Y-122725000D03*
%TD*%
D42*
%TO.P,J8,1,DAT2*%
%TO.N,unconnected-(J8-DAT2-Pad1)*%
X185025000Y-88905000D03*
%TO.P,J8,2,DAT3/CD*%
%TO.N,Net-(J8-DAT3{slash}CD)*%
X185025000Y-87805000D03*
%TO.P,J8,3,CMD*%
%TO.N,/FlashSd/SDMISO*%
X185025000Y-86705000D03*
%TO.P,J8,4,VDD*%
%TO.N,+3.3V*%
X185025000Y-85605000D03*
%TO.P,J8,5,CLK*%
%TO.N,Net-(J8-CLK)*%
X185025000Y-84505000D03*
%TO.P,J8,6,VSS*%
%TO.N,GND*%
X185025000Y-83405000D03*
%TO.P,J8,7,DAT0*%
%TO.N,/FlashSd/SDMOSI*%
X185025000Y-82305000D03*
%TO.P,J8,8,DAT1*%
%TO.N,unconnected-(J8-DAT1-Pad8)*%
X185025000Y-81205000D03*
D43*
%TO.P,J8,9,SHIELD*%
%TO.N,GND*%
X182425000Y-92575000D03*
X190725000Y-92575000D03*
X182425000Y-78825000D03*
X190725000Y-78825000D03*
%TD*%
D16*
%TO.P,C7,1*%
%TO.N,+3.3V*%
X157900000Y-82137500D03*
%TO.P,C7,2*%
%TO.N,GND*%
X157900000Y-80062500D03*
%TD*%
D44*
%TO.P,J7,1,In*%
%TO.N,Net-(J7-In)*%
X179400000Y-56300000D03*
D45*
%TO.P,J7,2,Ext*%
%TO.N,GND*%
X176860000Y-53760000D03*
X176860000Y-58840000D03*
X181940000Y-53760000D03*
X181940000Y-58840000D03*
%TD*%
D40*
%TO.P,C3,1*%
%TO.N,Net-(U1-VCAP_1)*%
X166500000Y-96262500D03*
%TO.P,C3,2*%
%TO.N,GND*%
X166500000Y-98337500D03*
%TD*%
D12*
%TO.P,R14,1*%
%TO.N,Net-(J9-CC1)*%
X184250000Y-100300000D03*
%TO.P,R14,2*%
%TO.N,GND*%
X184250000Y-102300000D03*
%TD*%
D15*
%TO.P,C27,1*%
%TO.N,GND*%
X150162500Y-76000000D03*
%TO.P,C27,2*%
%TO.N,+3.3V*%
X152237500Y-76000000D03*
%TD*%
D38*
%TO.P,J5,1,Pin_1*%
%TO.N,+3.3V*%
X156037500Y-51625000D03*
D39*
%TO.P,J5,2,Pin_2*%
%TO.N,GND*%
X153537500Y-51625000D03*
%TO.P,J5,3,Pin_3*%
%TO.N,/GPS/GPS1_TX*%
X151037500Y-51625000D03*
%TO.P,J5,4,Pin_4*%
%TO.N,/GPS/GPS1_RX*%
X148537500Y-51625000D03*
%TO.P,J5,5,Pin_5*%
%TO.N,/GPS/RESET1*%
X146037500Y-51625000D03*
%TD*%
D13*
%TO.P,R9,1*%
%TO.N,Net-(Q2-D)*%
X137900000Y-101500000D03*
%TO.P,R9,2*%
%TO.N,/Drogue/DrougeIgnite*%
X137900000Y-99500000D03*
%TD*%
D23*
%TO.P,U3,1,Pin_1*%
%TO.N,+BATT*%
X144800000Y-113870000D03*
D24*
%TO.P,U3,2,Pin_2*%
%TO.N,GND*%
X144800000Y-108370000D03*
%TD*%
D15*
%TO.P,C23,1*%
%TO.N,+3.3V*%
X143362500Y-71800000D03*
%TO.P,C23,2*%
%TO.N,GND*%
X145437500Y-71800000D03*
%TD*%
D46*
%TO.P,D4,1,1*%
%TO.N,/MCU/D+*%
X182200000Y-98000000D03*
%TO.P,D4,2,2*%
%TO.N,GND*%
X181250000Y-98000000D03*
%TO.P,D4,3,3*%
%TO.N,/MCU/D-*%
X180300000Y-98000000D03*
%TO.P,D4,4,4*%
%TO.N,unconnected-(D4-Pad4)*%
X180300000Y-100500000D03*
%TO.P,D4,5,5*%
%TO.N,+5V*%
X181250000Y-100500000D03*
%TO.P,D4,6,6*%
%TO.N,unconnected-(D4-Pad6)*%
X182200000Y-100500000D03*
%TD*%
D47*
%TO.P,BZ1,1,+*%
%TO.N,+3.3V*%
X178300000Y-110000000D03*
D48*
%TO.P,BZ1,2,-*%
%TO.N,Net-(BZ1--)*%
X178300000Y-117600000D03*
%TD*%
D49*
%TO.P,J9,A1,GND*%
%TO.N,GND*%
X186755000Y-102650000D03*
%TO.P,J9,A4,VBUS*%
%TO.N,+5V*%
X186755000Y-101850000D03*
D50*
%TO.P,J9,A5,CC1*%
%TO.N,Net-(J9-CC1)*%
X186755000Y-100650000D03*
%TO.P,J9,A6,D+*%
%TO.N,/MCU/D+*%
X186755000Y-99650000D03*
%TO.P,J9,A7,D-*%
%TO.N,/MCU/D-*%
X186755000Y-99150000D03*
%TO.P,J9,A8,SBU1*%
%TO.N,unconnected-(J9-SBU1-PadA8)*%
X186755000Y-98150000D03*
D49*
%TO.P,J9,A9,VBUS*%
%TO.N,+5V*%
X186755000Y-96950000D03*
%TO.P,J9,A12,GND*%
%TO.N,GND*%
X186755000Y-96150000D03*
%TO.P,J9,B1,GND*%
X186755000Y-96150000D03*
%TO.P,J9,B4,VBUS*%
%TO.N,+5V*%
X186755000Y-96950000D03*
D50*
%TO.P,J9,B5,CC2*%
%TO.N,Net-(J9-CC2)*%
X186755000Y-97650000D03*
%TO.P,J9,B6,D+*%
%TO.N,/MCU/D+*%
X186755000Y-98650000D03*
%TO.P,J9,B7,D-*%
%TO.N,/MCU/D-*%
X186755000Y-100150000D03*
%TO.P,J9,B8,SBU2*%
%TO.N,unconnected-(J9-SBU2-PadB8)*%
X186755000Y-101150000D03*
D49*
%TO.P,J9,B9,VBUS*%
%TO.N,+5V*%
X186755000Y-101850000D03*
%TO.P,J9,B12,GND*%
%TO.N,GND*%
X186755000Y-102650000D03*
D51*
%TO.P,J9,S1,SHIELD*%
%TO.N,unconnected-(J9-SHIELD-PadS1)_3*%
X187670000Y-103720000D03*
D52*
%TO.N,unconnected-(J9-SHIELD-PadS1)*%
X191850000Y-103720000D03*
D51*
%TO.N,unconnected-(J9-SHIELD-PadS1)_1*%
X187670000Y-95080000D03*
D52*
%TO.N,unconnected-(J9-SHIELD-PadS1)_2*%
X191850000Y-95080000D03*
%TD*%
D53*
%TO.P,J1,1,TCK*%
%TO.N,/MCU/SWCLK*%
X118930000Y-62288400D03*
%TO.P,J1,2,GND*%
%TO.N,GND*%
X118930000Y-64828400D03*
%TO.P,J1,3,TDO*%
%TO.N,unconnected-(J1-TDO-Pad3)*%
X118930000Y-67368400D03*
%TO.P,J1,4,PGM/NC*%
%TO.N,unconnected-(J1-PGM{slash}NC-Pad4)*%
X118930000Y-69908400D03*
%TO.P,J1,5,TMS*%
%TO.N,/MCU/SWDIO*%
X118930000Y-72448400D03*
%TO.P,J1,6,VJTAG*%
%TO.N,+3.3V*%
X121470000Y-62288400D03*
%TO.P,J1,7,VPUMP*%
%TO.N,unconnected-(J1-VPUMP-Pad7)*%
X121470000Y-64828400D03*
%TO.P,J1,8,~{TRST}*%
%TO.N,/MCU/NRST*%
X121470000Y-67368400D03*
%TO.P,J1,9,TDI*%
%TO.N,unconnected-(J1-TDI-Pad9)*%
X121470000Y-69908400D03*
%TO.P,J1,10,GND*%
%TO.N,GND*%
X121470000Y-72448400D03*
%TD*%
D20*
%TO.P,C18,1*%
%TO.N,Net-(D2-K)*%
X158900000Y-119250000D03*
%TO.P,C18,2*%
%TO.N,GND*%
X156825000Y-119250000D03*
%TD*%
D19*
%TO.P,SW1,1,1*%
%TO.N,unconnected-(SW1-Pad1)*%
X117100000Y-89650000D03*
%TO.P,SW1,2,2*%
%TO.N,Net-(C2-Pad2)*%
X123100000Y-89650000D03*
%TO.P,SW1,3,3*%
%TO.N,GND*%
X117100000Y-93350000D03*
%TO.P,SW1,4,4*%
%TO.N,unconnected-(SW1-Pad4)*%
X123100000Y-93350000D03*
%TD*%
D23*
%TO.P,CAN_IN1,1,Pin_1*%
%TO.N,/Can_transceiver/CANH*%
X137900000Y-62100000D03*
D24*
%TO.P,CAN_IN1,2,Pin_2*%
%TO.N,/Can_transceiver/CANL*%
X137900000Y-67600000D03*
%TD*%
D16*
%TO.P,C2,1*%
%TO.N,/MCU/NRST*%
X125200000Y-91812500D03*
%TO.P,C2,2*%
%TO.N,Net-(C2-Pad2)*%
X125200000Y-89737500D03*
%TD*%
%TO.P,C1,1*%
%TO.N,GND*%
X187855000Y-110412500D03*
%TO.P,C1,2*%
%TO.N,+3.3V*%
X187855000Y-108337500D03*
%TD*%
D12*
%TO.P,R3,1*%
%TO.N,Net-(PowerLED1-A)*%
X188500000Y-114800000D03*
%TO.P,R3,2*%
%TO.N,+3.3V*%
X188500000Y-116800000D03*
%TD*%
D14*
%TO.P,R8,1*%
%TO.N,/Can_transceiver/CANH*%
X145000000Y-56000000D03*
%TO.P,R8,2*%
%TO.N,Net-(JP1-A)*%
X143000000Y-56000000D03*
%TD*%
D20*
%TO.P,C13,1*%
%TO.N,+3.3VA*%
X155237500Y-94081250D03*
%TO.P,C13,2*%
%TO.N,GND*%
X153162500Y-94081250D03*
%TD*%
D17*
%TO.P,REF\u002A\u002A,1*%
%TO.N,N/C*%
X117600000Y-123000000D03*
X118302944Y-121302944D03*
X118302944Y-124697056D03*
X120000000Y-120600000D03*
D18*
X120000000Y-123000000D03*
D17*
X120000000Y-125400000D03*
X121697056Y-121302944D03*
X121697056Y-124697056D03*
X122400000Y-123000000D03*
%TD*%
D54*
%TO.P,D6,1,K*%
%TO.N,+3.3V*%
X170500000Y-113150000D03*
%TO.P,D6,2,A*%
%TO.N,Net-(BZ1--)*%
X170500000Y-115250000D03*
%TD*%
D40*
%TO.P,C22,1*%
%TO.N,Net-(U6-CAP)*%
X160525000Y-74587500D03*
%TO.P,C22,2*%
%TO.N,GND*%
X160525000Y-76662500D03*
%TD*%
D15*
%TO.P,C10,1*%
%TO.N,GND*%
X153162500Y-96181250D03*
%TO.P,C10,2*%
%TO.N,+3.3VA*%
X155237500Y-96181250D03*
%TD*%
D20*
%TO.P,C24,1*%
%TO.N,+3.3V*%
X141437500Y-77400000D03*
%TO.P,C24,2*%
%TO.N,GND*%
X139362500Y-77400000D03*
%TD*%
D40*
%TO.P,C16,1*%
%TO.N,/MCU/OSC OUT*%
X147682250Y-86762500D03*
%TO.P,C16,2*%
%TO.N,GND*%
X147682250Y-88837500D03*
%TD*%
%TO.P,C25,1*%
%TO.N,+3.3V*%
X145600000Y-75962500D03*
%TO.P,C25,2*%
%TO.N,GND*%
X145600000Y-78037500D03*
%TD*%
D20*
%TO.P,C21,1*%
%TO.N,+3.3V*%
X164562500Y-74725000D03*
%TO.P,C21,2*%
%TO.N,GND*%
X162487500Y-74725000D03*
%TD*%
D22*
%TO.P,R16,1*%
%TO.N,/FlashSd/SDCLK*%
X176700000Y-84500000D03*
%TO.P,R16,2*%
%TO.N,Net-(J8-CLK)*%
X178700000Y-84500000D03*
%TD*%
D15*
%TO.P,C4,1*%
%TO.N,Net-(U1-VCAP_2)*%
X171312500Y-84500000D03*
%TO.P,C4,2*%
%TO.N,GND*%
X173387500Y-84500000D03*
%TD*%
D40*
%TO.P,C5,1*%
%TO.N,+3.3V*%
X168900000Y-94762500D03*
%TO.P,C5,2*%
%TO.N,GND*%
X168900000Y-96837500D03*
%TD*%
D22*
%TO.P,R15,1*%
%TO.N,+3.3V*%
X176700000Y-87800000D03*
%TO.P,R15,2*%
%TO.N,Net-(J8-DAT3{slash}CD)*%
X178700000Y-87800000D03*
%TD*%
D55*
%TO.P,Q3,1,B*%
%TO.N,Net-(Q3-B)*%
X177362500Y-121650000D03*
%TO.P,Q3,2,E*%
%TO.N,GND*%
X177362500Y-123550000D03*
%TO.P,Q3,3,C*%
%TO.N,Net-(BZ1--)*%
X179237500Y-122600000D03*
%TD*%
D20*
%TO.P,C6,1*%
%TO.N,+3.3V*%
X160737500Y-96300000D03*
%TO.P,C6,2*%
%TO.N,GND*%
X158662500Y-96300000D03*
%TD*%
D56*
%TO.P,U2,1,D*%
%TO.N,/Can_transceiver/CAN_TX_2*%
X147125000Y-57295000D03*
%TO.P,U2,2,GND*%
%TO.N,GND*%
X147125000Y-58565000D03*
%TO.P,U2,3,VCC*%
%TO.N,+3.3V*%
X147125000Y-59835000D03*
%TO.P,U2,4,R*%
%TO.N,/Can_transceiver/CAN_RX_2*%
X147125000Y-61105000D03*
%TO.P,U2,5,Vref*%
%TO.N,unconnected-(U2-Vref-Pad5)*%
X152075000Y-61105000D03*
%TO.P,U2,6,CANL*%
%TO.N,/Can_transceiver/CANL*%
X152075000Y-59835000D03*
%TO.P,U2,7,CANH*%
%TO.N,/Can_transceiver/CANH*%
X152075000Y-58565000D03*
%TO.P,U2,8,Rs*%
%TO.N,GND*%
X152075000Y-57295000D03*
%TD*%
D23*
%TO.P,CAN_OUT1,1,Pin_1*%
%TO.N,/Can_transceiver/CANH*%
X129400000Y-62100000D03*
D24*
%TO.P,CAN_OUT1,2,Pin_2*%
%TO.N,/Can_transceiver/CANL*%
X129400000Y-67600000D03*
%TD*%
D57*
%TO.P,D3,1,K*%
%TO.N,Net-(D2-K)*%
X160512500Y-122700000D03*
%TO.P,D3,2,A*%
%TO.N,+5V*%
X164887500Y-122700000D03*
%TD*%
D22*
%TO.P,R5,1*%
%TO.N,Net-(Q1-D)*%
X125950000Y-101950000D03*
%TO.P,R5,2*%
%TO.N,GND*%
X127950000Y-101950000D03*
%TD*%
D58*
%TO.P,U8,1,~{CS}*%
%TO.N,/FlashMemory/ChipSelectFLash*%
X161287500Y-59795000D03*
%TO.P,U8,2,DO/IO_{1}*%
%TO.N,/FlashMemory/SPI_MISO*%
X161287500Y-61065000D03*
%TO.P,U8,3,~{WP}/IO_{2}*%
%TO.N,Net-(U8-~{WP}{slash}IO_{2})*%
X161287500Y-62335000D03*
%TO.P,U8,4,GND*%
%TO.N,GND*%
X161287500Y-63605000D03*
%TO.P,U8,5,DI/IO_{0}*%
%TO.N,/FlashMemory/SPI_MOSI*%
X166687500Y-63605000D03*
%TO.P,U8,6,CLK*%
%TO.N,/FlashMemory/SPICLK*%
X166687500Y-62335000D03*
%TO.P,U8,7,~{HOLD}/~{RESET}/IO_{3}*%
%TO.N,Net-(U8-~{HOLD}{slash}~{RESET}{slash}IO_{3})*%
X166687500Y-61065000D03*
%TO.P,U8,8,VCC*%
%TO.N,+3.3V*%
X166687500Y-59795000D03*
D59*
%TO.P,U8,9,EP*%
%TO.N,unconnected-(U8-EP-Pad9)*%
X163987500Y-61700000D03*
%TD*%
D60*
%TO.N,+3.3V*%
X148900000Y-64500000D03*
X147100000Y-64600000D03*
%TO.N,GND*%
X146300000Y-85400000D03*
X139450000Y-74300000D03*
X155300000Y-83000000D03*
X146300000Y-89800000D03*
X150100000Y-89900000D03*
X139400000Y-75900000D03*
X150500000Y-83200000D03*
X148725000Y-77270000D03*
X151850000Y-92881250D03*
X184400000Y-78200000D03*
X157900000Y-78800000D03*
X169593815Y-58106185D03*
X186155000Y-110400000D03*
X173724265Y-82824265D03*
X153800000Y-57400000D03*
X160700000Y-64854315D03*
X149400000Y-83200000D03*
X156522835Y-89850000D03*
X143650000Y-78100000D03*
X156100000Y-85600000D03*
X161900000Y-79200000D03*
X184330000Y-93350000D03*
X156063500Y-83900000D03*
X146300000Y-87500000D03*
X170000000Y-97900000D03*
X126500000Y-86300000D03*
X156063500Y-83024791D03*
X155000000Y-88900000D03*
X152900000Y-89900000D03*
X186020000Y-104650000D03*
X153800000Y-89900000D03*
X181100000Y-96900000D03*
X148700000Y-73400000D03*
X148300000Y-85300000D03*
X149300000Y-89900000D03*
X176800000Y-125000000D03*
X174784620Y-68965380D03*
X167900000Y-98300000D03*
X153900000Y-88900000D03*
X152800000Y-83200000D03*
X153700000Y-83000000D03*
X151750000Y-95181250D03*
X124000000Y-100900000D03*
X156825000Y-117575000D03*
X192700000Y-59900000D03*
X182400000Y-94000000D03*
X161025000Y-114200000D03*
X190700000Y-77600000D03*
X151100000Y-89900000D03*
X182900000Y-102600000D03*
X154600000Y-83000000D03*
X153600000Y-71900000D03*
X139750000Y-73550000D03*
X116900000Y-94575000D03*
X128000000Y-100400000D03*
X148400000Y-89900000D03*
X192600000Y-77600000D03*
X151600000Y-83200000D03*
X152100000Y-89900000D03*
X147300000Y-85400000D03*
X158700000Y-77500000D03*
X148300000Y-84300000D03*
X156063500Y-84800000D03*
X121399999Y-97575001D03*
X153000000Y-103600000D03*
X134200000Y-102100000D03*
X148300000Y-83300000D03*
X158500000Y-97600000D03*
X147400000Y-89900000D03*
X192800000Y-113300000D03*
X148900000Y-58900000D03*
X156000000Y-88900000D03*
X139300000Y-105300000D03*
X144960453Y-70100000D03*
X132000000Y-97133620D03*
X142800000Y-76900000D03*
X190800000Y-93800000D03*
X146300000Y-88600000D03*
X146300000Y-86500000D03*
%TO.N,+3.3V*%
X150600000Y-112900000D03*
X178300000Y-106900000D03*
X159900000Y-79200000D03*
X169900000Y-80600000D03*
X147000000Y-76000000D03*
X174876000Y-87800000D03*
X142200000Y-79000000D03*
X156518722Y-62631222D03*
X158725000Y-74225000D03*
X186055000Y-108400000D03*
X117100000Y-79100000D03*
X178600000Y-86200000D03*
X170600000Y-60100000D03*
X158650000Y-108650000D03*
X143259311Y-70100000D03*
X156624264Y-81718399D03*
X127500000Y-94800000D03*
X172400000Y-96400000D03*
X152225000Y-79670000D03*
X155137500Y-103543750D03*
X150425000Y-69370000D03*
X152125000Y-70270000D03*
X144900000Y-61600000D03*
X161400000Y-97900000D03*
X175184774Y-70834314D03*
X188500000Y-118275000D03*
%TO.N,/MCU/NRST*%
X149100000Y-91800000D03*
X133000000Y-95700000D03*
X160400000Y-87750000D03*
%TO.N,/FlashSd/SDMOSI*%
X161800000Y-92800000D03*
X182700000Y-82300000D03*
%TO.N,/FlashSd/SDMISO*%
X182700000Y-86700000D03*
X162800000Y-95800000D03*
%TO.N,/MCU/SWCLK*%
X156165441Y-80589213D03*
X167200000Y-79800000D03*
%TO.N,/MCU/SWDIO*%
X144700000Y-90100000D03*
X131900000Y-82100000D03*
X160300000Y-90600000D03*
X165600000Y-87900000D03*
X167750001Y-85750001D03*
%TO.N,/MCU/RGB_DATA*%
X169800000Y-105300000D03*
X163200000Y-98100000D03*
%TO.N,/FlashSd/SDCLK*%
X162500000Y-91700000D03*
X175424265Y-84624265D03*
%TO.N,/FlashMemory/SPICLK*%
X166485072Y-79184753D03*
X167900000Y-63600000D03*
%TO.N,/MCU/PyroADC*%
X119850000Y-101725000D03*
X156500000Y-101500000D03*
%TO.N,/FlashMemory/SPI_MISO*%
X164034905Y-79703656D03*
X160100000Y-60500000D03*
%TO.N,/FlashMemory/ChipSelectFLash*%
X159400000Y-88400000D03*
X154300000Y-80150000D03*
%TO.N,/FlashMemory/SPI_MOSI*%
X164785072Y-79303963D03*
X166450000Y-65000000D03*
%TO.N,/Can_transceiver/CAN_TX_2*%
X172400000Y-94100000D03*
X146700000Y-55800000D03*
%TO.N,/Can_transceiver/CAN_RX_2*%
X172200000Y-92900000D03*
X146700000Y-62200000D03*
%TO.N,/GPS/GPS1_TX*%
X169600000Y-75120338D03*
%TO.N,/GPS/GPS1_RX*%
X159500000Y-91200000D03*
%TO.N,/Accelerometer/AccelerometerSCL*%
X149403089Y-72724610D03*
X163400000Y-80300000D03*
X159350000Y-69300000D03*
X142105127Y-72228820D03*
%TO.N,/Drogue/DrougeADC*%
X130300000Y-102300000D03*
X163300000Y-102000000D03*
%TO.N,/Accelerometer/AccelerometerSDA*%
X140942134Y-72788254D03*
X147500000Y-73400000D03*
X162655693Y-79477353D03*
X159968140Y-71582354D03*
%TO.N,/LoRa/sxNSS*%
X166569215Y-90000000D03*
X189700000Y-68025000D03*
%TO.N,/LoRa/sxDIO1*%
X175124265Y-74324265D03*
X164850001Y-91039951D03*
%TO.N,/LoRa/sxReset*%
X166600000Y-90800000D03*
X190400000Y-66025000D03*
%TO.N,/LoRa/sxSCK*%
X166200000Y-91700000D03*
X189600000Y-70025000D03*
%TO.N,/LoRa/sxMOSI*%
X188700000Y-72100000D03*
X164075735Y-87875735D03*
%TO.N,/LoRa/sxMIS0*%
X163811678Y-87023578D03*
X170539950Y-78439949D03*
%TO.N,/GPS/RESET1*%
X172374265Y-74174265D03*
%TO.N,/GPS/RESET2*%
X173400000Y-73100000D03*
%TO.N,/GPS/GPS2_TX*%
X174400000Y-54900000D03*
%TO.N,/MCU/BuzzerControl*%
X157500000Y-99700000D03*
X167900000Y-105400000D03*
%TD*%
D61*
%TO.N,+3.3V*%
X144350000Y-75350000D02*
X143650000Y-75350000D01*
X144962500Y-75962500D02*
X144350000Y-75350000D01*
X145200000Y-75962500D02*
X144962500Y-75962500D01*
%TO.N,/Accelerometer/AccelerometerSDA*%
X147200000Y-67900000D02*
X147000000Y-67700000D01*
X147200000Y-73100000D02*
X147200000Y-67900000D01*
X147500000Y-73400000D02*
X147200000Y-73100000D01*
%TO.N,+3.3V*%
X147100000Y-65400000D02*
X147100000Y-64600000D01*
X146700000Y-65800000D02*
X147100000Y-65400000D01*
X146550000Y-65800000D02*
X146700000Y-65800000D01*
X148900000Y-64600000D02*
X148900000Y-64500000D01*
X148900000Y-65700000D02*
X148900000Y-64600000D01*
%TO.N,/Accelerometer/AccelerometerSDA*%
X150448516Y-74271484D02*
X148371484Y-74271484D01*
X151100000Y-73620000D02*
X150448516Y-74271484D01*
X148371484Y-74271484D02*
X147500000Y-73400000D01*
%TO.N,/Accelerometer/AccelerometerSCL*%
X148900000Y-72221521D02*
X148900000Y-67700000D01*
X149403089Y-72724610D02*
X148900000Y-72221521D01*
%TO.N,Net-(U6-CAP)*%
X160525000Y-74587500D02*
X160525000Y-72975000D01*
%TO.N,GND*%
X153763500Y-89049000D02*
X153763500Y-89849000D01*
D62*
X184250000Y-102300000D02*
X183200000Y-102300000D01*
D61*
X186705000Y-102700000D02*
X186020000Y-103385000D01*
X156063500Y-85563500D02*
X156100000Y-85600000D01*
D62*
X121400000Y-98875000D02*
X121399999Y-97575001D01*
D61*
X187855000Y-110412500D02*
X190012500Y-110412500D01*
X190725000Y-78825000D02*
X190725000Y-77625000D01*
D62*
X145437500Y-70577047D02*
X144960453Y-70100000D01*
D61*
X151750000Y-95181250D02*
X152062500Y-95181250D01*
D62*
X116925000Y-93350000D02*
X116925000Y-94550000D01*
D61*
X148892500Y-77270000D02*
X150162500Y-76000000D01*
D62*
X124050000Y-103700000D02*
X124050000Y-100950000D01*
D61*
X185025000Y-83405000D02*
X186145000Y-83405000D01*
X146263500Y-89849000D02*
X153763500Y-89849000D01*
D62*
X174784620Y-64465380D02*
X174784620Y-68965380D01*
D61*
X140950000Y-73850000D02*
X140050000Y-73850000D01*
X142800000Y-75700000D02*
X142800000Y-76500000D01*
X186167500Y-110412500D02*
X186155000Y-110400000D01*
D62*
X192675000Y-59925000D02*
X192700000Y-59900000D01*
X124050000Y-100950000D02*
X124000000Y-100900000D01*
D61*
X192775000Y-114600000D02*
X192775000Y-113325000D01*
X156063500Y-83024791D02*
X156063500Y-85563500D01*
D62*
X183200000Y-102300000D02*
X182900000Y-102600000D01*
D61*
X147125000Y-58565000D02*
X148565000Y-58565000D01*
X146263500Y-85349000D02*
X146263500Y-89849000D01*
D62*
X127950000Y-100450000D02*
X128000000Y-100400000D01*
D61*
X161850000Y-74087500D02*
X162487500Y-74725000D01*
X152750000Y-91981250D02*
X151850000Y-92881250D01*
X170000000Y-97837500D02*
X171000000Y-96837500D01*
X183775000Y-78825000D02*
X184400000Y-78200000D01*
X158662500Y-97437500D02*
X158500000Y-97600000D01*
X140950000Y-74850000D02*
X140000000Y-74850000D01*
X148725000Y-77270000D02*
X148892500Y-77270000D01*
X153963500Y-88849000D02*
X153763500Y-89049000D01*
X148565000Y-58565000D02*
X148900000Y-58900000D01*
D62*
X177275000Y-64025000D02*
X175225000Y-64025000D01*
X174500000Y-123800000D02*
X175600000Y-123800000D01*
D61*
X171937500Y-82300000D02*
X173200000Y-82300000D01*
X192675000Y-76025000D02*
X192675000Y-77525000D01*
D62*
X153062500Y-103537500D02*
X153000000Y-103600000D01*
D61*
X147682250Y-88837500D02*
X149375000Y-88837500D01*
D62*
X181250000Y-98000000D02*
X181250000Y-97050000D01*
D61*
X139500000Y-74350000D02*
X139450000Y-74300000D01*
X168937500Y-96837500D02*
X170000000Y-97900000D01*
X162487500Y-76825000D02*
X160687500Y-76825000D01*
X148263500Y-83251000D02*
X148263500Y-85349000D01*
D62*
X134200000Y-103150000D02*
X134200000Y-102100000D01*
X143712500Y-78037500D02*
X143650000Y-78100000D01*
D61*
X152863500Y-83249000D02*
X152600000Y-83249000D01*
X186705000Y-96200000D02*
X186050000Y-96200000D01*
X152750000Y-96181250D02*
X151750000Y-95181250D01*
X152600000Y-83249000D02*
X152551000Y-83200000D01*
X190725000Y-93725000D02*
X190800000Y-93800000D01*
X162487500Y-76825000D02*
X162487500Y-74725000D01*
X187855000Y-110412500D02*
X186167500Y-110412500D01*
X152075000Y-57295000D02*
X153695000Y-57295000D01*
X153163500Y-82949000D02*
X152863500Y-83249000D01*
D62*
X184350000Y-93370000D02*
X184330000Y-93350000D01*
D61*
X173387500Y-83161030D02*
X173724265Y-82824265D01*
X142800000Y-76500000D02*
X142800000Y-76900000D01*
X140950000Y-74350000D02*
X139500000Y-74350000D01*
X144900000Y-58062500D02*
X146622500Y-58062500D01*
X190725000Y-77625000D02*
X190700000Y-77600000D01*
X161937500Y-80600000D02*
X161937500Y-79237500D01*
X186050000Y-96200000D02*
X184350000Y-94500000D01*
X160525000Y-76662500D02*
X159537500Y-76662500D01*
X170000000Y-97900000D02*
X170000000Y-97837500D01*
X152551000Y-83200000D02*
X148314500Y-83200000D01*
X155987709Y-82949000D02*
X153163500Y-82949000D01*
D62*
X175225000Y-64025000D02*
X174784620Y-64465380D01*
D61*
X153050000Y-94081250D02*
X151850000Y-92881250D01*
X160350000Y-82016176D02*
X161766176Y-80600000D01*
X149555000Y-78100000D02*
X148725000Y-77270000D01*
X152263500Y-83585500D02*
X152600000Y-83249000D01*
D62*
X161012500Y-112737500D02*
X161012500Y-114187500D01*
X177362500Y-124437500D02*
X176800000Y-125000000D01*
D61*
X148314500Y-83200000D02*
X148263500Y-83251000D01*
X156063500Y-83024791D02*
X155987709Y-82949000D01*
D62*
X181250000Y-97050000D02*
X181100000Y-96900000D01*
X156825000Y-119250000D02*
X156825000Y-117575000D01*
D61*
X149963500Y-89549000D02*
X150263500Y-89849000D01*
D62*
X192675000Y-62025000D02*
X192675000Y-59925000D01*
D61*
X160350000Y-94983824D02*
X160350000Y-94175000D01*
X150380000Y-73400000D02*
X148700000Y-73400000D01*
D62*
X158665000Y-112900000D02*
X160850000Y-112900000D01*
X175600000Y-123800000D02*
X176800000Y-125000000D01*
D61*
X149963500Y-88249000D02*
X149963500Y-89549000D01*
X147275000Y-88837500D02*
X146263500Y-89849000D01*
D62*
X184350000Y-94500000D02*
X184350000Y-93370000D01*
D61*
X156922835Y-90250000D02*
X156522835Y-89850000D01*
X140050000Y-73850000D02*
X139750000Y-73550000D01*
D62*
X132000000Y-98250000D02*
X132000000Y-97133620D01*
D61*
X160350000Y-82825000D02*
X160350000Y-82016176D01*
D62*
X161287500Y-63605000D02*
X160700000Y-64192500D01*
X116925000Y-94550000D02*
X116900000Y-94575000D01*
D61*
X153695000Y-57295000D02*
X153800000Y-57400000D01*
D62*
X145200000Y-78037500D02*
X143712500Y-78037500D01*
D61*
X158662500Y-96300000D02*
X158662500Y-97437500D01*
X159537500Y-76662500D02*
X158700000Y-77500000D01*
X157925000Y-90250000D02*
X156922835Y-90250000D01*
X173387500Y-84500000D02*
X173387500Y-83161030D01*
X173200000Y-82300000D02*
X173724265Y-82824265D01*
X186145000Y-83405000D02*
X190725000Y-78825000D01*
D62*
X169150130Y-57662500D02*
X169593815Y-58106185D01*
D61*
X140000000Y-74850000D02*
X139450000Y-74300000D01*
X153963500Y-88849000D02*
X155963500Y-88849000D01*
D62*
X145437500Y-71900000D02*
X145437500Y-70577047D01*
X134250000Y-103200000D02*
X134200000Y-103150000D01*
X153062500Y-102081250D02*
X153062500Y-103537500D01*
D61*
X182425000Y-78825000D02*
X183775000Y-78825000D01*
X192675000Y-77525000D02*
X192600000Y-77600000D01*
X182425000Y-93975000D02*
X182400000Y-94000000D01*
X146622500Y-58062500D02*
X147125000Y-58565000D01*
X159033824Y-96300000D02*
X160350000Y-94983824D01*
X148263500Y-85349000D02*
X146263500Y-85349000D01*
X161937500Y-79237500D02*
X161900000Y-79200000D01*
D62*
X177362500Y-123550000D02*
X177362500Y-124437500D01*
D61*
X139362500Y-75937500D02*
X139400000Y-75900000D01*
X150162500Y-78100000D02*
X149555000Y-78100000D01*
X190725000Y-92575000D02*
X190725000Y-93725000D01*
X157900000Y-80062500D02*
X157900000Y-78800000D01*
X182425000Y-92575000D02*
X182425000Y-93975000D01*
D62*
X127950000Y-101950000D02*
X127950000Y-100450000D01*
D61*
X192775000Y-113325000D02*
X192800000Y-113300000D01*
D62*
X138000000Y-105300000D02*
X139300000Y-105300000D01*
D61*
X142300000Y-76000000D02*
X142800000Y-76500000D01*
X161850000Y-72900000D02*
X161850000Y-74087500D01*
X153926000Y-84311500D02*
X152863500Y-83249000D01*
D62*
X125000000Y-86300000D02*
X126500000Y-86300000D01*
D61*
X167862500Y-98337500D02*
X167900000Y-98300000D01*
X152820000Y-71900000D02*
X153600000Y-71900000D01*
X166500000Y-98337500D02*
X167862500Y-98337500D01*
X152062500Y-95181250D02*
X153162500Y-94081250D01*
X186020000Y-103385000D02*
X186020000Y-104650000D01*
X139362500Y-77400000D02*
X139362500Y-75937500D01*
D62*
X160700000Y-64192500D02*
X160700000Y-64854315D01*
X161012500Y-114187500D02*
X161025000Y-114200000D01*
X168400000Y-57662500D02*
X169150130Y-57662500D01*
D61*
X152263500Y-85349000D02*
X152263500Y-83585500D01*
%TO.N,+3.3V*%
X186117500Y-108337500D02*
X186055000Y-108400000D01*
X159350000Y-72900000D02*
X160126000Y-72124000D01*
X159350000Y-73600000D02*
X158725000Y-74225000D01*
X190100000Y-108875000D02*
X188392500Y-108875000D01*
X144900000Y-60137500D02*
X144900000Y-61600000D01*
D62*
X157700000Y-62200000D02*
X156882060Y-62200000D01*
X170600000Y-60100000D02*
X170600000Y-61700000D01*
D61*
X152100000Y-70295000D02*
X152125000Y-70270000D01*
X188500000Y-116800000D02*
X188500000Y-118275000D01*
X157043365Y-82137500D02*
X156624264Y-81718399D01*
X176468628Y-110200000D02*
X176559010Y-110109618D01*
D62*
X184979000Y-85651000D02*
X179149000Y-85651000D01*
D61*
X160737500Y-96300000D02*
X160737500Y-97237500D01*
D62*
X152635000Y-112900000D02*
X150600000Y-112900000D01*
X154935000Y-110600000D02*
X152635000Y-112900000D01*
D61*
X168900000Y-94762500D02*
X167937500Y-94762500D01*
D62*
X175249263Y-70025000D02*
X175184774Y-70089489D01*
X155137500Y-102081250D02*
X155137500Y-100118750D01*
D61*
X167937500Y-94762500D02*
X167350000Y-94175000D01*
D62*
X156882060Y-62200000D02*
X156534780Y-62547280D01*
D61*
X162324000Y-72124000D02*
X163100000Y-72900000D01*
D62*
X143362500Y-71900000D02*
X143362500Y-70203189D01*
X117100000Y-80700000D02*
X117100000Y-79100000D01*
D61*
X168900000Y-94762500D02*
X171000000Y-94762500D01*
X150380000Y-69415000D02*
X150425000Y-69370000D01*
X152237500Y-76000000D02*
X152237500Y-73757500D01*
X147125000Y-59835000D02*
X145202500Y-59835000D01*
X152125000Y-70270000D02*
X151425000Y-70270000D01*
X152237500Y-79657500D02*
X152225000Y-79670000D01*
D62*
X146962500Y-75962500D02*
X147000000Y-76000000D01*
X145200000Y-75962500D02*
X146962500Y-75962500D01*
D61*
X151275000Y-70420000D02*
X151225000Y-70370000D01*
X187855000Y-108337500D02*
X186117500Y-108337500D01*
D62*
X168400000Y-59737500D02*
X166745000Y-59737500D01*
D61*
X152237500Y-76000000D02*
X152237500Y-78100000D01*
D62*
X175184774Y-70089489D02*
X175184774Y-70834314D01*
X173650000Y-110000000D02*
X170500000Y-113150000D01*
X177275000Y-70025000D02*
X175249263Y-70025000D01*
D61*
X169862500Y-80637500D02*
X169900000Y-80600000D01*
X159862500Y-80600000D02*
X159862500Y-79237500D01*
X141437500Y-77400000D02*
X141437500Y-76062500D01*
D62*
X168400000Y-59737500D02*
X170237500Y-59737500D01*
D61*
X141437500Y-76062500D02*
X141800000Y-75700000D01*
X164562500Y-76825000D02*
X164562500Y-74725000D01*
D62*
X166745000Y-59737500D02*
X166687500Y-59795000D01*
X155137500Y-103543750D02*
X155137500Y-102081250D01*
D61*
X141437500Y-78237500D02*
X142200000Y-79000000D01*
D62*
X178300000Y-110000000D02*
X178300000Y-106900000D01*
D61*
X169275000Y-84750000D02*
X169862500Y-84162500D01*
X152237500Y-73757500D02*
X152100000Y-73620000D01*
X172400000Y-95400000D02*
X172400000Y-96400000D01*
D62*
X170237500Y-59737500D02*
X170600000Y-60100000D01*
D61*
X175450000Y-110200000D02*
X176468628Y-110200000D01*
D62*
X179149000Y-85651000D02*
X178600000Y-86200000D01*
D61*
X152100000Y-71180000D02*
X152100000Y-70295000D01*
X160850000Y-96187500D02*
X160850000Y-94175000D01*
X151600000Y-70745000D02*
X151275000Y-70420000D01*
X142800000Y-72462500D02*
X143362500Y-71900000D01*
X151600000Y-71180000D02*
X151600000Y-70745000D01*
D62*
X143362500Y-70203189D02*
X143259311Y-70100000D01*
D61*
X157900000Y-82137500D02*
X157900000Y-84725000D01*
X160737500Y-97237500D02*
X161400000Y-97900000D01*
D62*
X158665000Y-110600000D02*
X154935000Y-110600000D01*
D61*
X169862500Y-82300000D02*
X169862500Y-80637500D01*
X159350000Y-72900000D02*
X159350000Y-73600000D01*
D62*
X178300000Y-110000000D02*
X173650000Y-110000000D01*
D61*
X150380000Y-70370000D02*
X150380000Y-69415000D01*
X159862500Y-79237500D02*
X159900000Y-79200000D01*
X159862500Y-80600000D02*
X159862500Y-82812500D01*
X171000000Y-94762500D02*
X171762500Y-94762500D01*
X188392500Y-108875000D02*
X187855000Y-108337500D01*
D62*
X158665000Y-110600000D02*
X158665000Y-108665000D01*
D61*
X151225000Y-70370000D02*
X150380000Y-70370000D01*
X164562500Y-74362500D02*
X163100000Y-72900000D01*
X150380000Y-71400000D02*
X150380000Y-70370000D01*
X151425000Y-70270000D02*
X151275000Y-70420000D01*
X142800000Y-73500000D02*
X142800000Y-72462500D01*
D62*
X158665000Y-108665000D02*
X158650000Y-108650000D01*
D61*
X152100000Y-73620000D02*
X152100000Y-71180000D01*
X141437500Y-77400000D02*
X141437500Y-78237500D01*
X169862500Y-84162500D02*
X169862500Y-82300000D01*
X152237500Y-78100000D02*
X152237500Y-79657500D01*
X157900000Y-82137500D02*
X157043365Y-82137500D01*
X127500000Y-94800000D02*
X127500000Y-93875000D01*
X171762500Y-94762500D02*
X172400000Y-95400000D01*
D62*
X161012500Y-110662500D02*
X158727500Y-110662500D01*
D61*
X174876000Y-87800000D02*
X176700000Y-87800000D01*
X160126000Y-72124000D02*
X162324000Y-72124000D01*
D62*
%TO.N,+3.3VA*%
X155237500Y-96181250D02*
X155237500Y-94081250D01*
X155237500Y-94081250D02*
X155237500Y-91981250D01*
X155100000Y-98081250D02*
X155100000Y-96318750D01*
D61*
X155237500Y-91981250D02*
X156468750Y-90750000D01*
X156468750Y-90750000D02*
X157925000Y-90750000D01*
%TO.N,/MCU/BOOT0*%
X158100000Y-78200000D02*
X159000000Y-79100000D01*
X156874000Y-79026000D02*
X157700000Y-78200000D01*
X156661418Y-81159272D02*
X156874000Y-80946690D01*
X161850000Y-83633824D02*
X161850000Y-82825000D01*
X157700000Y-78200000D02*
X158100000Y-78200000D01*
X161582824Y-83901000D02*
X161850000Y-83633824D01*
X156874000Y-80946690D02*
X156874000Y-79026000D01*
X155925145Y-81159272D02*
X156661418Y-81159272D01*
X123100000Y-84400000D02*
X124100000Y-84400000D01*
X124100000Y-84400000D02*
X127200000Y-81300000D01*
X123100000Y-84400000D02*
X123100000Y-86200000D01*
X159617176Y-83901000D02*
X161582824Y-83901000D01*
X159000000Y-79300000D02*
X158974000Y-79326000D01*
X159000000Y-79100000D02*
X159000000Y-79300000D01*
X155784417Y-81300000D02*
X155925145Y-81159272D01*
X158974000Y-79326000D02*
X158974000Y-83257824D01*
X127200000Y-81300000D02*
X155784417Y-81300000D01*
X158974000Y-83257824D02*
X159617176Y-83901000D01*
D62*
%TO.N,Net-(D2-K)*%
X158665000Y-115200000D02*
X158665000Y-119015000D01*
X157812500Y-120337500D02*
X158900000Y-119250000D01*
X157812500Y-122012500D02*
X157812500Y-120337500D01*
X160512500Y-122700000D02*
X160512500Y-120862500D01*
X160512500Y-120862500D02*
X158900000Y-119250000D01*
D61*
%TO.N,/MCU/NRST*%
X128375000Y-91875000D02*
X132200000Y-95700000D01*
X145200000Y-95700000D02*
X133000000Y-95700000D01*
X127500000Y-91875000D02*
X128375000Y-91875000D01*
X149100000Y-91800000D02*
X145200000Y-95700000D01*
X132200000Y-95700000D02*
X133000000Y-95700000D01*
X157925000Y-87750000D02*
X160400000Y-87750000D01*
X125200000Y-91812500D02*
X127437500Y-91812500D01*
D62*
%TO.N,Net-(C2-Pad2)*%
X122925000Y-89650000D02*
X125612500Y-89650000D01*
D61*
%TO.N,Net-(U1-VCAP_1)*%
X166850000Y-94175000D02*
X166850000Y-95912500D01*
%TO.N,Net-(U1-VCAP_2)*%
X170562500Y-85250000D02*
X169275000Y-85250000D01*
X171312500Y-84500000D02*
X170562500Y-85250000D01*
D62*
%TO.N,Net-(Q1-D)*%
X125950000Y-100500000D02*
X125950000Y-101950000D01*
X125950000Y-102150000D02*
X125862500Y-102062500D01*
X125950000Y-103762500D02*
X125950000Y-102150000D01*
X125862500Y-103850000D02*
X125950000Y-103762500D01*
X124900000Y-99450000D02*
X125950000Y-100500000D01*
D61*
%TO.N,/MCU/OSC IN*%
X151314500Y-86700000D02*
X154200000Y-86700000D01*
X149963500Y-85349000D02*
X151314500Y-86700000D01*
X154877000Y-86750000D02*
X157925000Y-86750000D01*
%TO.N,/MCU/OSC OUT*%
X153750000Y-87250000D02*
X153778340Y-87250000D01*
X150777000Y-86762500D02*
X147682250Y-86762500D01*
X155248660Y-87250000D02*
X157925000Y-87250000D01*
X153803340Y-87275000D02*
X155223660Y-87275000D01*
X153778340Y-87250000D02*
X153803340Y-87275000D01*
X152263500Y-88249000D02*
X150777000Y-86762500D01*
X155223660Y-87275000D02*
X155248660Y-87250000D01*
X152751000Y-88249000D02*
X153750000Y-87250000D01*
D63*
%TO.N,+BATT*%
X144800000Y-113870000D02*
X127800000Y-113870000D01*
X144800000Y-113870000D02*
X144800000Y-114300000D01*
X144800000Y-114300000D02*
X153225000Y-122725000D01*
D62*
%TO.N,+5V*%
X181250000Y-103500000D02*
X181300000Y-103550000D01*
D61*
X178700000Y-96366176D02*
X178700000Y-103550000D01*
D62*
X181250000Y-100500000D02*
X181250000Y-103500000D01*
X181300000Y-103550000D02*
X178700000Y-103550000D01*
X164887500Y-103656004D02*
X164887500Y-122700000D01*
X164993504Y-103550000D02*
X164887500Y-103656004D01*
D61*
X185878000Y-101900000D02*
X185500000Y-102278000D01*
X188750000Y-100300000D02*
X188750000Y-100650000D01*
X185500000Y-103550000D02*
X184450000Y-103550000D01*
X169275000Y-87750000D02*
X170083824Y-87750000D01*
D62*
X184250000Y-103550000D02*
X181300000Y-103550000D01*
D61*
X186705000Y-101900000D02*
X185878000Y-101900000D01*
X186705000Y-97000000D02*
X187482000Y-97000000D01*
D62*
X178700000Y-103550000D02*
X164993504Y-103550000D01*
D61*
X187482000Y-101900000D02*
X186705000Y-101900000D01*
X188750000Y-98268000D02*
X188750000Y-100300000D01*
X170083824Y-87750000D02*
X178700000Y-96366176D01*
X188750000Y-100632000D02*
X187482000Y-101900000D01*
X188750000Y-100300000D02*
X188750000Y-100632000D01*
X187482000Y-97000000D02*
X188750000Y-98268000D01*
X185500000Y-102278000D02*
X185500000Y-103550000D01*
%TO.N,/FlashSd/SDMOSI*%
X185025000Y-82305000D02*
X182705000Y-82305000D01*
X161800000Y-92800000D02*
X161800000Y-94125000D01*
X182705000Y-82305000D02*
X182700000Y-82300000D01*
%TO.N,/FlashSd/SDMISO*%
X182705000Y-86705000D02*
X182700000Y-86700000D01*
X162800000Y-95800000D02*
X162800000Y-94225000D01*
X185025000Y-86705000D02*
X182705000Y-86705000D01*
%TO.N,/MCU/SWCLK*%
X120368100Y-74568100D02*
X126600000Y-80800000D01*
X167200000Y-79800000D02*
X167350000Y-79950000D01*
X120368100Y-63726500D02*
X120368100Y-74568100D01*
X167350000Y-79950000D02*
X167350000Y-82825000D01*
X126600000Y-80800000D02*
X155718731Y-80800000D01*
X155718731Y-80800000D02*
X155929518Y-80589213D01*
X118930000Y-62288400D02*
X120368100Y-63726500D01*
X155929518Y-80589213D02*
X156165441Y-80589213D01*
%TO.N,/MCU/SWDIO*%
X169275000Y-85750000D02*
X167750001Y-85750001D01*
X131900000Y-82100000D02*
X144700000Y-82100000D01*
X162900000Y-90600000D02*
X165600000Y-87900000D01*
X160300000Y-90600000D02*
X162900000Y-90600000D01*
X144700000Y-82100000D02*
X144700000Y-90100000D01*
D64*
%TO.N,Net-(J2-Pin_2)*%
X121400000Y-105875000D02*
X124975000Y-105875000D01*
X127800000Y-107687500D02*
X127800000Y-108370000D01*
X125000000Y-105900000D02*
X126012500Y-105900000D01*
X126012500Y-105900000D02*
X127800000Y-107687500D01*
X124975000Y-105875000D02*
X125000000Y-105900000D01*
%TO.N,Net-(J4-Pin_2)*%
X135200000Y-105400000D02*
X135200000Y-107270000D01*
X131900000Y-105700000D02*
X134900000Y-105700000D01*
X134900000Y-105700000D02*
X135200000Y-105400000D01*
X135200000Y-107270000D02*
X136300000Y-108370000D01*
X136300000Y-108300000D02*
X136300000Y-108370000D01*
D61*
%TO.N,Net-(J8-DAT3{slash}CD)*%
X185025000Y-87805000D02*
X178705000Y-87805000D01*
%TO.N,Net-(J8-CLK)*%
X185025000Y-84505000D02*
X178705000Y-84505000D01*
%TO.N,Net-(JP1-A)*%
X143200000Y-62175000D02*
X143200000Y-56300000D01*
%TO.N,/Can_transceiver/CANL*%
X129400000Y-67600000D02*
X137900000Y-67600000D01*
X146594239Y-63625000D02*
X150384239Y-59835000D01*
X150384239Y-59835000D02*
X152075000Y-59835000D01*
X142275000Y-63625000D02*
X143200000Y-63625000D01*
X138300000Y-67600000D02*
X142275000Y-63625000D01*
X143200000Y-63625000D02*
X146594239Y-63625000D01*
%TO.N,Net-(PowerLED1-A)*%
X188700000Y-114800000D02*
X190825000Y-114800000D01*
%TO.N,/MCU/RGB_DATA*%
X163200000Y-98100000D02*
X163350000Y-97950000D01*
X192900000Y-108875000D02*
X189325000Y-105300000D01*
X189325000Y-105300000D02*
X169800000Y-105300000D01*
X163350000Y-97950000D02*
X163350000Y-94175000D01*
%TO.N,/Can_transceiver/CANH*%
X145000000Y-55200000D02*
X145000000Y-56000000D01*
X147469239Y-55150000D02*
X150884239Y-58565000D01*
X129400000Y-62100000D02*
X137900000Y-62100000D01*
X145000000Y-56000000D02*
X145000000Y-55300000D01*
X144600000Y-54800000D02*
X145000000Y-55200000D01*
X137900000Y-62100000D02*
X137900000Y-58900000D01*
X150884239Y-58565000D02*
X152075000Y-58565000D01*
X142000000Y-54800000D02*
X144600000Y-54800000D01*
X137900000Y-58900000D02*
X142000000Y-54800000D01*
X145000000Y-55300000D02*
X145150000Y-55150000D01*
X145150000Y-55150000D02*
X147469239Y-55150000D01*
%TO.N,/Drogue/DrougeIgnite*%
X175900000Y-95100000D02*
X175900000Y-100665685D01*
X175900000Y-100665685D02*
X175665685Y-100900000D01*
X162665686Y-105100000D02*
X144800000Y-105100000D01*
X144800000Y-105100000D02*
X139200000Y-99500000D01*
X139200000Y-99500000D02*
X137900000Y-99500000D01*
X166865686Y-100900000D02*
X162665686Y-105100000D01*
X169275000Y-90250000D02*
X171050000Y-90250000D01*
X175665685Y-100900000D02*
X166865686Y-100900000D01*
X171050000Y-90250000D02*
X175900000Y-95100000D01*
D62*
%TO.N,Net-(Q2-D)*%
X136150000Y-103300000D02*
X138000000Y-103300000D01*
X138000000Y-103300000D02*
X138000000Y-101600000D01*
X138000000Y-101600000D02*
X137900000Y-101500000D01*
D61*
%TO.N,/FlashSd/SDCLK*%
X162350000Y-91850000D02*
X162500000Y-91700000D01*
X175548530Y-84500000D02*
X175424265Y-84624265D01*
X162350000Y-94175000D02*
X162350000Y-91850000D01*
X176700000Y-84500000D02*
X175548530Y-84500000D01*
%TO.N,/MCU/D-*%
X180300000Y-95800000D02*
X171225000Y-86725000D01*
X185679000Y-99249000D02*
X180774000Y-99249000D01*
X186705000Y-99200000D02*
X185728000Y-99200000D01*
X185679000Y-100229000D02*
X185699000Y-100249000D01*
X180300000Y-98000000D02*
X180300000Y-95800000D01*
X180300000Y-98775000D02*
X180300000Y-98000000D01*
X185728000Y-99200000D02*
X185679000Y-99249000D01*
X186656000Y-100249000D02*
X186705000Y-100200000D01*
X180774000Y-99249000D02*
X180300000Y-98775000D01*
X185679000Y-99249000D02*
X185679000Y-100229000D01*
X171225000Y-86725000D02*
X169925000Y-86725000D01*
X185699000Y-100249000D02*
X186656000Y-100249000D01*
%TO.N,/MCU/D+*%
X187731000Y-99651000D02*
X187682000Y-99700000D01*
X182900000Y-98700000D02*
X182200000Y-98000000D01*
X182200000Y-98000000D02*
X182200000Y-97151471D01*
X186705000Y-98700000D02*
X182900000Y-98700000D01*
X187731000Y-98749000D02*
X187731000Y-99651000D01*
X171298529Y-86250000D02*
X169275000Y-86250000D01*
X182200000Y-97151471D02*
X171298529Y-86250000D01*
X187682000Y-99700000D02*
X186705000Y-99700000D01*
X187682000Y-98700000D02*
X187731000Y-98749000D01*
X186705000Y-98700000D02*
X187682000Y-98700000D01*
D62*
%TO.N,Net-(BZ1--)*%
X179237500Y-118537500D02*
X179237500Y-122600000D01*
X170500000Y-115250000D02*
X175950000Y-115250000D01*
X175950000Y-115250000D02*
X178300000Y-117600000D01*
X178300000Y-117600000D02*
X179237500Y-118537500D01*
D61*
%TO.N,/FlashMemory/SPICLK*%
X166687500Y-62387500D02*
X167900000Y-63600000D01*
X166350000Y-82825000D02*
X166350000Y-79319825D01*
X166350000Y-79319825D02*
X166485072Y-79184753D01*
%TO.N,/MCU/PyroADC*%
X157116176Y-91750000D02*
X157925000Y-91750000D01*
X156500000Y-101500000D02*
X156500000Y-92366176D01*
X120450000Y-102325000D02*
X119850000Y-101725000D01*
D62*
X121400000Y-103875000D02*
X121400000Y-102325000D01*
D61*
X121400000Y-102325000D02*
X120450000Y-102325000D01*
D62*
X121400000Y-102325000D02*
X121400000Y-100875000D01*
D61*
X156500000Y-92366176D02*
X157116176Y-91750000D01*
%TO.N,/FlashMemory/SPI_MISO*%
X163350000Y-82825000D02*
X163350000Y-81950491D01*
X164000000Y-81300491D02*
X164000000Y-79738561D01*
X164000000Y-79738561D02*
X164034905Y-79703656D01*
X160665000Y-61065000D02*
X160100000Y-60500000D01*
X163350000Y-81950491D02*
X164000000Y-81300491D01*
X161287500Y-61065000D02*
X160665000Y-61065000D01*
%TO.N,/FlashMemory/ChipSelectFLash*%
X158506414Y-59795000D02*
X154300000Y-64001414D01*
X161287500Y-59795000D02*
X158506414Y-59795000D01*
X154300000Y-64001414D02*
X154300000Y-80150000D01*
X159250000Y-88250000D02*
X159400000Y-88400000D01*
X157925000Y-88250000D02*
X159250000Y-88250000D01*
%TO.N,/FlashMemory/SPI_MOSI*%
X166687500Y-64762500D02*
X166450000Y-65000000D01*
X163850000Y-82825000D02*
X163850000Y-82016176D01*
X166687500Y-63605000D02*
X166687500Y-64762500D01*
X164964454Y-80901722D02*
X164964454Y-79483345D01*
X163850000Y-82016176D02*
X164964454Y-80901722D01*
X164964454Y-79483345D02*
X164785072Y-79303963D01*
%TO.N,/Can_transceiver/CAN_TX_2*%
X147125000Y-56225000D02*
X146700000Y-55800000D01*
X172300000Y-94100000D02*
X172400000Y-94100000D01*
X169275000Y-92250000D02*
X170450000Y-92250000D01*
X147125000Y-57295000D02*
X147125000Y-56225000D01*
X170450000Y-92250000D02*
X172300000Y-94100000D01*
%TO.N,/Can_transceiver/CAN_RX_2*%
X147125000Y-61775000D02*
X146700000Y-62200000D01*
X169275000Y-91750000D02*
X171050000Y-91750000D01*
X147125000Y-61105000D02*
X147125000Y-61775000D01*
X171050000Y-91750000D02*
X172200000Y-92900000D01*
%TO.N,/GPS/GPS1_TX*%
X165850000Y-83633824D02*
X166117176Y-83901000D01*
X166117176Y-83901000D02*
X167582824Y-83901000D01*
X169600000Y-77400000D02*
X169600000Y-75120338D01*
X167582824Y-83901000D02*
X167800000Y-83683824D01*
X165850000Y-82825000D02*
X165850000Y-83633824D01*
X167800000Y-79200000D02*
X169600000Y-77400000D01*
X167800000Y-83683824D02*
X167800000Y-79200000D01*
%TO.N,/GPS/GPS1_RX*%
X157925000Y-91250000D02*
X159450000Y-91250000D01*
X159450000Y-91250000D02*
X159500000Y-91200000D01*
D65*
%TO.N,Net-(J7-In)*%
X179400000Y-59900000D02*
X179400000Y-56300000D01*
X177275000Y-62025000D02*
X179400000Y-59900000D01*
D61*
%TO.N,/Accelerometer/AccelerometerSCL*%
X142300000Y-72423693D02*
X142105127Y-72228820D01*
X150380000Y-72900000D02*
X149578479Y-72900000D01*
X163400000Y-80300000D02*
X163400000Y-81334806D01*
X159350000Y-70750000D02*
X159350000Y-69300000D01*
X149578479Y-72900000D02*
X149403089Y-72724610D01*
X162850000Y-81884806D02*
X162850000Y-82825000D01*
X163400000Y-81334806D02*
X162850000Y-81884806D01*
X142300000Y-73500000D02*
X142300000Y-72423693D01*
D62*
%TO.N,/Drogue/DrougeADC*%
X131900000Y-103500000D02*
X131900000Y-102100000D01*
X131900000Y-102100000D02*
X131900000Y-100350000D01*
D61*
X131700000Y-102300000D02*
X130300000Y-102300000D01*
X163850000Y-101450000D02*
X163850000Y-94175000D01*
X131900000Y-102100000D02*
X131700000Y-102300000D01*
X163300000Y-102000000D02*
X163850000Y-101450000D01*
%TO.N,/Accelerometer/AccelerometerSDA*%
X162826000Y-79647660D02*
X162655693Y-79477353D01*
X162350000Y-81786160D02*
X162826000Y-81310160D01*
X162826000Y-81310160D02*
X162826000Y-79647660D01*
X160600000Y-70950494D02*
X159968140Y-71582354D01*
X162350000Y-82825000D02*
X162350000Y-81786160D01*
X141800000Y-73450000D02*
X141138254Y-72788254D01*
X141138254Y-72788254D02*
X140942134Y-72788254D01*
%TO.N,/LoRa/sxNSS*%
X189700000Y-68025000D02*
X192675000Y-68025000D01*
X164600000Y-90000000D02*
X163500000Y-91100000D01*
X166569215Y-90000000D02*
X164600000Y-90000000D01*
X163500000Y-91100000D02*
X164350000Y-91950000D01*
X164350000Y-91950000D02*
X164350000Y-94175000D01*
%TO.N,/LoRa/sxDIO1*%
X175423530Y-74025000D02*
X175124265Y-74324265D01*
X164850000Y-94175000D02*
X164850001Y-91039951D01*
X177275000Y-74025000D02*
X175423530Y-74025000D01*
%TO.N,/LoRa/sxReset*%
X165400000Y-94125000D02*
X165400000Y-91500000D01*
X165400000Y-91500000D02*
X166100000Y-90800000D01*
X192675000Y-66025000D02*
X190400000Y-66025000D01*
X166100000Y-90800000D02*
X166600000Y-90800000D01*
%TO.N,/LoRa/sxSCK*%
X165850000Y-94175000D02*
X165850000Y-92050000D01*
X192675000Y-70025000D02*
X189600000Y-70025000D01*
X165850000Y-92050000D02*
X166200000Y-91700000D01*
%TO.N,/LoRa/sxMOSI*%
X157925000Y-89750000D02*
X162201470Y-89750000D01*
X162201470Y-89750000D02*
X164075735Y-87875735D01*
X188775000Y-72025000D02*
X188700000Y-72100000D01*
X192675000Y-72025000D02*
X188775000Y-72025000D01*
%TO.N,/LoRa/sxMIS0*%
X157925000Y-89250000D02*
X161585256Y-89250000D01*
X188300000Y-77600000D02*
X171379899Y-77600000D01*
X161585256Y-89250000D02*
X163811678Y-87023578D01*
X191875000Y-74025000D02*
X188300000Y-77600000D01*
X171379899Y-77600000D02*
X170539950Y-78439949D01*
%TO.N,/GPS/RESET1*%
X168800000Y-79331372D02*
X170400000Y-77731370D01*
X170400000Y-77731370D02*
X170400000Y-76048530D01*
X168466176Y-88250000D02*
X166900000Y-86683824D01*
X172274265Y-74174265D02*
X172374265Y-74174265D01*
X170400000Y-76048530D02*
X172274265Y-74174265D01*
X168800000Y-83916176D02*
X168800000Y-79331372D01*
X166900000Y-86683824D02*
X166900000Y-85816176D01*
X169275000Y-88250000D02*
X168466176Y-88250000D01*
X166900000Y-85816176D02*
X168800000Y-83916176D01*
%TO.N,/MCU/PyroIgnite*%
X162600000Y-104600000D02*
X166700000Y-100500000D01*
X124900000Y-97450000D02*
X125866380Y-96483620D01*
X125866380Y-96483620D02*
X136883620Y-96483620D01*
X145000000Y-104600000D02*
X162600000Y-104600000D01*
X175500000Y-95400000D02*
X170850000Y-90750000D01*
X166700000Y-100500000D02*
X175500000Y-100500000D01*
X175500000Y-100500000D02*
X175500000Y-95400000D01*
X170850000Y-90750000D02*
X169275000Y-90750000D01*
X136883620Y-96483620D02*
X145000000Y-104600000D01*
%TO.N,/GPS/GPS2_RX*%
X165835072Y-78059902D02*
X173000000Y-70894974D01*
X175000000Y-53700000D02*
X174500000Y-53200000D01*
X165350000Y-81783411D02*
X165835072Y-81298339D01*
X165835072Y-81298339D02*
X165835072Y-78059902D01*
X166375000Y-53200000D02*
X164800000Y-51625000D01*
X175000000Y-55148529D02*
X175000000Y-53700000D01*
X165350000Y-82825000D02*
X165350000Y-81783411D01*
X173000000Y-57148529D02*
X175000000Y-55148529D01*
X173000000Y-70894974D02*
X173000000Y-57148529D01*
X174500000Y-53200000D02*
X166375000Y-53200000D01*
%TO.N,/GPS/RESET2*%
X170000000Y-75700000D02*
X172600000Y-73100000D01*
X168397662Y-88750000D02*
X166400000Y-86752338D01*
X166400000Y-85652338D02*
X168400000Y-83652338D01*
X168400000Y-83652338D02*
X168400000Y-79165686D01*
X170000000Y-77565685D02*
X170000000Y-75700000D01*
X172600000Y-73100000D02*
X173400000Y-73100000D01*
X169275000Y-88750000D02*
X168397662Y-88750000D01*
X168400000Y-79165686D02*
X170000000Y-77565685D01*
X166400000Y-86752338D02*
X166400000Y-85652338D01*
%TO.N,/GPS/GPS2_TX*%
X172400000Y-57100000D02*
X174400000Y-55100000D01*
X164850000Y-81717726D02*
X165435072Y-81132654D01*
X174400000Y-55100000D02*
X174400000Y-54900000D01*
X165451000Y-79018796D02*
X165451000Y-77949000D01*
X164850000Y-82825000D02*
X164850000Y-81717726D01*
X165451000Y-77949000D02*
X172400000Y-71000000D01*
X165435072Y-79034724D02*
X165451000Y-79018796D01*
X165435072Y-81132654D02*
X165435072Y-79034724D01*
X172400000Y-71000000D02*
X172400000Y-57100000D01*
%TO.N,Net-(U8-~{HOLD}{slash}~{RESET}{slash}IO_{3})*%
X168600000Y-61700000D02*
X167322500Y-61700000D01*
X167322500Y-61700000D02*
X166687500Y-61065000D01*
%TO.N,Net-(U8-~{WP}{slash}IO_{2})*%
X161287500Y-62335000D02*
X159835000Y-62335000D01*
D62*
%TO.N,Net-(Q3-B)*%
X177362500Y-121650000D02*
X174650000Y-121650000D01*
X174500000Y-121800000D02*
X172800000Y-121800000D01*
D61*
%TO.N,/MCU/BuzzerControl*%
X167900000Y-119100000D02*
X167900000Y-105400000D01*
X157500000Y-99700000D02*
X157500000Y-92675000D01*
X170700000Y-121900000D02*
X167900000Y-119100000D01*
X157500000Y-92675000D02*
X157925000Y-92250000D01*
%TO.N,Net-(J9-CC2)*%
X184350000Y-96500000D02*
X185550000Y-97700000D01*
X185550000Y-97700000D02*
X186705000Y-97700000D01*
%TO.N,Net-(J9-CC1)*%
X184650000Y-100700000D02*
X186705000Y-100700000D01*
%TD*%
%TA.AperFunction,Conductor*%
%TO.N,+3.3V*%
G36*
X134425791Y-106524597D02*
G01*
X134492781Y-106544436D01*
X134538413Y-106597346D01*
X134549500Y-106648596D01*
X134549500Y-107334069D01*
X134558512Y-107379373D01*
X134574499Y-107459744D01*
X134623535Y-107578127D01*
X134659932Y-107632600D01*
X134694726Y-107684673D01*
X134992862Y-107982809D01*
X135026347Y-108044132D01*
X135027654Y-108089888D01*
X134999500Y-108267648D01*
X134999500Y-108472351D01*
X135031522Y-108674534D01*
X135094781Y-108869223D01*
X135187715Y-109051613D01*
X135308028Y-109217213D01*
X135452786Y-109361971D01*
X135607749Y-109474556D01*
X135618390Y-109482287D01*
X135734607Y-109541503D01*
X135800776Y-109575218D01*
X135800778Y-109575218D01*
X135800781Y-109575220D01*
X135905137Y-109609127D01*
X135995465Y-109638477D01*
X136009141Y-109640643D01*
X136197648Y-109670500D01*
X136197649Y-109670500D01*
X136402351Y-109670500D01*
X136402352Y-109670500D01*
X136604534Y-109638477D01*
X136799219Y-109575220D01*
X136981610Y-109482287D01*
X137074590Y-109414732D01*
X137147213Y-109361971D01*
X137147215Y-109361968D01*
X137147219Y-109361966D01*
X137291966Y-109217219D01*
X137291968Y-109217215D01*
X137291971Y-109217213D01*
X137344732Y-109144590D01*
X137412287Y-109051610D01*
X137505220Y-108869219D01*
X137568477Y-108674534D01*
X137600500Y-108472352D01*
X137600500Y-108267648D01*
X143499500Y-108267648D01*
X143499500Y-108472351D01*
X143531522Y-108674534D01*
X143594781Y-108869223D01*
X143687715Y-109051613D01*
X143808028Y-109217213D01*
X143952786Y-109361971D01*
X144107749Y-109474556D01*
X144118390Y-109482287D01*
X144234607Y-109541503D01*
X144300776Y-109575218D01*
X144300778Y-109575218D01*
X144300781Y-109575220D01*
X144405137Y-109609127D01*
X144495465Y-109638477D01*
X144509141Y-109640643D01*
X144697648Y-109670500D01*
X144697649Y-109670500D01*
X144902351Y-109670500D01*
X144902352Y-109670500D01*
X145104534Y-109638477D01*
X145299219Y-109575220D01*
X145481610Y-109482287D01*
X145574590Y-109414732D01*
X145647213Y-109361971D01*
X145647215Y-109361968D01*
X145647219Y-109361966D01*
X145791966Y-109217219D01*
X145791968Y-109217215D01*
X145791971Y-109217213D01*
X145844732Y-109144590D01*
X145912287Y-109051610D01*
X146005220Y-108869219D01*
X146068477Y-108674534D01*
X146100500Y-108472352D01*
X146100500Y-108267648D01*
X146068477Y-108065465D01*
X146005218Y-107870776D01*
X145971503Y-107804607D01*
X145912287Y-107688390D01*
X145871754Y-107632600D01*
X145791971Y-107522786D01*
X145647213Y-107378028D01*
X145481613Y-107257715D01*
X145481612Y-107257714D01*
X145481610Y-107257713D01*
X145424653Y-107228691D01*
X145299223Y-107164781D01*
X145104534Y-107101522D01*
X144929995Y-107073878D01*
X144902352Y-107069500D01*
X144697648Y-107069500D01*
X144673329Y-107073351D01*
X144495465Y-107101522D01*
X144300776Y-107164781D01*
X144118386Y-107257715D01*
X143952786Y-107378028D01*
X143808028Y-107522786D01*
X143687715Y-107688386D01*
X143594781Y-107870776D01*
X143531522Y-108065465D01*
X143499500Y-108267648D01*
X137600500Y-108267648D01*
X137568477Y-108065465D01*
X137505218Y-107870776D01*
X137471503Y-107804607D01*
X137412287Y-107688390D01*
X137371754Y-107632600D01*
X137291971Y-107522786D01*
X137147213Y-107378028D01*
X136981613Y-107257715D01*
X136981612Y-107257714D01*
X136981610Y-107257713D01*
X136924653Y-107228691D01*
X136799223Y-107164781D01*
X136604534Y-107101522D01*
X136429995Y-107073878D01*
X136402352Y-107069500D01*
X136197648Y-107069500D01*
X136019886Y-107097654D01*
X136014461Y-107096952D01*
X136009335Y-107098865D01*
X135980179Y-107092522D01*
X135950593Y-107088699D01*
X135944989Y-107084867D01*
X135941062Y-107084013D01*
X135912808Y-107062862D01*
X135886819Y-107036873D01*
X135853334Y-106975550D01*
X135850500Y-106949192D01*
X135850500Y-106652182D01*
X135870185Y-106585143D01*
X135922989Y-106539388D01*
X135974783Y-106528182D01*
X164003511Y-106593064D01*
X164010385Y-106593272D01*
X164335365Y-106612250D01*
X164349143Y-106613833D01*
X164384024Y-106619833D01*
X164446754Y-106650598D01*
X164482895Y-106710395D01*
X164487000Y-106742038D01*
X164487000Y-120550500D01*
X164467315Y-120617539D01*
X164414511Y-120663294D01*
X164363001Y-120674500D01*
X164268482Y-120674500D01*
X164193645Y-120686353D01*
X164174696Y-120689354D01*
X164061658Y-120746950D01*
X164061657Y-120746951D01*
X164061652Y-120746954D01*
X163971954Y-120836652D01*
X163971951Y-120836657D01*
X163914352Y-120949698D01*
X163899500Y-121043475D01*
X163899500Y-124356517D01*
X163903460Y-124381517D01*
X163914354Y-124450304D01*
X163971950Y-124563342D01*
X163971952Y-124563344D01*
X163971954Y-124563347D01*
X164061652Y-124653045D01*
X164061654Y-124653046D01*
X164061658Y-124653050D01*
X164174694Y-124710645D01*
X164174698Y-124710647D01*
X164268475Y-124725499D01*
X164268481Y-124725500D01*
X165506518Y-124725499D01*
X165600304Y-124710646D01*
X165713342Y-124653050D01*
X165803050Y-124563342D01*
X165860646Y-124450304D01*
X165860646Y-124450302D01*
X165860647Y-124450301D01*
X165875499Y-124356524D01*
X165875500Y-124356519D01*
X165875499Y-121043482D01*
X165860646Y-120949696D01*
X165803050Y-120836658D01*
X165803046Y-120836654D01*
X165803045Y-120836652D01*
X165713347Y-120746954D01*
X165713344Y-120746952D01*
X165713342Y-120746950D01*
X165636517Y-120707805D01*
X165600301Y-120689352D01*
X165506524Y-120674500D01*
X165506519Y-120674500D01*
X165412000Y-120674500D01*
X165344961Y-120654815D01*
X165299206Y-120602011D01*
X165288000Y-120550500D01*
X165288000Y-107092850D01*
X165289406Y-107088061D01*
X165288378Y-107083179D01*
X165299152Y-107054870D01*
X165307685Y-107025811D01*
X165311455Y-107022543D01*
X165313231Y-107017879D01*
X165337601Y-106999887D01*
X165360489Y-106980056D01*
X165365428Y-106979345D01*
X165369443Y-106976382D01*
X165399668Y-106974422D01*
X165429647Y-106970112D01*
X165435544Y-106972096D01*
X165439166Y-106971862D01*
X165472150Y-106984416D01*
X165540880Y-107022543D01*
X165593792Y-107051895D01*
X165605536Y-107059298D01*
X165867903Y-107246012D01*
X165878748Y-107254684D01*
X166118596Y-107469561D01*
X166128402Y-107479390D01*
X166342720Y-107719731D01*
X166351367Y-107730596D01*
X166537472Y-107993393D01*
X166544849Y-108005156D01*
X166700406Y-108287110D01*
X166706422Y-108299623D01*
X166829484Y-108597207D01*
X166834064Y-108610316D01*
X166923081Y-108919786D01*
X166926166Y-108933323D01*
X166980029Y-109250810D01*
X166981581Y-109264608D01*
X166999805Y-109589586D01*
X167000000Y-109596529D01*
X167000000Y-124996519D01*
X166999805Y-125003472D01*
X166981527Y-125328941D01*
X166979970Y-125342759D01*
X166925950Y-125660695D01*
X166922856Y-125674252D01*
X166833576Y-125984148D01*
X166828983Y-125997272D01*
X166705572Y-126295215D01*
X166699539Y-126307744D01*
X166543538Y-126590006D01*
X166536139Y-126601780D01*
X166349528Y-126864783D01*
X166340859Y-126875655D01*
X166125960Y-127116127D01*
X166116127Y-127125960D01*
X165875655Y-127340859D01*
X165864786Y-127349525D01*
X165685651Y-127476629D01*
X165619587Y-127499369D01*
X165613897Y-127499500D01*
X125186103Y-127499500D01*
X125119064Y-127479815D01*
X125114368Y-127476643D01*
X124935201Y-127349517D01*
X124924344Y-127340859D01*
X124683872Y-127125960D01*
X124674039Y-127116127D01*
X124459140Y-126875655D01*
X124450475Y-126864789D01*
X124263859Y-126601779D01*
X124256461Y-126590006D01*
X124100460Y-126307744D01*
X124094427Y-126295215D01*
X123971016Y-125997272D01*
X123966423Y-125984148D01*
X123877143Y-125674252D01*
X123874049Y-125660695D01*
X123820027Y-125342748D01*
X123818473Y-125328949D01*
X123800195Y-125003471D01*
X123800000Y-124996519D01*
X123800000Y-121055258D01*
X126049500Y-121055258D01*
X126049500Y-121284741D01*
X126074446Y-121474215D01*
X126079452Y-121512238D01*
X126079453Y-121512240D01*
X126138842Y-121733887D01*
X126226650Y-121945876D01*
X126226657Y-121945890D01*
X126341392Y-122144617D01*
X126481081Y-122326661D01*
X126481089Y-122326670D01*
X126643330Y-122488911D01*
X126643338Y-122488918D01*
X126825382Y-122628607D01*
X126825385Y-122628608D01*
X126825388Y-122628611D01*
X127024112Y-122743344D01*
X127024117Y-122743346D01*
X127024123Y-122743349D01*
X127115480Y-122781190D01*
X127236113Y-122831158D01*
X127457762Y-122890548D01*
X127685266Y-122920500D01*
X127685273Y-122920500D01*
X127914727Y-122920500D01*
X127914734Y-122920500D01*
X128142238Y-122890548D01*
X128363887Y-122831158D01*
X128575888Y-122743344D01*
X128774612Y-122628611D01*
X128956661Y-122488919D01*
X128956665Y-122488914D01*
X128956670Y-122488911D01*
X129118911Y-122326670D01*
X129118914Y-122326665D01*
X129118919Y-122326661D01*
X129258611Y-122144612D01*
X129373344Y-121945888D01*
X129461158Y-121733887D01*
X129520548Y-121512238D01*
X129550500Y-121284734D01*
X129550500Y-121055266D01*
X129550499Y-121055258D01*
X134549500Y-121055258D01*
X134549500Y-121284741D01*
X134574446Y-121474215D01*
X134579452Y-121512238D01*
X134579453Y-121512240D01*
X134638842Y-121733887D01*
X134726650Y-121945876D01*
X134726657Y-121945890D01*
X134841392Y-122144617D01*
X134981081Y-122326661D01*
X134981089Y-122326670D01*
X135143330Y-122488911D01*
X135143338Y-122488918D01*
X135325382Y-122628607D01*
X135325385Y-122628608D01*
X135325388Y-122628611D01*
X135524112Y-122743344D01*
X135524117Y-122743346D01*
X135524123Y-122743349D01*
X135615480Y-122781190D01*
X135736113Y-122831158D01*
X135957762Y-122890548D01*
X136185266Y-122920500D01*
X136185273Y-122920500D01*
X136414727Y-122920500D01*
X136414734Y-122920500D01*
X136642238Y-122890548D01*
X136863887Y-122831158D01*
X137075888Y-122743344D01*
X137274612Y-122628611D01*
X137456661Y-122488919D01*
X137456665Y-122488914D01*
X137456670Y-122488911D01*
X137618911Y-122326670D01*
X137618914Y-122326665D01*
X137618919Y-122326661D01*
X137758611Y-122144612D01*
X137873344Y-121945888D01*
X137961158Y-121733887D01*
X138020548Y-121512238D01*
X138050500Y-121284734D01*
X138050500Y-121055266D01*
X138050499Y-121055258D01*
X143049500Y-121055258D01*
X143049500Y-121284741D01*
X143074446Y-121474215D01*
X143079452Y-121512238D01*
X143079453Y-121512240D01*
X143138842Y-121733887D01*
X143226650Y-121945876D01*
X143226657Y-121945890D01*
X143341392Y-122144617D01*
X143481081Y-122326661D01*
X143481089Y-122326670D01*
X143643330Y-122488911D01*
X143643338Y-122488918D01*
X143825382Y-122628607D01*
X143825385Y-122628608D01*
X143825388Y-122628611D01*
X144024112Y-122743344D01*
X144024117Y-122743346D01*
X144024123Y-122743349D01*
X144115480Y-122781190D01*
X144236113Y-122831158D01*
X144457762Y-122890548D01*
X144685266Y-122920500D01*
X144685273Y-122920500D01*
X144914727Y-122920500D01*
X144914734Y-122920500D01*
X145142238Y-122890548D01*
X145363887Y-122831158D01*
X145575888Y-122743344D01*
X145774612Y-122628611D01*
X145956661Y-122488919D01*
X145956665Y-122488914D01*
X145956670Y-122488911D01*
X146118911Y-122326670D01*
X146118914Y-122326665D01*
X146118919Y-122326661D01*
X146258611Y-122144612D01*
X146373344Y-121945888D01*
X146461158Y-121733887D01*
X146520548Y-121512238D01*
X146550500Y-121284734D01*
X146550500Y-121055266D01*
X146520548Y-120827762D01*
X146461158Y-120606113D01*
X146373344Y-120394112D01*
X146258611Y-120195388D01*
X146258608Y-120195385D01*
X146258607Y-120195382D01*
X146157764Y-120063962D01*
X146118919Y-120013339D01*
X146118918Y-120013338D01*
X146118911Y-120013330D01*
X145956670Y-119851089D01*
X145956661Y-119851081D01*
X145774617Y-119711392D01*
X145575890Y-119596657D01*
X145575876Y-119596650D01*
X145363887Y-119508842D01*
X145142238Y-119449452D01*
X145104215Y-119444446D01*
X144914741Y-119419500D01*
X144914734Y-119419500D01*
X144685266Y-119419500D01*
X144685258Y-119419500D01*
X144468715Y-119448009D01*
X144457762Y-119449452D01*
X144426140Y-119457925D01*
X144236112Y-119508842D01*
X144024123Y-119596650D01*
X144024109Y-119596657D01*
X143825382Y-119711392D01*
X143643338Y-119851081D01*
X143481081Y-120013338D01*
X143341392Y-120195382D01*
X143226657Y-120394109D01*
X143226650Y-120394123D01*
X143138842Y-120606112D01*
X143079453Y-120827759D01*
X143079451Y-120827770D01*
X143049500Y-121055258D01*
X138050499Y-121055258D01*
X138020548Y-120827762D01*
X137961158Y-120606113D01*
X137873344Y-120394112D01*
X137758611Y-120195388D01*
X137758608Y-120195385D01*
X137758607Y-120195382D01*
X137657764Y-120063962D01*
X137618919Y-120013339D01*
X137618918Y-120013338D01*
X137618911Y-120013330D01*
X137456670Y-119851089D01*
X137456661Y-119851081D01*
X137274617Y-119711392D01*
X137075890Y-119596657D01*
X137075876Y-119596650D01*
X136863887Y-119508842D01*
X136642238Y-119449452D01*
X136604215Y-119444446D01*
X136414741Y-119419500D01*
X136414734Y-119419500D01*
X136185266Y-119419500D01*
X136185258Y-119419500D01*
X135968715Y-119448009D01*
X135957762Y-119449452D01*
X135926140Y-119457925D01*
X135736112Y-119508842D01*
X135524123Y-119596650D01*
X135524109Y-119596657D01*
X135325382Y-119711392D01*
X135143338Y-119851081D01*
X134981081Y-120013338D01*
X134841392Y-120195382D01*
X134726657Y-120394109D01*
X134726650Y-120394123D01*
X134638842Y-120606112D01*
X134579453Y-120827759D01*
X134579451Y-120827770D01*
X134549500Y-121055258D01*
X129550499Y-121055258D01*
X129520548Y-120827762D01*
X129461158Y-120606113D01*
X129373344Y-120394112D01*
X129258611Y-120195388D01*
X129258608Y-120195385D01*
X129258607Y-120195382D01*
X129157764Y-120063962D01*
X129118919Y-120013339D01*
X129118918Y-120013338D01*
X129118911Y-120013330D01*
X128956670Y-119851089D01*
X128956661Y-119851081D01*
X128774617Y-119711392D01*
X128575890Y-119596657D01*
X128575876Y-119596650D01*
X128363887Y-119508842D01*
X128142238Y-119449452D01*
X128104215Y-119444446D01*
X127914741Y-119419500D01*
X127914734Y-119419500D01*
X127685266Y-119419500D01*
X127685258Y-119419500D01*
X127468715Y-119448009D01*
X127457762Y-119449452D01*
X127426140Y-119457925D01*
X127236112Y-119508842D01*
X127024123Y-119596650D01*
X127024109Y-119596657D01*
X126825382Y-119711392D01*
X126643338Y-119851081D01*
X126481081Y-120013338D01*
X126341392Y-120195382D01*
X126226657Y-120394109D01*
X126226650Y-120394123D01*
X126138842Y-120606112D01*
X126079453Y-120827759D01*
X126079451Y-120827770D01*
X126049500Y-121055258D01*
X123800000Y-121055258D01*
X123800000Y-115034822D01*
X126499499Y-115034822D01*
X126508231Y-115078717D01*
X126508232Y-115078721D01*
X126508233Y-115078722D01*
X126541496Y-115128504D01*
X126591278Y-115161767D01*
X126591281Y-115161767D01*
X126591282Y-115161768D01*
X126635177Y-115170500D01*
X126635180Y-115170500D01*
X128964822Y-115170500D01*
X129008717Y-115161768D01*
X129008717Y-115161767D01*
X129008722Y-115161767D01*
X129058504Y-115128504D01*
X129091767Y-115078722D01*
X129091767Y-115078721D01*
X129093847Y-115075609D01*
X129147459Y-115030804D01*
X129196949Y-115020500D01*
X134903051Y-115020500D01*
X134970090Y-115040185D01*
X135006153Y-115075609D01*
X135008232Y-115078721D01*
X135008233Y-115078722D01*
X135041496Y-115128504D01*
X135091278Y-115161767D01*
X135091281Y-115161767D01*
X135091282Y-115161768D01*
X135135177Y-115170500D01*
X135135180Y-115170500D01*
X137464822Y-115170500D01*
X137508717Y-115161768D01*
X137508717Y-115161767D01*
X137508722Y-115161767D01*
X137558504Y-115128504D01*
X137591767Y-115078722D01*
X137591767Y-115078721D01*
X137593847Y-115075609D01*
X137647459Y-115030804D01*
X137696949Y-115020500D01*
X143403051Y-115020500D01*
X143470090Y-115040185D01*
X143506153Y-115075609D01*
X143508232Y-115078721D01*
X143508233Y-115078722D01*
X143541496Y-115128504D01*
X143591278Y-115161767D01*
X143591281Y-115161767D01*
X143591282Y-115161768D01*
X143635177Y-115170500D01*
X143635180Y-115170500D01*
X143992085Y-115170500D01*
X144059124Y-115190185D01*
X144079766Y-115206819D01*
X152200681Y-123327734D01*
X152234166Y-123389057D01*
X152237000Y-123415415D01*
X152237000Y-124381517D01*
X152247792Y-124449657D01*
X152251854Y-124475304D01*
X152309450Y-124588342D01*
X152309452Y-124588344D01*
X152309454Y-124588347D01*
X152399152Y-124678045D01*
X152399154Y-124678046D01*
X152399158Y-124678050D01*
X152512194Y-124735645D01*
X152512198Y-124735647D01*
X152605975Y-124750499D01*
X152605981Y-124750500D01*
X153844018Y-124750499D01*
X153937804Y-124735646D01*
X154050842Y-124678050D01*
X154140550Y-124588342D01*
X154198146Y-124475304D01*
X154198146Y-124475302D01*
X154198147Y-124475301D01*
X154212999Y-124381524D01*
X154213000Y-124381519D01*
X154212999Y-123349903D01*
X154226515Y-123293608D01*
X154291211Y-123166639D01*
X154347171Y-122994409D01*
X154375501Y-122815546D01*
X154375501Y-122634453D01*
X154347171Y-122455591D01*
X154291211Y-122283361D01*
X154226513Y-122156387D01*
X154212999Y-122100094D01*
X154212999Y-121068482D01*
X154210905Y-121055258D01*
X154198146Y-120974696D01*
X154140550Y-120861658D01*
X154140546Y-120861654D01*
X154140545Y-120861652D01*
X154050847Y-120771954D01*
X154050844Y-120771952D01*
X154050842Y-120771950D01*
X153974017Y-120732805D01*
X153937801Y-120714352D01*
X153844024Y-120699500D01*
X153844019Y-120699500D01*
X152877915Y-120699500D01*
X152810876Y-120679815D01*
X152790234Y-120663181D01*
X150870528Y-118743475D01*
X156087000Y-118743475D01*
X156087000Y-119756517D01*
X156093183Y-119795554D01*
X156101854Y-119850304D01*
X156159450Y-119963342D01*
X156159452Y-119963344D01*
X156159454Y-119963347D01*
X156249152Y-120053045D01*
X156249154Y-120053046D01*
X156249158Y-120053050D01*
X156362196Y-120110646D01*
X156362198Y-120110647D01*
X156455975Y-120125499D01*
X156455981Y-120125500D01*
X157194018Y-120125499D01*
X157194022Y-120125499D01*
X157260789Y-120114924D01*
X157277637Y-120112256D01*
X157346931Y-120121211D01*
X157400383Y-120166207D01*
X157421022Y-120232959D01*
X157416810Y-120266821D01*
X157412000Y-120284771D01*
X157412000Y-120575500D01*
X157392315Y-120642539D01*
X157339511Y-120688294D01*
X157288000Y-120699500D01*
X156980982Y-120699500D01*
X156906246Y-120711337D01*
X156887196Y-120714354D01*
X156774158Y-120771950D01*
X156774157Y-120771951D01*
X156774152Y-120771954D01*
X156684454Y-120861652D01*
X156684451Y-120861657D01*
X156626852Y-120974698D01*
X156612000Y-121068475D01*
X156612000Y-124381517D01*
X156622792Y-124449657D01*
X156626854Y-124475304D01*
X156684450Y-124588342D01*
X156684452Y-124588344D01*
X156684454Y-124588347D01*
X156774152Y-124678045D01*
X156774154Y-124678046D01*
X156774158Y-124678050D01*
X156887194Y-124735645D01*
X156887198Y-124735647D01*
X156980975Y-124750499D01*
X156980981Y-124750500D01*
X158219018Y-124750499D01*
X158312804Y-124735646D01*
X158425842Y-124678050D01*
X158515550Y-124588342D01*
X158573146Y-124475304D01*
X158573146Y-124475302D01*
X158573147Y-124475301D01*
X158587999Y-124381524D01*
X158588000Y-124381519D01*
X158587999Y-121068482D01*
X158573146Y-120974696D01*
X158515550Y-120861658D01*
X158515546Y-120861654D01*
X158515545Y-120861652D01*
X158425847Y-120771954D01*
X158425844Y-120771952D01*
X158425842Y-120771950D01*
X158349017Y-120732805D01*
X158312801Y-120714352D01*
X158303520Y-120711337D01*
X158304336Y-120708825D01*
X158286815Y-120700518D01*
X158255797Y-120686353D01*
X158255297Y-120685575D01*
X158254463Y-120685180D01*
X158236450Y-120656249D01*
X158218023Y-120627575D01*
X158217850Y-120626374D01*
X158217534Y-120625866D01*
X158213000Y-120592640D01*
X158213000Y-120554754D01*
X158232685Y-120487715D01*
X158249315Y-120467077D01*
X158554574Y-120161817D01*
X158615897Y-120128333D01*
X158642255Y-120125499D01*
X159157744Y-120125499D01*
X159224783Y-120145184D01*
X159245425Y-120161818D01*
X159670926Y-120587319D01*
X159704411Y-120648642D01*
X159699427Y-120718334D01*
X159670926Y-120762681D01*
X159596954Y-120836652D01*
X159596951Y-120836657D01*
X159539352Y-120949698D01*
X159524500Y-121043475D01*
X159524500Y-124356517D01*
X159528460Y-124381517D01*
X159539354Y-124450304D01*
X159596950Y-124563342D01*
X159596952Y-124563344D01*
X159596954Y-124563347D01*
X159686652Y-124653045D01*
X159686654Y-124653046D01*
X159686658Y-124653050D01*
X159799694Y-124710645D01*
X159799698Y-124710647D01*
X159893475Y-124725499D01*
X159893481Y-124725500D01*
X161131518Y-124725499D01*
X161225304Y-124710646D01*
X161338342Y-124653050D01*
X161428050Y-124563342D01*
X161485646Y-124450304D01*
X161485646Y-124450302D01*
X161485647Y-124450301D01*
X161500499Y-124356524D01*
X161500500Y-124356519D01*
X161500499Y-121043482D01*
X161485646Y-120949696D01*
X161428050Y-120836658D01*
X161428046Y-120836654D01*
X161428045Y-120836652D01*
X161338347Y-120746954D01*
X161338344Y-120746952D01*
X161338342Y-120746950D01*
X161261517Y-120707805D01*
X161225301Y-120689352D01*
X161131524Y-120674500D01*
X161131519Y-120674500D01*
X160938008Y-120674500D01*
X160870969Y-120654815D01*
X160839510Y-120621825D01*
X160837930Y-120623038D01*
X160832978Y-120616585D01*
X159674318Y-119457925D01*
X159640833Y-119396602D01*
X159637999Y-119370244D01*
X159637999Y-118743482D01*
X159637998Y-118743475D01*
X159623146Y-118649696D01*
X159565550Y-118536658D01*
X159565546Y-118536654D01*
X159565545Y-118536652D01*
X159475847Y-118446954D01*
X159475844Y-118446952D01*
X159475842Y-118446950D01*
X159399017Y-118407805D01*
X159362801Y-118389352D01*
X159269024Y-118374500D01*
X159269019Y-118374500D01*
X159189500Y-118374500D01*
X159122461Y-118354815D01*
X159076706Y-118302011D01*
X159065500Y-118250500D01*
X159065500Y-115939499D01*
X159085185Y-115872460D01*
X159137989Y-115826705D01*
X159189500Y-115815499D01*
X159565020Y-115815499D01*
X159565022Y-115815499D01*
X159642831Y-115800023D01*
X159731066Y-115741066D01*
X159790023Y-115652831D01*
X159805500Y-115575023D01*
X159805499Y-114824978D01*
X159790023Y-114747169D01*
X159731066Y-114658934D01*
X159642831Y-114599977D01*
X159642829Y-114599976D01*
X159642826Y-114599975D01*
X159565026Y-114584500D01*
X157764980Y-114584500D01*
X157687168Y-114599977D01*
X157657506Y-114619797D01*
X157598936Y-114658933D01*
X157598933Y-114658935D01*
X157539977Y-114747169D01*
X157539975Y-114747173D01*
X157524500Y-114824972D01*
X157524500Y-115575019D01*
X157524501Y-115575022D01*
X157539977Y-115652831D01*
X157598934Y-115741066D01*
X157687169Y-115800023D01*
X157687172Y-115800023D01*
X157687173Y-115800024D01*
X157713338Y-115805228D01*
X157764977Y-115815500D01*
X158140500Y-115815499D01*
X158207539Y-115835183D01*
X158253294Y-115887987D01*
X158264500Y-115939499D01*
X158264500Y-118455245D01*
X158244815Y-118522284D01*
X158239815Y-118528487D01*
X158240189Y-118528759D01*
X158234451Y-118536657D01*
X158176852Y-118649698D01*
X158162000Y-118743475D01*
X158162000Y-119370244D01*
X158142315Y-119437283D01*
X158125681Y-119457925D01*
X157774680Y-119808925D01*
X157713357Y-119842410D01*
X157643665Y-119837426D01*
X157587732Y-119795554D01*
X157563315Y-119730090D01*
X157562999Y-119721271D01*
X157562999Y-118743482D01*
X157548146Y-118649696D01*
X157490550Y-118536658D01*
X157490546Y-118536654D01*
X157490545Y-118536652D01*
X157400847Y-118446954D01*
X157400838Y-118446947D01*
X157293205Y-118392105D01*
X157242409Y-118344131D01*
X157225500Y-118281621D01*
X157225500Y-117815537D01*
X157242113Y-117753537D01*
X157244799Y-117748886D01*
X157275500Y-117634309D01*
X157275500Y-117515691D01*
X157244799Y-117401114D01*
X157185489Y-117298387D01*
X157101613Y-117214511D01*
X156998886Y-117155201D01*
X156884309Y-117124500D01*
X156765691Y-117124500D01*
X156651114Y-117155201D01*
X156651112Y-117155201D01*
X156651112Y-117155202D01*
X156548387Y-117214511D01*
X156548384Y-117214513D01*
X156464513Y-117298384D01*
X156464511Y-117298387D01*
X156405201Y-117401114D01*
X156374500Y-117515691D01*
X156374500Y-117634309D01*
X156405201Y-117748886D01*
X156407886Y-117753537D01*
X156424500Y-117815537D01*
X156424500Y-118281621D01*
X156404815Y-118348660D01*
X156356795Y-118392105D01*
X156249161Y-118446947D01*
X156249152Y-118446954D01*
X156159454Y-118536652D01*
X156159451Y-118536657D01*
X156101852Y-118649698D01*
X156087000Y-118743475D01*
X150870528Y-118743475D01*
X146444372Y-114317319D01*
X151145000Y-114317319D01*
X151155458Y-114419683D01*
X151210422Y-114585555D01*
X151210424Y-114585560D01*
X151302158Y-114734283D01*
X151425716Y-114857841D01*
X151574439Y-114949575D01*
X151574444Y-114949577D01*
X151740317Y-115004541D01*
X151740314Y-115004541D01*
X151842680Y-115014999D01*
X151842693Y-115015000D01*
X152385000Y-115015000D01*
X152885000Y-115015000D01*
X153427307Y-115015000D01*
X153427319Y-115014999D01*
X153529683Y-115004541D01*
X153695555Y-114949577D01*
X153695560Y-114949575D01*
X153844283Y-114857841D01*
X153967841Y-114734283D01*
X154059575Y-114585560D01*
X154059577Y-114585555D01*
X154114541Y-114419683D01*
X154124999Y-114317319D01*
X154125000Y-114317306D01*
X154125000Y-113150000D01*
X152885000Y-113150000D01*
X152885000Y-115015000D01*
X152385000Y-115015000D01*
X152385000Y-113150000D01*
X151145000Y-113150000D01*
X151145000Y-114317319D01*
X146444372Y-114317319D01*
X146136819Y-114009766D01*
X146103334Y-113948443D01*
X146100500Y-113922085D01*
X146100500Y-112705177D01*
X146091768Y-112661282D01*
X146091767Y-112661281D01*
X146091767Y-112661278D01*
X146058504Y-112611496D01*
X146058503Y-112611495D01*
X146008724Y-112578234D01*
X146008717Y-112578231D01*
X145964822Y-112569500D01*
X145964820Y-112569500D01*
X143635180Y-112569500D01*
X143635178Y-112569500D01*
X143591282Y-112578231D01*
X143591275Y-112578234D01*
X143541496Y-112611495D01*
X143506153Y-112664391D01*
X143452541Y-112709196D01*
X143403051Y-112719500D01*
X137696949Y-112719500D01*
X137629910Y-112699815D01*
X137593847Y-112664391D01*
X137558503Y-112611495D01*
X137508724Y-112578234D01*
X137508717Y-112578231D01*
X137464822Y-112569500D01*
X137464820Y-112569500D01*
X135135180Y-112569500D01*
X135135178Y-112569500D01*
X135091282Y-112578231D01*
X135091275Y-112578234D01*
X135041496Y-112611495D01*
X135006153Y-112664391D01*
X134952541Y-112709196D01*
X134903051Y-112719500D01*
X129196949Y-112719500D01*
X129129910Y-112699815D01*
X129093847Y-112664391D01*
X129058503Y-112611495D01*
X129008724Y-112578234D01*
X129008717Y-112578231D01*
X128964822Y-112569500D01*
X128964820Y-112569500D01*
X126635180Y-112569500D01*
X126635178Y-112569500D01*
X126591282Y-112578231D01*
X126591275Y-112578234D01*
X126541496Y-112611495D01*
X126541495Y-112611496D01*
X126508234Y-112661275D01*
X126508231Y-112661282D01*
X126499500Y-112705177D01*
X126499500Y-112705180D01*
X126499500Y-115034820D01*
X126499500Y-115034822D01*
X126499499Y-115034822D01*
X123800000Y-115034822D01*
X123800000Y-111482680D01*
X151145000Y-111482680D01*
X151145000Y-112650000D01*
X152385000Y-112650000D01*
X152885000Y-112650000D01*
X154125000Y-112650000D01*
X154125000Y-112524972D01*
X157524500Y-112524972D01*
X157524500Y-113275019D01*
X157531618Y-113310804D01*
X157539977Y-113352831D01*
X157598934Y-113441066D01*
X157687169Y-113500023D01*
X157687172Y-113500023D01*
X157687173Y-113500024D01*
X157715478Y-113505654D01*
X157764977Y-113515500D01*
X159565022Y-113515499D01*
X159642831Y-113500023D01*
X159731066Y-113441066D01*
X159788167Y-113355607D01*
X159841778Y-113310804D01*
X159891268Y-113300500D01*
X160145246Y-113300500D01*
X160212285Y-113320185D01*
X160232922Y-113336814D01*
X160299158Y-113403050D01*
X160412194Y-113460645D01*
X160412198Y-113460647D01*
X160507398Y-113475725D01*
X160570532Y-113505654D01*
X160607464Y-113564965D01*
X160612000Y-113598198D01*
X160612000Y-113985036D01*
X160605488Y-114017778D01*
X160607305Y-114018265D01*
X160605203Y-114026110D01*
X160605201Y-114026114D01*
X160574500Y-114140691D01*
X160574500Y-114259309D01*
X160605201Y-114373886D01*
X160664511Y-114476613D01*
X160748387Y-114560489D01*
X160851114Y-114619799D01*
X160965691Y-114650500D01*
X160965694Y-114650500D01*
X161084306Y-114650500D01*
X161084309Y-114650500D01*
X161198886Y-114619799D01*
X161301613Y-114560489D01*
X161385489Y-114476613D01*
X161444799Y-114373886D01*
X161475500Y-114259309D01*
X161475500Y-114140691D01*
X161444799Y-114026114D01*
X161444797Y-114026110D01*
X161429613Y-113999810D01*
X161413000Y-113937810D01*
X161413000Y-113598197D01*
X161432685Y-113531158D01*
X161485489Y-113485403D01*
X161517603Y-113475723D01*
X161519017Y-113475499D01*
X161519018Y-113475499D01*
X161612804Y-113460646D01*
X161725842Y-113403050D01*
X161815550Y-113313342D01*
X161873146Y-113200304D01*
X161873146Y-113200302D01*
X161873147Y-113200301D01*
X161887999Y-113106524D01*
X161888000Y-113106519D01*
X161887999Y-112368482D01*
X161873146Y-112274696D01*
X161815550Y-112161658D01*
X161815546Y-112161654D01*
X161815545Y-112161652D01*
X161725847Y-112071954D01*
X161725844Y-112071952D01*
X161725842Y-112071950D01*
X161649017Y-112032805D01*
X161612801Y-112014352D01*
X161519024Y-111999500D01*
X160505982Y-111999500D01*
X160425019Y-112012323D01*
X160412196Y-112014354D01*
X160299158Y-112071950D01*
X160299157Y-112071951D01*
X160299152Y-112071954D01*
X160209454Y-112161652D01*
X160209451Y-112161657D01*
X160151852Y-112274698D01*
X160137000Y-112368475D01*
X160137000Y-112375500D01*
X160134449Y-112384185D01*
X160135738Y-112393147D01*
X160124759Y-112417187D01*
X160117315Y-112442539D01*
X160110474Y-112448466D01*
X160106713Y-112456703D01*
X160084478Y-112470992D01*
X160064511Y-112488294D01*
X160053996Y-112490581D01*
X160047935Y-112494477D01*
X160013000Y-112499500D01*
X159891269Y-112499500D01*
X159824230Y-112479815D01*
X159788167Y-112444391D01*
X159778320Y-112429654D01*
X159731066Y-112358934D01*
X159642831Y-112299977D01*
X159642829Y-112299976D01*
X159642826Y-112299975D01*
X159565026Y-112284500D01*
X157764980Y-112284500D01*
X157687168Y-112299977D01*
X157598933Y-112358935D01*
X157539977Y-112447169D01*
X157539975Y-112447173D01*
X157524500Y-112524972D01*
X154125000Y-112524972D01*
X154125000Y-111482693D01*
X154124999Y-111482680D01*
X154114541Y-111380316D01*
X154059577Y-111214444D01*
X154059575Y-111214439D01*
X153967841Y-111065716D01*
X153913120Y-111010995D01*
X157175000Y-111010995D01*
X157177748Y-111045917D01*
X157177749Y-111045923D01*
X157221186Y-111195433D01*
X157221188Y-111195436D01*
X157300445Y-111329452D01*
X157300451Y-111329461D01*
X157410538Y-111439548D01*
X157410547Y-111439554D01*
X157544563Y-111518811D01*
X157544566Y-111518813D01*
X157694076Y-111562250D01*
X157694082Y-111562251D01*
X157729004Y-111564999D01*
X157729020Y-111565000D01*
X158415000Y-111565000D01*
X158915000Y-111565000D01*
X159600980Y-111565000D01*
X159600995Y-111564999D01*
X159635917Y-111562251D01*
X159635923Y-111562250D01*
X159785433Y-111518813D01*
X159785436Y-111518811D01*
X159834741Y-111489653D01*
X159902465Y-111472470D01*
X159968727Y-111494630D01*
X159985543Y-111508704D01*
X160069154Y-111592315D01*
X160218375Y-111684356D01*
X160218380Y-111684358D01*
X160384802Y-111739505D01*
X160384809Y-111739506D01*
X160487519Y-111749999D01*
X160762499Y-111749999D01*
X161262500Y-111749999D01*
X161537472Y-111749999D01*
X161537486Y-111749998D01*
X161640197Y-111739505D01*
X161806619Y-111684358D01*
X161806624Y-111684356D01*
X161955845Y-111592315D01*
X162079815Y-111468345D01*
X162171856Y-111319124D01*
X162171858Y-111319119D01*
X162227005Y-111152697D01*
X162227006Y-111152690D01*
X162237499Y-111049986D01*
X162237500Y-111049973D01*
X162237500Y-110912500D01*
X161262500Y-110912500D01*
X161262500Y-111749999D01*
X160762499Y-111749999D01*
X160762500Y-111749998D01*
X160762500Y-110912500D01*
X159771362Y-110912500D01*
X159704323Y-110892815D01*
X159683681Y-110876181D01*
X159657500Y-110850000D01*
X158915000Y-110850000D01*
X158915000Y-111565000D01*
X158415000Y-111565000D01*
X158415000Y-110850000D01*
X157175000Y-110850000D01*
X157175000Y-111010995D01*
X153913120Y-111010995D01*
X153844283Y-110942158D01*
X153782706Y-110904177D01*
X153695560Y-110850424D01*
X153695555Y-110850422D01*
X153529682Y-110795458D01*
X153529685Y-110795458D01*
X153427319Y-110785000D01*
X152885000Y-110785000D01*
X152885000Y-112650000D01*
X152385000Y-112650000D01*
X152385000Y-110785000D01*
X151842680Y-110785000D01*
X151740316Y-110795458D01*
X151574444Y-110850422D01*
X151574439Y-110850424D01*
X151425716Y-110942158D01*
X151302158Y-111065716D01*
X151210424Y-111214439D01*
X151210422Y-111214444D01*
X151155458Y-111380316D01*
X151145000Y-111482680D01*
X123800000Y-111482680D01*
X123800000Y-110189004D01*
X157175000Y-110189004D01*
X157175000Y-110350000D01*
X158415000Y-110350000D01*
X158415000Y-109635000D01*
X158915000Y-109635000D01*
X158915000Y-110350000D01*
X160171138Y-110350000D01*
X160238177Y-110369685D01*
X160258819Y-110386319D01*
X160285000Y-110412500D01*
X160762500Y-110412500D01*
X161262500Y-110412500D01*
X162237499Y-110412500D01*
X162237499Y-110275028D01*
X162237498Y-110275013D01*
X162227005Y-110172302D01*
X162171858Y-110005880D01*
X162171856Y-110005875D01*
X162079815Y-109856654D01*
X161955845Y-109732684D01*
X161806624Y-109640643D01*
X161806619Y-109640641D01*
X161640197Y-109585494D01*
X161640190Y-109585493D01*
X161537486Y-109575000D01*
X161262500Y-109575000D01*
X161262500Y-110412500D01*
X160762500Y-110412500D01*
X160762500Y-109575000D01*
X160487529Y-109575000D01*
X160487512Y-109575001D01*
X160384802Y-109585494D01*
X160218380Y-109640641D01*
X160218375Y-109640643D01*
X160069156Y-109732683D01*
X160064086Y-109737753D01*
X160002761Y-109771235D01*
X159933070Y-109766247D01*
X159913288Y-109756799D01*
X159785436Y-109681188D01*
X159785433Y-109681186D01*
X159635923Y-109637749D01*
X159635917Y-109637748D01*
X159600995Y-109635000D01*
X158915000Y-109635000D01*
X158415000Y-109635000D01*
X157729004Y-109635000D01*
X157694082Y-109637748D01*
X157694076Y-109637749D01*
X157544566Y-109681186D01*
X157544563Y-109681188D01*
X157410547Y-109760445D01*
X157410538Y-109760451D01*
X157300451Y-109870538D01*
X157300445Y-109870547D01*
X157221188Y-110004563D01*
X157221186Y-110004566D01*
X157177749Y-110154076D01*
X157177748Y-110154082D01*
X157175000Y-110189004D01*
X123800000Y-110189004D01*
X123800000Y-109510430D01*
X123800196Y-109503467D01*
X123818527Y-109177533D01*
X123820088Y-109163695D01*
X123839160Y-109051613D01*
X123874268Y-108845290D01*
X123877366Y-108831736D01*
X123966913Y-108521393D01*
X123971507Y-108508285D01*
X124095289Y-108209938D01*
X124101326Y-108197423D01*
X124257777Y-107914844D01*
X124265182Y-107903081D01*
X124452332Y-107639824D01*
X124460998Y-107628980D01*
X124676495Y-107388359D01*
X124686330Y-107378547D01*
X124927436Y-107163619D01*
X124938320Y-107154963D01*
X125202006Y-106968425D01*
X125213769Y-106961058D01*
X125496723Y-106805253D01*
X125509262Y-106799241D01*
X125774500Y-106689915D01*
X125843979Y-106682568D01*
X125906404Y-106713951D01*
X125909432Y-106716878D01*
X126694139Y-107501585D01*
X126727624Y-107562908D01*
X126722640Y-107632600D01*
X126706777Y-107662150D01*
X126687713Y-107688389D01*
X126687712Y-107688391D01*
X126594781Y-107870776D01*
X126531522Y-108065465D01*
X126499500Y-108267648D01*
X126499500Y-108472351D01*
X126531522Y-108674534D01*
X126594781Y-108869223D01*
X126687715Y-109051613D01*
X126808028Y-109217213D01*
X126952786Y-109361971D01*
X127107749Y-109474556D01*
X127118390Y-109482287D01*
X127234607Y-109541503D01*
X127300776Y-109575218D01*
X127300778Y-109575218D01*
X127300781Y-109575220D01*
X127405137Y-109609127D01*
X127495465Y-109638477D01*
X127509141Y-109640643D01*
X127697648Y-109670500D01*
X127697649Y-109670500D01*
X127902351Y-109670500D01*
X127902352Y-109670500D01*
X128104534Y-109638477D01*
X128299219Y-109575220D01*
X128481610Y-109482287D01*
X128574590Y-109414732D01*
X128647213Y-109361971D01*
X128647215Y-109361968D01*
X128647219Y-109361966D01*
X128791966Y-109217219D01*
X128791968Y-109217215D01*
X128791971Y-109217213D01*
X128844732Y-109144590D01*
X128912287Y-109051610D01*
X129005220Y-108869219D01*
X129068477Y-108674534D01*
X129100500Y-108472352D01*
X129100500Y-108267648D01*
X129068477Y-108065465D01*
X129005218Y-107870776D01*
X128971503Y-107804607D01*
X128912287Y-107688390D01*
X128871754Y-107632600D01*
X128791971Y-107522786D01*
X128647213Y-107378028D01*
X128481613Y-107257715D01*
X128481612Y-107257714D01*
X128481610Y-107257713D01*
X128424653Y-107228691D01*
X128299223Y-107164781D01*
X128220711Y-107139271D01*
X128176446Y-107124888D01*
X128127085Y-107094639D01*
X127753482Y-106721036D01*
X127719997Y-106659713D01*
X127724981Y-106590021D01*
X127766853Y-106534088D01*
X127832317Y-106509671D01*
X127841431Y-106509355D01*
X134425791Y-106524597D01*
G37*
%TD.AperFunction*%
%TD*%
M02*
